SplineFontDB: 1.0
FontName: Lohit-Telugu
FullName: Lohit Telugu
FamilyName: Lohit Telugu
Weight: Book
Copyright: Copyright (c) 2003, Modular Infotech, Pune, INDIA. 520913 - under General Public License
Version: 1.00
ItalicAngle: 0
UnderlinePosition: -300
UnderlineWidth: 20
Ascent: 690
Descent: 334
Order2: 1
NeedsXUIDChange: 1
XUID: [1021 648 100124046 8549501]
FSType: 0
OS2Version: 1
OS2_WeightWidthSlopeOnly: 0
OS2_UseTypoMetrics: 1
CreationTime: 1153280036
ModificationTime: 1168403127
PfmFamily: 17
TTFWeight: 400
TTFWidth: 5
LineGap: 200
VLineGap: 0
Panose: 2 0 6 0 0 0 0 0 0 0
OS2TypoAscent: 0
OS2TypoAOffset: 1
OS2TypoDescent: 0
OS2TypoDOffset: 1
OS2TypoLinegap: 0
OS2WinAscent: 0
OS2WinAOffset: 1
OS2WinDescent: 0
OS2WinDOffset: 1
HheadAscent: 0
HheadAOffset: 1
HheadDescent: 0
HheadDOffset: 1
OS2SubXSize: 717
OS2SubYSize: 666
OS2SubXOff: 0
OS2SubYOff: 205
OS2SupXSize: 717
OS2SupYSize: 666
OS2SupXOff: 0
OS2SupYOff: 512
OS2StrikeYSize: 50
OS2StrikeYPos: 250
OS2Vendor: 'MODI'
ScriptLang: 2
 1 telu 1 dflt 
 0 
ChainSub: coverage 0 0 'blws' 0 0 0 1
 1 1 0
  Coverage: 16 U0C30_U0C4D.blwf
  BCoverage: 5 U0C56
 1
  SeqLookup: 0 'L000'
EndFPST
ChainSub: coverage 0 0 'blws' 0 0 0 1
 1 1 0
  Coverage: 577 U0C15_U0C4D.blwf U0C16_U0C4D.blwf U0C17_U0C4D.blwf U0C18_U0C4D.blwf U0C19_U0C4D.blwf U0C1A_U0C4D.blwf U0C1B_U0C4D.blwf U0C1C_U0C4D.blwf U0C1D_U0C4D.blwf U0C1E_U0C4D.blwf U0C1F_U0C4D.blwf U0C20_U0C4D.blwf U0C21_U0C4D.blwf U0C22_U0C4D.blwf U0C23_U0C4D.blwf U0C24_U0C4D.blwf U0C25_U0C4D.blwf U0C26_U0C4D.blwf U0C27_U0C4D.blwf U0C28_U0C4D.blwf U0C2A_U0C4D.blwf U0C2B_U0C4D.blwf U0C2C_U0C4D.blwf U0C2D_U0C4D.blwf U0C2E_U0C4D.blwf U0C2F_U0C4D.blwf U0C31_U0C4D.blwf U0C32_U0C4D.blwf U0C33_U0C4D.blwf U0C35_U0C4D.blwf U0C36_U0C4D.blwf U0C37_U0C4D.blwf U0C38_U0C4D.blwf U0C39_U0C4D.blwf

StartChar: .notdef
Encoding: 65536 -1 0
Width: 800
GlyphClass: 2
Flags: W
Fore
100 0 m 1,0,-1
 100 700 l 1,1,-1
 700 700 l 1,2,-1
 700 0 l 1,3,-1
 100 0 l 1,4,-1
 100 0 l 1,0,-1
150 50 m 1,5,-1
 650 50 l 1,6,-1
 650 650 l 1,7,-1
 150 650 l 1,8,-1
 150 50 l 1,9,-1
 150 50 l 1,5,-1
EndSplineSet
EndChar
StartChar: uni0214
Encoding: 532 532 5
Width: 800
GlyphClass: 2
Flags: W
Fore
100 -310 m 1,0,-1
 100 390 l 1,1,-1
 700 390 l 1,2,-1
 700 -310 l 1,3,-1
 100 -310 l 1,4,-1
 100 -310 l 1,0,-1
150 -260 m 1,5,-1
 650 -260 l 1,6,-1
 650 340 l 1,7,-1
 150 340 l 1,8,-1
 150 -260 l 1,9,-1
 150 -260 l 1,5,-1
EndSplineSet
EndChar
StartChar: uni021C
Encoding: 540 540 6
Width: 800
GlyphClass: 2
Flags: W
Fore
100 -310 m 1,0,-1
 100 390 l 1,1,-1
 700 390 l 1,2,-1
 700 -310 l 1,3,-1
 100 -310 l 1,4,-1
 100 -310 l 1,0,-1
150 -260 m 1,5,-1
 650 -260 l 1,6,-1
 650 340 l 1,7,-1
 150 340 l 1,8,-1
 150 -260 l 1,9,-1
 150 -260 l 1,5,-1
EndSplineSet
EndChar
StartChar: U0C01
Encoding: 3073 3073 7
Width: 444
GlyphClass: 2
Flags: W
Fore
393 119 m 1,0,-1
 418 42 l 1,1,2
 394 22 394 22 363 11 c 128,-1,3
 332 0 332 0 299 0 c 0,4,5
 193 0 193 0 118.5 84.5 c 128,-1,6
 44 169 44 169 44 289 c 256,7,8
 44 409 44 409 118.5 493.5 c 128,-1,9
 193 578 193 578 299 578 c 0,10,11
 335 578 335 578 365.5 571.5 c 128,-1,12
 396 565 396 565 418 552 c 1,13,-1
 393 476 l 1,14,15
 362 487 362 487 338.5 491.5 c 128,-1,16
 315 496 315 496 299 493 c 1,17,18
 229 493 229 493 179 433.5 c 128,-1,19
 129 374 129 374 129 289 c 0,20,21
 129 205 129 205 179 145 c 128,-1,22
 229 85 229 85 299 85 c 0,23,24
 325 85 325 85 349 94 c 128,-1,25
 373 103 373 103 393 119 c 1,26,-1
 393 119 l 1,0,-1
EndSplineSet
EndChar
StartChar: U0C02
Encoding: 3074 3074 8
Width: 675
GlyphClass: 2
Flags: W
Fore
42 294 m 1,0,1
 42 416 42 416 128.5 502 c 128,-1,2
 215 588 215 588 337 588 c 256,3,4
 459 588 459 588 545.5 502 c 128,-1,5
 632 416 632 416 632 294 c 256,6,7
 632 172 632 172 545.5 86 c 128,-1,8
 459 0 459 0 337 0 c 256,9,10
 215 0 215 0 128.5 86 c 128,-1,11
 42 172 42 172 42 294 c 1,12,-1
 42 294 l 1,0,1
124 294 m 1,13,14
 124 206 124 206 186.5 144 c 128,-1,15
 249 82 249 82 337 82 c 256,16,17
 425 82 425 82 487 144 c 128,-1,18
 549 206 549 206 549 294 c 256,19,20
 549 382 549 382 487 444.5 c 128,-1,21
 425 507 425 507 337 507 c 256,22,23
 249 507 249 507 186.5 444.5 c 128,-1,24
 124 382 124 382 124 294 c 1,25,-1
 124 294 l 1,13,14
EndSplineSet
EndChar
StartChar: U0C03
Encoding: 3075 3075 9
Width: 367
GlyphClass: 2
Flags: W
Fore
53 457 m 1,0,1
 53 511 53 511 91.5 549.5 c 128,-1,2
 130 588 130 588 184 588 c 256,3,4
 238 588 238 588 276 549.5 c 128,-1,5
 314 511 314 511 314 457 c 256,6,7
 314 403 314 403 276 364.5 c 128,-1,8
 238 326 238 326 184 326 c 256,9,10
 130 326 130 326 91.5 364.5 c 128,-1,11
 53 403 53 403 53 457 c 1,12,-1
 53 457 l 1,0,1
119 457 m 1,13,14
 119 430 119 430 138 411.5 c 128,-1,15
 157 393 157 393 184 393 c 256,16,17
 211 393 211 393 230.5 411.5 c 128,-1,18
 250 430 250 430 250 457 c 0,19,20
 250 485 250 485 230.5 504.5 c 128,-1,21
 211 524 211 524 184 524 c 256,22,23
 157 524 157 524 138 504.5 c 128,-1,24
 119 485 119 485 119 457 c 1,25,-1
 119 457 l 1,13,14
53 131 m 1,26,27
 53 185 53 185 91.5 223.5 c 128,-1,28
 130 262 130 262 184 262 c 256,29,30
 238 262 238 262 276 223.5 c 128,-1,31
 314 185 314 185 314 131 c 256,32,33
 314 77 314 77 276 38.5 c 128,-1,34
 238 0 238 0 184 0 c 256,35,36
 130 0 130 0 91.5 38.5 c 128,-1,37
 53 77 53 77 53 131 c 1,38,-1
 53 131 l 1,26,27
119 131 m 1,39,40
 119 104 119 104 138 84.5 c 128,-1,41
 157 65 157 65 184 65 c 256,42,43
 211 65 211 65 230.5 84.5 c 128,-1,44
 250 104 250 104 250 131 c 256,45,46
 250 158 250 158 230.5 176.5 c 128,-1,47
 211 195 211 195 184 195 c 256,48,49
 157 195 157 195 138 176.5 c 128,-1,50
 119 158 119 158 119 131 c 1,51,-1
 119 131 l 1,39,40
EndSplineSet
EndChar
StartChar: U0C05
Encoding: 3077 3077 10
Width: 847
GlyphClass: 2
Flags: W
Fore
177 457 m 1,0,1
 177 423 177 423 200.5 399.5 c 128,-1,2
 224 376 224 376 258 376 c 256,3,4
 292 376 292 376 316 399.5 c 128,-1,5
 340 423 340 423 340 457 c 256,6,7
 340 491 340 491 316 515 c 128,-1,8
 292 539 292 539 258 539 c 256,9,10
 224 539 224 539 200.5 515 c 128,-1,11
 177 491 177 491 177 457 c 1,12,-1
 177 457 l 1,0,1
46 343 m 1,13,14
 46 452 46 452 108 528.5 c 128,-1,15
 170 605 170 605 258 605 c 0,16,17
 319 605 319 605 362.5 561.5 c 128,-1,18
 406 518 406 518 406 457 c 0,19,20
 406 397 406 397 362.5 354 c 128,-1,21
 319 311 319 311 258 311 c 0,22,23
 216 311 216 311 183 333.5 c 128,-1,24
 150 356 150 356 141 391 c 1,25,-1
 136 391 l 1,26,27
 132 381 132 381 129.5 369 c 128,-1,28
 127 357 127 357 127 343 c 0,29,30
 127 225 127 225 207.5 153.5 c 128,-1,31
 288 82 288 82 422 82 c 0,32,33
 557 82 557 82 638 158 c 128,-1,34
 719 234 719 234 719 360 c 0,35,36
 719 434 719 434 694.5 486.5 c 128,-1,37
 670 539 670 539 636 539 c 0,38,39
 608 539 608 539 588.5 515 c 128,-1,40
 569 491 569 491 569 457 c 0,41,42
 569 427 569 427 591.5 399.5 c 128,-1,43
 614 372 614 372 651 355 c 1,44,-1
 651 294 l 1,45,-1
 389 294 l 1,46,-1
 389 360 l 1,47,-1
 503 360 l 1,48,-1
 546 354 l 1,49,-1
 551 360 l 1,50,51
 529 378 529 378 517 403.5 c 128,-1,52
 505 429 505 429 505 457 c 0,53,54
 505 518 505 518 543.5 561.5 c 128,-1,55
 582 605 582 605 636 605 c 0,56,57
 704 605 704 605 751.5 533 c 128,-1,58
 799 461 799 461 799 360 c 0,59,60
 799 197 799 197 696.5 98.5 c 128,-1,61
 594 0 594 0 423 0 c 256,62,63
 252 0 252 0 149 93.5 c 128,-1,64
 46 187 46 187 46 343 c 1,65,-1
 46 343 l 1,13,14
EndSplineSet
EndChar
StartChar: U0C06
Encoding: 3078 3078 11
Width: 909
GlyphClass: 2
Flags: W
Fore
175 457 m 1,0,1
 175 423 175 423 199 399.5 c 128,-1,2
 223 376 223 376 257 376 c 256,3,4
 291 376 291 376 314.5 399.5 c 128,-1,5
 338 423 338 423 338 457 c 256,6,7
 338 491 338 491 314.5 515 c 128,-1,8
 291 539 291 539 257 539 c 256,9,10
 223 539 223 539 199 515 c 128,-1,11
 175 491 175 491 175 457 c 1,12,-1
 175 457 l 1,0,1
634 457 m 1,13,14
 634 423 634 423 658 399.5 c 128,-1,15
 682 376 682 376 716 376 c 0,16,17
 746 376 746 376 767.5 399.5 c 128,-1,18
 789 423 789 423 789 457 c 256,19,20
 789 491 789 491 767.5 515 c 128,-1,21
 746 539 746 539 716 539 c 0,22,23
 682 539 682 539 658 515 c 128,-1,24
 634 491 634 491 634 457 c 1,25,-1
 634 457 l 1,13,14
44 343 m 1,26,27
 44 452 44 452 106.5 528.5 c 128,-1,28
 169 605 169 605 257 605 c 0,29,30
 318 605 318 605 361.5 561.5 c 128,-1,31
 405 518 405 518 405 457 c 0,32,33
 405 397 405 397 361.5 354 c 128,-1,34
 318 311 318 311 257 311 c 0,35,36
 216 311 216 311 182.5 333 c 128,-1,37
 149 355 149 355 136 391 c 1,38,-1
 131 391 l 1,39,40
 129 384 129 384 127.5 372 c 128,-1,41
 126 360 126 360 126 343 c 0,42,43
 126 225 126 225 215.5 153.5 c 128,-1,44
 305 82 305 82 454 82 c 0,45,46
 582 82 582 82 672.5 129.5 c 128,-1,47
 763 177 763 177 763 245 c 0,48,49
 763 262 763 262 749 279.5 c 128,-1,50
 735 297 735 297 711 311 c 1,51,-1
 388 311 l 1,52,-1
 388 376 l 1,53,-1
 552 376 l 1,54,-1
 600 371 l 1,55,-1
 602 377 l 1,56,57
 586 392 586 392 577 412.5 c 128,-1,58
 568 433 568 433 568 457 c 0,59,60
 568 518 568 518 611.5 561.5 c 128,-1,61
 655 605 655 605 716 605 c 0,62,63
 776 605 776 605 819 561.5 c 128,-1,64
 862 518 862 518 862 457 c 0,65,66
 862 412 862 412 841.5 377 c 128,-1,67
 821 342 821 342 787 330 c 1,68,-1
 787 325 l 1,69,70
 815 309 815 309 831 284.5 c 128,-1,71
 847 260 847 260 847 233 c 0,72,73
 847 136 847 136 732 68 c 128,-1,74
 617 0 617 0 454 0 c 0,75,76
 268 0 268 0 156 93.5 c 128,-1,77
 44 187 44 187 44 343 c 1,78,-1
 44 343 l 1,26,27
EndSplineSet
EndChar
StartChar: U0C07
Encoding: 3079 3079 12
Width: 779
GlyphClass: 2
Flags: W
Fore
231 148 m 1,0,1
 231 121 231 121 265 101.5 c 128,-1,2
 299 82 299 82 347 82 c 0,3,4
 420 82 420 82 476 96.5 c 128,-1,5
 532 111 532 111 564 138 c 1,6,-1
 564 143 l 1,7,8
 524 176 524 176 468 194 c 128,-1,9
 412 212 412 212 347 212 c 0,10,11
 299 212 299 212 265 193.5 c 128,-1,12
 231 175 231 175 231 148 c 1,13,-1
 231 148 l 1,0,1
19 393 m 1,14,15
 19 481 19 481 76.5 543 c 128,-1,16
 134 605 134 605 216 605 c 0,17,18
 260 605 260 605 296.5 586 c 128,-1,19
 333 567 333 567 352 534 c 1,20,-1
 360 534 l 1,21,22
 379 567 379 567 414.5 586 c 128,-1,23
 450 605 450 605 493 605 c 0,24,25
 588 605 588 605 655 523.5 c 128,-1,26
 722 442 722 442 722 326 c 0,27,28
 722 275 722 275 704 227 c 128,-1,29
 686 179 686 179 653 139 c 1,30,31
 687 98 687 98 705.5 36.5 c 128,-1,32
 724 -25 724 -25 724 -99 c 1,33,-1
 641 -99 l 1,34,35
 641 -37 641 -37 631 7.5 c 128,-1,36
 621 52 621 52 602 75 c 1,37,-1
 595 75 l 1,38,39
 552 39 552 39 488 19.5 c 128,-1,40
 424 0 424 0 347 0 c 0,41,42
 265 0 265 0 207.5 43.5 c 128,-1,43
 150 87 150 87 150 148 c 0,44,45
 150 208 150 208 207.5 251 c 128,-1,46
 265 294 265 294 347 294 c 0,47,48
 426 294 426 294 491 268.5 c 128,-1,49
 556 243 556 243 595 197 c 1,50,-1
 602 197 l 1,51,52
 621 230 621 230 631 263 c 128,-1,53
 641 296 641 296 641 326 c 0,54,55
 641 408 641 408 597.5 466 c 128,-1,56
 554 524 554 524 493 524 c 0,57,58
 452 524 452 524 422.5 485.5 c 128,-1,59
 393 447 393 447 393 393 c 1,60,-1
 316 393 l 1,61,62
 316 447 316 447 286.5 485.5 c 128,-1,63
 257 524 257 524 216 524 c 0,64,65
 168 524 168 524 133.5 485.5 c 128,-1,66
 99 447 99 447 99 393 c 1,67,-1
 19 393 l 1,68,-1
 19 393 l 1,14,15
EndSplineSet
EndChar
StartChar: U0C08
Encoding: 3080 3080 13
Width: 1336
GlyphClass: 2
Flags: W
Fore
1057 195 m 1,0,1
 1057 161 1057 161 1081 137.5 c 128,-1,2
 1105 114 1105 114 1139 114 c 256,3,4
 1173 114 1173 114 1197 137.5 c 128,-1,5
 1221 161 1221 161 1221 195 c 256,6,7
 1221 229 1221 229 1197 253 c 128,-1,8
 1173 277 1173 277 1139 277 c 256,9,10
 1105 277 1105 277 1081 253 c 128,-1,11
 1057 229 1057 229 1057 195 c 1,12,-1
 1057 195 l 1,0,1
10 343 m 1,13,-1
 177 343 l 1,14,15
 194 437 194 437 252 503 c 128,-1,16
 310 569 310 569 389 583 c 1,17,-1
 389 586 l 1,18,19
 355 598 355 598 326.5 640 c 128,-1,20
 298 682 298 682 282 743 c 1,21,-1
 348 768 l 1,22,23
 359 704 359 704 395.5 662 c 128,-1,24
 432 620 432 620 476 620 c 0,25,26
 494 620 494 620 515 628 c 128,-1,27
 536 636 536 636 558 651 c 2,28,-1
 811 828 l 1,29,-1
 845 770 l 1,30,-1
 573 578 l 1,31,-1
 573 573 l 1,32,33
 645 547 645 547 694.5 485.5 c 128,-1,34
 744 424 744 424 758 343 c 1,35,-1
 1139 343 l 2,36,37
 1173 343 1173 343 1197 362 c 128,-1,38
 1221 381 1221 381 1221 408 c 256,39,40
 1221 435 1221 435 1197 454.5 c 128,-1,41
 1173 474 1173 474 1139 474 c 0,42,43
 1104 474 1104 474 1081 442.5 c 128,-1,44
 1058 411 1058 411 1062 369 c 1,45,-1
 996 369 l 1,46,47
 984 436 984 436 1025 487.5 c 128,-1,48
 1066 539 1066 539 1130 539 c 256,49,50
 1194 539 1194 539 1239.5 500.5 c 128,-1,51
 1285 462 1285 462 1285 408 c 0,52,53
 1285 371 1285 371 1268.5 344.5 c 128,-1,54
 1252 318 1252 318 1226 313 c 1,55,-1
 1226 306 l 1,56,57
 1253 290 1253 290 1269 260.5 c 128,-1,58
 1285 231 1285 231 1285 195 c 0,59,60
 1285 135 1285 135 1242 92 c 128,-1,61
 1199 49 1199 49 1139 49 c 0,62,63
 1078 49 1078 49 1034.5 92 c 128,-1,64
 991 135 991 135 991 195 c 0,65,66
 991 217 991 217 999 238 c 128,-1,67
 1007 259 1007 259 1022 277 c 1,68,-1
 1017 282 l 1,69,-1
 960 277 l 1,70,-1
 760 277 l 1,71,72
 760 162 760 162 675 81 c 128,-1,73
 590 0 590 0 469 0 c 256,74,75
 348 0 348 0 262.5 81 c 128,-1,76
 177 162 177 162 177 277 c 1,77,-1
 10 277 l 1,78,-1
 10 343 l 1,79,-1
 10 343 l 1,13,-1
257 343 m 1,80,-1
 677 343 l 1,81,82
 677 418 677 418 616 471 c 128,-1,83
 555 524 555 524 469 524 c 0,84,85
 381 524 381 524 319 471 c 128,-1,86
 257 418 257 418 257 343 c 1,87,-1
 257 343 l 1,80,-1
257 277 m 1,88,89
 257 196 257 196 319 139 c 128,-1,90
 381 82 381 82 469 82 c 0,91,92
 555 82 555 82 616 139 c 128,-1,93
 677 196 677 196 677 277 c 1,94,-1
 257 277 l 1,95,-1
 257 277 l 1,88,89
EndSplineSet
EndChar
StartChar: U0C09
Encoding: 3081 3081 14
Width: 818
GlyphClass: 2
Flags: W
Fore
583 131 m 1,0,1
 583 104 583 104 602 84.5 c 128,-1,2
 621 65 621 65 648 65 c 256,3,4
 675 65 675 65 694.5 84.5 c 128,-1,5
 714 104 714 104 714 131 c 256,6,7
 714 158 714 158 694.5 176.5 c 128,-1,8
 675 195 675 195 648 195 c 256,9,10
 621 195 621 195 602 176.5 c 128,-1,11
 583 158 583 158 583 131 c 1,12,-1
 583 131 l 1,0,1
422 99 m 1,13,-1
 413 99 l 1,14,15
 386 53 386 53 344 26.5 c 128,-1,16
 302 0 302 0 255 0 c 0,17,18
 167 0 167 0 104.5 72 c 128,-1,19
 42 144 42 144 42 245 c 0,20,21
 42 384 42 384 140.5 486.5 c 128,-1,22
 239 589 239 589 384 602 c 1,23,-1
 371 751 l 1,24,-1
 371 818 l 1,25,-1
 467 818 l 1,26,-1
 467 751 l 1,27,-1
 454 598 l 1,28,29
 541 590 541 590 614 563.5 c 128,-1,30
 687 537 687 537 739 493 c 1,31,-1
 683 437 l 1,32,33
 633 479 633 479 565 501.5 c 128,-1,34
 497 524 497 524 420 524 c 0,35,36
 324 524 324 524 250.5 483.5 c 128,-1,37
 177 443 177 443 153 376 c 1,38,-1
 762 376 l 1,39,-1
 762 294 l 1,40,-1
 131 294 l 1,41,42
 128 288 128 288 126 275.5 c 128,-1,43
 124 263 124 263 124 245 c 0,44,45
 124 177 124 177 162.5 129.5 c 128,-1,46
 201 82 201 82 255 82 c 0,47,48
 311 82 311 82 350 129.5 c 128,-1,49
 389 177 389 177 389 245 c 1,50,-1
 449 245 l 1,51,52
 449 193 449 193 469 154.5 c 128,-1,53
 489 116 489 116 522 104 c 1,54,-1
 518 131 l 1,55,56
 518 185 518 185 556 223.5 c 128,-1,57
 594 262 594 262 648 262 c 256,58,59
 702 262 702 262 740.5 223.5 c 128,-1,60
 779 185 779 185 779 131 c 256,61,62
 779 77 779 77 734.5 38.5 c 128,-1,63
 690 0 690 0 627 0 c 0,64,65
 558 0 558 0 503.5 26.5 c 128,-1,66
 449 53 449 53 422 99 c 1,67,-1
 422 99 l 1,13,-1
EndSplineSet
EndChar
StartChar: U0C0A
Encoding: 3082 3082 15
Width: 1270
GlyphClass: 2
Flags: W
Fore
42 245 m 1,0,1
 42 357 42 357 109.5 450 c 128,-1,2
 177 543 177 543 287 583 c 1,3,-1
 272 751 l 1,4,-1
 272 818 l 1,5,-1
 371 818 l 1,6,-1
 371 751 l 1,7,-1
 355 598 l 1,8,-1
 418 605 l 2,9,10
 437 605 437 605 453 602.5 c 128,-1,11
 469 600 469 600 483 595 c 1,12,-1
 467 751 l 1,13,-1
 467 818 l 1,14,-1
 566 818 l 1,15,-1
 566 751 l 1,16,-1
 551 585 l 1,17,18
 599 576 599 576 646 553.5 c 128,-1,19
 693 531 693 531 736 495 c 1,20,-1
 685 435 l 1,21,22
 634 478 634 478 565.5 501 c 128,-1,23
 497 524 497 524 420 524 c 0,24,25
 324 524 324 524 250.5 483.5 c 128,-1,26
 177 443 177 443 153 376 c 1,27,-1
 1073 376 l 2,28,29
 1107 376 1107 376 1130.5 395.5 c 128,-1,30
 1154 415 1154 415 1154 442 c 256,31,32
 1154 469 1154 469 1130.5 488 c 128,-1,33
 1107 507 1107 507 1073 507 c 0,34,35
 1043 507 1043 507 1022 483 c 128,-1,36
 1001 459 1001 459 1001 425 c 1,37,-1
 928 425 l 1,38,39
 928 486 928 486 970.5 529.5 c 128,-1,40
 1013 573 1013 573 1073 573 c 0,41,42
 1134 573 1134 573 1177.5 534.5 c 128,-1,43
 1221 496 1221 496 1221 442 c 0,44,45
 1221 411 1221 411 1204 383 c 128,-1,46
 1187 355 1187 355 1158 338 c 1,47,-1
 1158 333 l 1,48,49
 1187 316 1187 316 1204 288 c 128,-1,50
 1221 260 1221 260 1221 229 c 0,51,52
 1221 175 1221 175 1180 137 c 128,-1,53
 1139 99 1139 99 1081 99 c 0,54,55
 1021 99 1021 99 978 137 c 128,-1,56
 935 175 935 175 935 229 c 0,57,58
 935 244 935 244 940 260.5 c 128,-1,59
 945 277 945 277 955 294 c 1,60,-1
 952 299 l 1,61,-1
 896 294 l 1,62,-1
 131 294 l 1,63,64
 128 280 128 280 126 267.5 c 128,-1,65
 124 255 124 255 124 245 c 0,66,67
 124 177 124 177 162.5 129.5 c 128,-1,68
 201 82 201 82 255 82 c 0,69,70
 311 82 311 82 350 129.5 c 128,-1,71
 389 177 389 177 389 245 c 1,72,-1
 449 245 l 1,73,74
 449 189 449 189 467.5 147.5 c 128,-1,75
 486 106 486 106 517 95 c 1,76,-1
 525 104 l 1,77,-1
 517 131 l 1,78,79
 517 185 517 185 555.5 223.5 c 128,-1,80
 594 262 594 262 648 262 c 256,81,82
 702 262 702 262 740.5 223.5 c 128,-1,83
 779 185 779 185 779 131 c 256,84,85
 779 77 779 77 732 38.5 c 128,-1,86
 685 0 685 0 619 0 c 0,87,88
 554 0 554 0 501.5 26.5 c 128,-1,89
 449 53 449 53 422 99 c 1,90,-1
 413 99 l 1,91,92
 386 53 386 53 344 26.5 c 128,-1,93
 302 0 302 0 255 0 c 0,94,95
 167 0 167 0 104.5 72 c 128,-1,96
 42 144 42 144 42 245 c 1,97,-1
 42 245 l 1,0,1
583 134 m 1,98,99
 583 109 583 109 602 91 c 128,-1,100
 621 73 621 73 648 73 c 256,101,102
 675 73 675 73 694.5 91 c 128,-1,103
 714 109 714 109 714 134 c 256,104,105
 714 159 714 159 694.5 177 c 128,-1,106
 675 195 675 195 648 195 c 256,107,108
 621 195 621 195 602 177 c 128,-1,109
 583 159 583 159 583 134 c 1,110,-1
 583 134 l 1,98,99
1008 229 m 1,111,112
 1008 202 1008 202 1029.5 182.5 c 128,-1,113
 1051 163 1051 163 1081 163 c 0,114,115
 1112 163 1112 163 1134 182.5 c 128,-1,116
 1156 202 1156 202 1156 229 c 256,117,118
 1156 256 1156 256 1134 275 c 128,-1,119
 1112 294 1112 294 1081 294 c 0,120,121
 1051 294 1051 294 1029.5 275 c 128,-1,122
 1008 256 1008 256 1008 229 c 1,123,-1
 1008 229 l 1,111,112
EndSplineSet
EndChar
StartChar: U0C0B
Encoding: 3083 3083 16
Width: 1749
GlyphClass: 2
Flags: W
Fore
552 82 m 1,0,1
 604 82 604 82 640.5 147.5 c 128,-1,2
 677 213 677 213 677 306 c 0,3,4
 677 400 677 400 628 466 c 128,-1,5
 579 532 579 532 510 532 c 1,6,-1
 535 612 l 1,7,8
 627 612 627 612 692.5 522.5 c 128,-1,9
 758 433 758 433 758 306 c 1,10,11
 775 209 775 209 836 145.5 c 128,-1,12
 897 82 897 82 974 82 c 0,13,14
 1045 82 1045 82 1095.5 144.5 c 128,-1,15
 1146 207 1146 207 1146 296 c 0,16,17
 1146 393 1146 393 1085 461 c 128,-1,18
 1024 529 1024 529 937 529 c 1,19,-1
 955 610 l 1,20,21
 1068 610 1068 610 1147.5 517.5 c 128,-1,22
 1227 425 1227 425 1227 294 c 1,23,24
 1260 199 1260 199 1321.5 140.5 c 128,-1,25
 1383 82 1383 82 1450 82 c 0,26,27
 1518 82 1518 82 1565.5 144.5 c 128,-1,28
 1613 207 1613 207 1613 296 c 0,29,30
 1613 393 1613 393 1554.5 461 c 128,-1,31
 1496 529 1496 529 1413 529 c 1,32,-1
 1431 610 l 1,33,34
 1544 610 1544 610 1623.5 517.5 c 128,-1,35
 1703 425 1703 425 1703 294 c 0,36,37
 1703 172 1703 172 1626.5 86 c 128,-1,38
 1550 0 1550 0 1442 0 c 0,39,40
 1359 0 1359 0 1293 47 c 128,-1,41
 1227 94 1227 94 1204 170 c 1,42,43
 1173 93 1173 93 1108 46.5 c 128,-1,44
 1043 0 1043 0 966 0 c 0,45,46
 887 0 887 0 823 43.5 c 128,-1,47
 759 87 759 87 733 158 c 1,48,49
 706 87 706 87 656 43.5 c 128,-1,50
 606 0 606 0 552 0 c 0,51,52
 500 0 500 0 457.5 29 c 128,-1,53
 415 58 415 58 398 105 c 1,54,-1
 391 104 l 1,55,56
 363 56 363 56 321.5 28 c 128,-1,57
 280 0 280 0 235 0 c 0,58,59
 160 0 160 0 107 52.5 c 128,-1,60
 54 105 54 105 54 180 c 0,61,62
 54 233 54 233 93.5 280 c 128,-1,63
 133 327 133 327 197 350 c 0,64,65
 251 370 251 370 283.5 399 c 128,-1,66
 316 428 316 428 316 457 c 0,67,68
 316 488 316 488 289.5 510 c 128,-1,69
 263 532 263 532 226 532 c 256,70,71
 189 532 189 532 162.5 510 c 128,-1,72
 136 488 136 488 136 457 c 0,73,74
 136 442 136 442 143 425.5 c 128,-1,75
 150 409 150 409 163 393 c 1,76,-1
 93 367 l 1,77,78
 74 386 74 386 64 409.5 c 128,-1,79
 54 433 54 433 54 457 c 0,80,81
 54 518 54 518 105.5 561.5 c 128,-1,82
 157 605 157 605 229 605 c 0,83,84
 299 605 299 605 348.5 561.5 c 128,-1,85
 398 518 398 518 398 457 c 0,86,87
 398 408 398 408 359 363.5 c 128,-1,88
 320 319 320 319 257 296 c 0,89,90
 203 276 203 276 169.5 244 c 128,-1,91
 136 212 136 212 136 180 c 0,92,93
 136 139 136 139 165 110.5 c 128,-1,94
 194 82 194 82 235 82 c 0,95,96
 291 82 291 82 330 129.5 c 128,-1,97
 369 177 369 177 369 245 c 1,98,-1
 428 245 l 1,99,100
 428 177 428 177 464.5 129.5 c 128,-1,101
 501 82 501 82 552 82 c 1,102,-1
 552 82 l 1,0,1
EndSplineSet
EndChar
StartChar: U0C0C
Encoding: 3084 3084 17
Width: 994
GlyphClass: 2
Flags: W
Fore
29 415 m 1,0,1
 29 490 29 490 81.5 542.5 c 128,-1,2
 134 595 134 595 209 595 c 0,3,4
 259 595 259 595 301.5 571.5 c 128,-1,5
 344 548 344 548 367 508 c 1,6,-1
 374 507 l 1,7,8
 398 548 398 548 441 571.5 c 128,-1,9
 484 595 484 595 535 595 c 0,10,11
 610 595 610 595 663 542.5 c 128,-1,12
 716 490 716 490 716 415 c 0,13,14
 716 349 716 349 676.5 287 c 128,-1,15
 637 225 637 225 568 182 c 0,16,17
 515 149 515 149 484.5 105.5 c 128,-1,18
 454 62 454 62 454 19 c 0,19,20
 454 -37 454 -37 500.5 -76.5 c 128,-1,21
 547 -116 547 -116 612 -116 c 0,22,23
 713 -116 713 -116 784 -16.5 c 128,-1,24
 855 83 855 83 855 223 c 0,25,26
 855 326 855 326 825 417 c 128,-1,27
 795 508 795 508 738 576 c 1,28,-1
 831 576 l 1,29,30
 882 498 882 498 908.5 407 c 128,-1,31
 935 316 935 316 935 221 c 0,32,33
 935 48 935 48 840 -74.5 c 128,-1,34
 745 -197 745 -197 610 -197 c 0,35,36
 511 -197 511 -197 441.5 -131.5 c 128,-1,37
 372 -66 372 -66 372 27 c 0,38,39
 372 81 372 81 411.5 137 c 128,-1,40
 451 193 451 193 520 238 c 0,41,42
 573 273 573 273 603.5 320 c 128,-1,43
 634 367 634 367 634 415 c 0,44,45
 634 456 634 456 605 484.5 c 128,-1,46
 576 513 576 513 535 513 c 0,47,48
 479 513 479 513 440 465.5 c 128,-1,49
 401 418 401 418 401 350 c 1,50,-1
 342 350 l 1,51,52
 342 418 342 418 303 465.5 c 128,-1,53
 264 513 264 513 209 513 c 0,54,55
 168 513 168 513 139 484.5 c 128,-1,56
 110 456 110 456 110 415 c 0,57,58
 110 389 110 389 116.5 364.5 c 128,-1,59
 123 340 123 340 136 318 c 1,60,-1
 51 318 l 1,61,62
 40 337 40 337 34.5 361.5 c 128,-1,63
 29 386 29 386 29 415 c 1,64,-1
 29 415 l 1,0,1
EndSplineSet
EndChar
StartChar: U0C0E
Encoding: 3086 3086 18
Width: 738
GlyphClass: 2
Flags: W
Fore
95 148 m 1,0,1
 95 114 95 114 119 89.5 c 128,-1,2
 143 65 143 65 177 65 c 256,3,4
 211 65 211 65 234.5 89.5 c 128,-1,5
 258 114 258 114 258 148 c 256,6,7
 258 182 258 182 234.5 205.5 c 128,-1,8
 211 229 211 229 177 229 c 256,9,10
 143 229 143 229 119 205.5 c 128,-1,11
 95 182 95 182 95 148 c 1,12,-1
 95 148 l 1,0,1
29 148 m 1,13,14
 29 208 29 208 72.5 251 c 128,-1,15
 116 294 116 294 177 294 c 0,16,17
 222 294 222 294 260 269.5 c 128,-1,18
 298 245 298 245 316 204 c 0,19,20
 347 148 347 148 384 115 c 128,-1,21
 421 82 421 82 454 82 c 0,22,23
 515 82 515 82 558.5 163.5 c 128,-1,24
 602 245 602 245 602 360 c 0,25,26
 602 522 602 522 500.5 636 c 128,-1,27
 399 750 399 750 255 750 c 1,28,-1
 272 830 l 1,29,30
 442 830 442 830 562.5 692.5 c 128,-1,31
 683 555 683 555 683 360 c 0,32,33
 683 211 683 211 616 105.5 c 128,-1,34
 549 0 549 0 454 0 c 0,35,36
 417 0 417 0 380.5 26 c 128,-1,37
 344 52 344 52 318 97 c 1,38,-1
 313 97 l 1,39,40
 306 55 306 55 267.5 27.5 c 128,-1,41
 229 0 229 0 177 0 c 0,42,43
 116 0 116 0 72.5 43.5 c 128,-1,44
 29 87 29 87 29 148 c 1,45,-1
 29 148 l 1,13,14
EndSplineSet
EndChar
StartChar: U0C0F
Encoding: 3087 3087 19
Width: 738
GlyphClass: 2
Flags: W
Fore
95 148 m 1,0,1
 95 114 95 114 119 89.5 c 128,-1,2
 143 65 143 65 177 65 c 256,3,4
 211 65 211 65 234.5 89.5 c 128,-1,5
 258 114 258 114 258 148 c 256,6,7
 258 182 258 182 234.5 205.5 c 128,-1,8
 211 229 211 229 177 229 c 256,9,10
 143 229 143 229 119 205.5 c 128,-1,11
 95 182 95 182 95 148 c 1,12,-1
 95 148 l 1,0,1
29 148 m 1,13,14
 29 208 29 208 72.5 251 c 128,-1,15
 116 294 116 294 177 294 c 0,16,17
 223 294 223 294 263.5 270 c 128,-1,18
 304 246 304 246 328 204 c 0,19,20
 361 147 361 147 394.5 114.5 c 128,-1,21
 428 82 428 82 454 82 c 0,22,23
 515 82 515 82 558.5 163.5 c 128,-1,24
 602 245 602 245 602 360 c 0,25,26
 602 522 602 522 500.5 636 c 128,-1,27
 399 750 399 750 255 750 c 1,28,-1
 280 830 l 1,29,30
 447 830 447 830 565 692.5 c 128,-1,31
 683 555 683 555 683 360 c 0,32,33
 683 211 683 211 616 105.5 c 128,-1,34
 549 0 549 0 454 0 c 0,35,36
 410 0 410 0 372.5 27 c 128,-1,37
 335 54 335 54 316 99 c 1,38,-1
 309 99 l 1,39,40
 297 55 297 55 260.5 27.5 c 128,-1,41
 224 0 224 0 177 0 c 0,42,43
 116 0 116 0 72.5 43.5 c 128,-1,44
 29 87 29 87 29 148 c 1,45,-1
 29 148 l 1,13,14
153 602 m 1,46,47
 85 720 85 720 94 853 c 128,-1,48
 103 986 103 986 187 1086 c 1,49,-1
 263 1035 l 1,50,51
 192 950 192 950 183 838 c 128,-1,52
 174 726 174 726 231 627 c 1,53,-1
 153 602 l 1,54,-1
 153 602 l 1,46,47
EndSplineSet
EndChar
StartChar: U0C10
Encoding: 3088 3088 20
Width: 845
GlyphClass: 2
Flags: W
Fore
127 151 m 1,0,1
 127 115 127 115 151.5 90 c 128,-1,2
 176 65 176 65 211 65 c 0,3,4
 249 65 249 65 276 89.5 c 128,-1,5
 303 114 303 114 303 148 c 0,6,7
 303 186 303 186 277 213 c 128,-1,8
 251 240 251 240 214 240 c 0,9,10
 178 240 178 240 152.5 214 c 128,-1,11
 127 188 127 188 127 151 c 1,12,-1
 127 151 l 1,0,1
44 148 m 1,13,14
 44 217 44 217 93 265.5 c 128,-1,15
 142 314 142 314 211 314 c 0,16,17
 269 314 269 314 314.5 281.5 c 128,-1,18
 360 249 360 249 376 197 c 0,19,20
 392 146 392 146 440.5 114 c 128,-1,21
 489 82 489 82 551 82 c 0,22,23
 619 82 619 82 667.5 144 c 128,-1,24
 716 206 716 206 716 294 c 0,25,26
 716 389 716 389 672.5 456.5 c 128,-1,27
 629 524 629 524 568 524 c 0,28,29
 515 524 515 524 477 485.5 c 128,-1,30
 439 447 439 447 439 393 c 1,31,-1
 367 393 l 1,32,33
 367 447 367 447 332.5 485.5 c 128,-1,34
 298 524 298 524 250 524 c 0,35,36
 204 524 204 524 171.5 485.5 c 128,-1,37
 139 447 139 447 139 393 c 1,38,-1
 58 393 l 1,39,40
 58 481 58 481 114 543 c 128,-1,41
 170 605 170 605 250 605 c 0,42,43
 298 605 298 605 338.5 583.5 c 128,-1,44
 379 562 379 562 401 524 c 1,45,-1
 406 522 l 1,46,47
 428 561 428 561 471.5 583 c 128,-1,48
 515 605 515 605 568 605 c 0,49,50
 663 605 663 605 730 514 c 128,-1,51
 797 423 797 423 797 294 c 0,52,53
 797 167 797 167 725 77.5 c 128,-1,54
 653 -12 653 -12 551 -12 c 0,55,56
 494 -12 494 -12 446 15 c 128,-1,57
 398 42 398 42 371 88 c 1,58,-1
 362 88 l 1,59,60
 347 43 347 43 305 15.5 c 128,-1,61
 263 -12 263 -12 211 -12 c 0,62,63
 142 -12 142 -12 93 35 c 128,-1,64
 44 82 44 82 44 148 c 1,65,-1
 44 148 l 1,13,14
EndSplineSet
EndChar
StartChar: U0C12
Encoding: 3090 3090 21
Width: 768
GlyphClass: 2
Flags: W
Fore
53 180 m 1,0,1
 53 232 53 232 92 278.5 c 128,-1,2
 131 325 131 325 195 348 c 0,3,4
 249 368 249 368 281.5 397.5 c 128,-1,5
 314 427 314 427 314 457 c 0,6,7
 314 485 314 485 287.5 504.5 c 128,-1,8
 261 524 261 524 224 524 c 256,9,10
 187 524 187 524 160.5 504.5 c 128,-1,11
 134 485 134 485 134 457 c 0,12,13
 134 441 134 441 138 428.5 c 128,-1,14
 142 416 142 416 150 410 c 1,15,-1
 93 376 l 1,16,17
 75 389 75 389 64.5 411 c 128,-1,18
 54 433 54 433 54 459 c 0,19,20
 54 519 54 519 104.5 562 c 128,-1,21
 155 605 155 605 226 605 c 0,22,23
 296 605 296 605 346 564.5 c 128,-1,24
 396 524 396 524 396 466 c 0,25,26
 396 413 396 413 357 366 c 128,-1,27
 318 319 318 319 255 296 c 0,28,29
 201 276 201 276 167.5 244 c 128,-1,30
 134 212 134 212 134 180 c 0,31,32
 134 139 134 139 163 110.5 c 128,-1,33
 192 82 192 82 233 82 c 0,34,35
 289 82 289 82 328 129.5 c 128,-1,36
 367 177 367 177 367 245 c 1,37,-1
 427 245 l 1,38,39
 427 177 427 177 465.5 129.5 c 128,-1,40
 504 82 504 82 559 82 c 0,41,42
 600 82 600 82 629 110.5 c 128,-1,43
 658 139 658 139 658 180 c 0,44,45
 658 206 658 206 651.5 230.5 c 128,-1,46
 645 255 645 255 632 277 c 1,47,-1
 717 277 l 1,48,49
 728 258 728 258 733.5 233.5 c 128,-1,50
 739 209 739 209 739 180 c 0,51,52
 739 105 739 105 686.5 52.5 c 128,-1,53
 634 0 634 0 559 0 c 0,54,55
 506 0 506 0 463 22 c 128,-1,56
 420 44 420 44 398 82 c 1,57,-1
 391 82 l 1,58,59
 369 44 369 44 326.5 22 c 128,-1,60
 284 0 284 0 233 0 c 0,61,62
 158 0 158 0 105.5 52.5 c 128,-1,63
 53 105 53 105 53 180 c 1,64,-1
 53 180 l 1,0,1
EndSplineSet
EndChar
StartChar: U0C13
Encoding: 3091 3091 22
Width: 770
GlyphClass: 2
Flags: W
Fore
54 180 m 1,0,1
 54 235 54 235 93.5 283 c 128,-1,2
 133 331 133 331 197 354 c 0,3,4
 251 374 251 374 283.5 402 c 128,-1,5
 316 430 316 430 316 457 c 0,6,7
 316 485 316 485 289.5 504.5 c 128,-1,8
 263 524 263 524 226 524 c 256,9,10
 189 524 189 524 162.5 504.5 c 128,-1,11
 136 485 136 485 136 457 c 0,12,13
 136 441 136 441 140 428.5 c 128,-1,14
 144 416 144 416 151 410 c 1,15,-1
 93 376 l 1,16,17
 75 389 75 389 64.5 410.5 c 128,-1,18
 54 432 54 432 54 457 c 0,19,20
 54 506 54 506 89 544.5 c 128,-1,21
 124 583 124 583 178 592 c 1,22,-1
 180 597 l 1,23,24
 152 621 152 621 136.5 653 c 128,-1,25
 121 685 121 685 121 719 c 0,26,27
 121 773 121 773 168.5 811.5 c 128,-1,28
 216 850 216 850 284 850 c 0,29,30
 333 850 333 850 374.5 818 c 128,-1,31
 416 786 416 786 435 733 c 1,32,-1
 364 702 l 1,33,34
 346 733 346 733 324.5 750.5 c 128,-1,35
 303 768 303 768 284 768 c 0,36,37
 250 768 250 768 226 748.5 c 128,-1,38
 202 729 202 729 202 702 c 0,39,40
 202 679 202 679 217.5 653 c 128,-1,41
 233 627 233 627 262 603 c 1,42,43
 318 603 318 603 358 560 c 128,-1,44
 398 517 398 517 398 457 c 0,45,46
 398 408 398 408 359 363.5 c 128,-1,47
 320 319 320 319 257 296 c 0,48,49
 203 276 203 276 169.5 244 c 128,-1,50
 136 212 136 212 136 180 c 0,51,52
 136 139 136 139 165 110.5 c 128,-1,53
 194 82 194 82 235 82 c 0,54,55
 291 82 291 82 330 129.5 c 128,-1,56
 369 177 369 177 369 245 c 1,57,-1
 428 245 l 1,58,59
 428 177 428 177 467 129.5 c 128,-1,60
 506 82 506 82 561 82 c 0,61,62
 602 82 602 82 631 110.5 c 128,-1,63
 660 139 660 139 660 180 c 0,64,65
 660 206 660 206 653.5 230.5 c 128,-1,66
 647 255 647 255 634 277 c 1,67,-1
 719 277 l 1,68,69
 730 258 730 258 735.5 233.5 c 128,-1,70
 741 209 741 209 741 180 c 0,71,72
 741 105 741 105 688.5 52.5 c 128,-1,73
 636 0 636 0 561 0 c 0,74,75
 502 0 502 0 458 25 c 128,-1,76
 414 50 414 50 403 90 c 1,77,-1
 391 87 l 1,78,79
 378 48 378 48 335 24 c 128,-1,80
 292 0 292 0 235 0 c 0,81,82
 160 0 160 0 107 52.5 c 128,-1,83
 54 105 54 105 54 180 c 1,84,-1
 54 180 l 1,0,1
EndSplineSet
EndChar
StartChar: U0C14
Encoding: 3092 3092 23
Width: 918
GlyphClass: 2
Flags: W
Fore
51 180 m 1,0,1
 51 229 51 229 91 273.5 c 128,-1,2
 131 318 131 318 197 342 c 0,3,4
 249 361 249 361 281 392.5 c 128,-1,5
 313 424 313 424 313 457 c 0,6,7
 313 485 313 485 289 504.5 c 128,-1,8
 265 524 265 524 231 524 c 0,9,10
 191 524 191 524 162.5 504.5 c 128,-1,11
 134 485 134 485 134 457 c 0,12,13
 134 448 134 448 142 433.5 c 128,-1,14
 150 419 150 419 165 401 c 1,15,-1
 107 359 l 1,16,17
 84 382 84 382 71.5 407.5 c 128,-1,18
 59 433 59 433 59 457 c 0,19,20
 59 493 59 493 79.5 519.5 c 128,-1,21
 100 546 100 546 131 552 c 1,22,-1
 131 559 l 1,23,-1
 102 556 l 1,24,-1
 76 556 l 1,25,-1
 76 637 l 1,26,-1
 280 637 l 2,27,28
 301 637 301 637 315.5 654 c 128,-1,29
 330 671 330 671 330 695 c 0,30,31
 330 718 330 718 315 734.5 c 128,-1,32
 300 751 300 751 279 751 c 2,33,-1
 -31 751 l 1,34,-1
 -31 833 l 1,35,-1
 738 833 l 2,36,37
 813 833 813 833 865.5 785.5 c 128,-1,38
 918 738 918 738 918 670 c 0,39,40
 918 610 918 610 875 567 c 128,-1,41
 832 524 832 524 772 524 c 0,42,43
 711 524 711 524 667.5 567 c 128,-1,44
 624 610 624 610 624 670 c 0,45,46
 624 691 624 691 632 712 c 128,-1,47
 640 733 640 733 656 751 c 1,48,-1
 654 758 l 1,49,-1
 603 751 l 1,50,-1
 394 751 l 1,51,52
 402 741 402 741 406.5 726.5 c 128,-1,53
 411 712 411 712 411 695 c 0,54,55
 411 650 411 650 380.5 615.5 c 128,-1,56
 350 581 350 581 304 573 c 1,57,-1
 304 568 l 1,58,59
 343 561 343 561 368.5 531 c 128,-1,60
 394 501 394 501 394 461 c 0,61,62
 394 410 394 410 355 364.5 c 128,-1,63
 316 319 316 319 253 296 c 0,64,65
 199 276 199 276 166.5 244.5 c 128,-1,66
 134 213 134 213 134 180 c 0,67,68
 134 139 134 139 162.5 110.5 c 128,-1,69
 191 82 191 82 231 82 c 0,70,71
 287 82 287 82 326 129.5 c 128,-1,72
 365 177 365 177 365 245 c 1,73,-1
 425 245 l 1,74,75
 425 177 425 177 464 129.5 c 128,-1,76
 503 82 503 82 559 82 c 0,77,78
 599 82 599 82 627.5 110.5 c 128,-1,79
 656 139 656 139 656 180 c 0,80,81
 656 206 656 206 649.5 231 c 128,-1,82
 643 256 643 256 631 277 c 1,83,-1
 716 277 l 1,84,85
 727 258 727 258 732.5 233.5 c 128,-1,86
 738 209 738 209 738 180 c 0,87,88
 738 105 738 105 685.5 52.5 c 128,-1,89
 633 0 633 0 559 0 c 0,90,91
 508 0 508 0 464.5 23.5 c 128,-1,92
 421 47 421 47 398 87 c 1,93,-1
 389 87 l 1,94,95
 366 47 366 47 323.5 23.5 c 128,-1,96
 281 0 281 0 231 0 c 0,97,98
 156 0 156 0 103.5 52.5 c 128,-1,99
 51 105 51 105 51 180 c 1,100,-1
 51 180 l 1,0,1
688 670 m 1,101,102
 688 636 688 636 712.5 612 c 128,-1,103
 737 588 737 588 772 588 c 0,104,105
 806 588 806 588 829.5 612 c 128,-1,106
 853 636 853 636 853 670 c 256,107,108
 853 704 853 704 829.5 727.5 c 128,-1,109
 806 751 806 751 772 751 c 0,110,111
 737 751 737 751 712.5 727.5 c 128,-1,112
 688 704 688 704 688 670 c 1,113,-1
 688 670 l 1,101,102
EndSplineSet
EndChar
StartChar: U0C15
Encoding: 3093 3093 24
Width: 640
GlyphClass: 2
Flags: W
AnchorPoint: "Anchor-0" 350 -17 basechar 0
Fore
148 442 m 1,0,1
 148 405 148 405 195.5 378.5 c 128,-1,2
 243 352 243 352 311 352 c 0,3,4
 413 352 413 352 485.5 301.5 c 128,-1,5
 558 251 558 251 558 180 c 0,6,7
 558 105 558 105 483.5 52.5 c 128,-1,8
 409 0 409 0 303 0 c 0,9,10
 219 0 219 0 144.5 34 c 128,-1,11
 70 68 70 68 19 129 c 1,12,-1
 75 185 l 1,13,14
 116 136 116 136 176 109 c 128,-1,15
 236 82 236 82 303 82 c 0,16,17
 375 82 375 82 425.5 110.5 c 128,-1,18
 476 139 476 139 476 180 c 0,19,20
 476 224 476 224 420.5 255 c 128,-1,21
 365 286 365 286 287 286 c 0,22,23
 195 286 195 286 130.5 331.5 c 128,-1,24
 66 377 66 377 66 442 c 0,25,26
 66 483 66 483 96.5 520.5 c 128,-1,27
 127 558 127 558 178 580 c 1,28,29
 147 613 147 613 130.5 659.5 c 128,-1,30
 114 706 114 706 114 760 c 1,31,-1
 178 760 l 1,32,33
 178 695 178 695 213.5 649 c 128,-1,34
 249 603 249 603 299 603 c 0,35,36
 318 603 318 603 338 613 c 128,-1,37
 358 623 358 623 376 641 c 2,38,-1
 581 838 l 1,39,-1
 624 796 l 1,40,-1
 416 586 l 1,41,42
 450 576 450 576 479 560.5 c 128,-1,43
 508 545 508 545 532 525 c 1,44,-1
 493 452 l 1,45,46
 451 487 451 487 400.5 505.5 c 128,-1,47
 350 524 350 524 296 524 c 0,48,49
 235 524 235 524 191.5 500 c 128,-1,50
 148 476 148 476 148 442 c 1,51,-1
 148 442 l 1,0,1
EndSplineSet
MultipleSubs: 0 65534 'L006' U0C15_U0C46.abvs U0C56 U0C15_U0C46.abvs U0C56
EndChar
StartChar: U0C16
Encoding: 3094 3094 25
Width: 841
GlyphClass: 2
Flags: W
Fore
155 457 m 1,0,1
 155 423 155 423 178.5 399.5 c 128,-1,2
 202 376 202 376 236 376 c 256,3,4
 270 376 270 376 294 399.5 c 128,-1,5
 318 423 318 423 318 457 c 256,6,7
 318 491 318 491 294 515 c 128,-1,8
 270 539 270 539 236 539 c 256,9,10
 202 539 202 539 178.5 515 c 128,-1,11
 155 491 155 491 155 457 c 1,12,-1
 155 457 l 1,0,1
110 122 m 1,13,14
 110 105 110 105 129.5 93.5 c 128,-1,15
 149 82 149 82 177 82 c 0,16,17
 233 82 233 82 272 89.5 c 128,-1,18
 311 97 311 97 328 112 c 1,19,-1
 328 121 l 1,20,21
 297 142 297 142 260.5 153.5 c 128,-1,22
 224 165 224 165 185 165 c 0,23,24
 154 165 154 165 132 152.5 c 128,-1,25
 110 140 110 140 110 122 c 1,26,-1
 110 122 l 1,13,14
563 0 m 1,27,28
 529 0 529 0 496 12.5 c 128,-1,29
 463 25 463 25 435 49 c 1,30,-1
 428 46 l 1,31,-1
 449 -82 l 1,32,-1
 449 -148 l 1,33,-1
 350 -148 l 1,34,-1
 350 -82 l 1,35,-1
 372 46 l 1,36,-1
 365 49 l 1,37,38
 337 25 337 25 288.5 12.5 c 128,-1,39
 240 0 240 0 177 0 c 0,40,41
 116 0 116 0 72.5 35.5 c 128,-1,42
 29 71 29 71 29 122 c 256,43,44
 29 173 29 173 74.5 209.5 c 128,-1,45
 120 246 120 246 185 246 c 0,46,47
 248 246 248 246 298.5 226.5 c 128,-1,48
 349 207 349 207 379 172 c 1,49,-1
 386 172 l 1,50,51
 401 189 401 189 408.5 220.5 c 128,-1,52
 416 252 416 252 416 294 c 0,53,54
 416 341 416 341 409 375 c 128,-1,55
 402 409 402 409 388 425 c 1,56,-1
 379 423 l 1,57,58
 366 373 366 373 326 342 c 128,-1,59
 286 311 286 311 236 311 c 0,60,61
 175 311 175 311 131.5 354 c 128,-1,62
 88 397 88 397 88 457 c 0,63,64
 88 518 88 518 131.5 561.5 c 128,-1,65
 175 605 175 605 236 605 c 0,66,67
 345 605 345 605 421.5 514 c 128,-1,68
 498 423 498 423 498 294 c 0,69,70
 498 251 498 251 483 206.5 c 128,-1,71
 468 162 468 162 439 121 c 1,72,-1
 439 114 l 1,73,74
 466 98 466 98 497.5 90 c 128,-1,75
 529 82 529 82 563 82 c 0,76,77
 624 82 624 82 667.5 144 c 128,-1,78
 711 206 711 206 711 294 c 0,79,80
 711 379 711 379 675.5 444 c 128,-1,81
 640 509 640 509 581 530 c 1,82,-1
 629 603 l 1,83,84
 702 576 702 576 747 491 c 128,-1,85
 792 406 792 406 792 294 c 0,86,87
 792 172 792 172 725 86 c 128,-1,88
 658 0 658 0 563 0 c 1,89,-1
 563 0 l 1,27,28
EndSplineSet
MultipleSubs: 0 65534 'L006' U0C16_U0C46.abvs U0C56 U0C16_U0C46.abvs U0C56
EndChar
StartChar: U0C17
Encoding: 3095 3095 26
Width: 649
GlyphClass: 2
Flags: W
Fore
46 0 m 1,0,1
 46 204 46 204 94.5 356 c 128,-1,2
 143 508 143 508 231 576 c 1,3,4
 189 607 189 607 166 660 c 128,-1,5
 143 713 143 713 143 777 c 1,6,-1
 207 777 l 1,7,8
 207 709 207 709 241.5 661.5 c 128,-1,9
 276 614 276 614 325 614 c 0,10,11
 342 614 342 614 363 625.5 c 128,-1,12
 384 637 384 637 405 658 c 2,13,-1
 610 855 l 1,14,-1
 653 813 l 1,15,-1
 418 578 l 1,16,17
 506 510 506 510 554.5 357.5 c 128,-1,18
 603 205 603 205 603 0 c 1,19,-1
 522 0 l 1,20,21
 522 217 522 217 464.5 370.5 c 128,-1,22
 407 524 407 524 325 524 c 256,23,24
 243 524 243 524 185 370.5 c 128,-1,25
 127 217 127 217 127 0 c 1,26,-1
 46 0 l 1,27,-1
 46 0 l 1,0,1
EndSplineSet
MultipleSubs: 0 65534 'L006' U0C17_U0C46.abvs U0C56 U0C17_U0C46.abvs U0C56
EndChar
StartChar: U0C18
Encoding: 3096 3096 27
Width: 1120
GlyphClass: 2
Flags: W
Fore
95 148 m 1,0,1
 95 114 95 114 119 89.5 c 128,-1,2
 143 65 143 65 177 65 c 256,3,4
 211 65 211 65 234.5 89.5 c 128,-1,5
 258 114 258 114 258 148 c 256,6,7
 258 182 258 182 234.5 205.5 c 128,-1,8
 211 229 211 229 177 229 c 256,9,10
 143 229 143 229 119 205.5 c 128,-1,11
 95 182 95 182 95 148 c 1,12,-1
 95 148 l 1,0,1
831 82 m 1,13,14
 899 82 899 82 946.5 134.5 c 128,-1,15
 994 187 994 187 994 262 c 0,16,17
 994 362 994 362 932.5 437.5 c 128,-1,18
 871 513 871 513 777 530 c 1,19,-1
 804 610 l 1,20,21
 922 589 922 589 999 490.5 c 128,-1,22
 1076 392 1076 392 1076 262 c 0,23,24
 1076 153 1076 153 1004 76.5 c 128,-1,25
 932 0 932 0 831 0 c 0,26,27
 773 0 773 0 722 27 c 128,-1,28
 671 54 671 54 637 102 c 1,29,-1
 629 102 l 1,30,31
 607 55 607 55 559.5 27.5 c 128,-1,32
 512 0 512 0 454 0 c 0,33,34
 415 0 415 0 384 15.5 c 128,-1,35
 353 31 353 31 337 58 c 1,36,-1
 328 58 l 1,37,-1
 357 -131 l 1,38,-1
 357 -197 l 1,39,-1
 258 -197 l 1,40,-1
 258 -131 l 1,41,-1
 296 54 l 1,42,-1
 289 58 l 1,43,44
 268 31 268 31 238.5 15.5 c 128,-1,45
 209 0 209 0 177 0 c 0,46,47
 116 0 116 0 72.5 43.5 c 128,-1,48
 29 87 29 87 29 148 c 0,49,50
 29 208 29 208 72.5 251 c 128,-1,51
 116 294 116 294 177 294 c 0,52,53
 225 294 225 294 268 260.5 c 128,-1,54
 311 227 311 227 333 172 c 0,55,56
 349 131 349 131 382.5 106.5 c 128,-1,57
 416 82 416 82 454 82 c 0,58,59
 508 82 508 82 546.5 134.5 c 128,-1,60
 585 187 585 187 585 262 c 0,61,62
 585 348 585 348 525.5 422.5 c 128,-1,63
 466 497 466 497 369 532 c 1,64,-1
 396 603 l 1,65,66
 518 559 518 559 592 465 c 128,-1,67
 666 371 666 371 666 262 c 0,68,69
 666 235 666 235 664.5 217.5 c 128,-1,70
 663 200 663 200 660 192 c 1,71,72
 689 141 689 141 735 111.5 c 128,-1,73
 781 82 781 82 831 82 c 1,74,-1
 831 82 l 1,13,14
14 792 m 1,75,-1
 76 792 l 1,76,77
 76 731 76 731 105.5 687.5 c 128,-1,78
 135 644 135 644 177 644 c 0,79,80
 198 644 198 644 220.5 652 c 128,-1,81
 243 660 243 660 265 675 c 2,82,-1
 534 857 l 1,83,-1
 573 802 l 1,84,-1
 299 615 l 2,85,86
 268 594 268 594 237 582.5 c 128,-1,87
 206 571 206 571 177 571 c 0,88,89
 109 571 109 571 61.5 635.5 c 128,-1,90
 14 700 14 700 14 792 c 1,91,-1
 14 792 l 1,75,-1
EndSplineSet
MultipleSubs: 0 65534 'L006' U0C18_U0C46.abvs U0C56 U0C18_U0C46.abvs U0C56
EndChar
StartChar: U0C19
Encoding: 3097 3097 28
Width: 773
GlyphClass: 2
Flags: W
Fore
54 180 m 1,0,1
 54 236 54 236 96 285 c 128,-1,2
 138 334 138 334 206 359 c 0,3,4
 256 377 256 377 286 404 c 128,-1,5
 316 431 316 431 316 457 c 0,6,7
 316 485 316 485 289.5 504.5 c 128,-1,8
 263 524 263 524 226 524 c 256,9,10
 189 524 189 524 162.5 504.5 c 128,-1,11
 136 485 136 485 136 457 c 0,12,13
 136 447 136 447 143 435 c 128,-1,14
 150 423 150 423 163 410 c 1,15,-1
 95 376 l 1,16,17
 75 400 75 400 64.5 420.5 c 128,-1,18
 54 441 54 441 54 457 c 0,19,20
 54 518 54 518 105 561.5 c 128,-1,21
 156 605 156 605 228 605 c 0,22,23
 290 605 290 605 336 572.5 c 128,-1,24
 382 540 382 540 391 490 c 1,25,-1
 546 490 l 1,26,-1
 546 588 l 1,27,-1
 610 588 l 1,28,-1
 610 490 l 1,29,-1
 709 490 l 1,30,-1
 709 425 l 1,31,-1
 393 425 l 1,32,33
 386 386 386 386 349.5 351 c 128,-1,34
 313 316 313 316 257 296 c 0,35,36
 203 276 203 276 169.5 244 c 128,-1,37
 136 212 136 212 136 180 c 0,38,39
 136 139 136 139 165 110.5 c 128,-1,40
 194 82 194 82 235 82 c 0,41,42
 291 82 291 82 330 120 c 128,-1,43
 369 158 369 158 369 211 c 1,44,-1
 428 211 l 1,45,46
 428 158 428 158 467 120 c 128,-1,47
 506 82 506 82 561 82 c 0,48,49
 602 82 602 82 631 110.5 c 128,-1,50
 660 139 660 139 660 180 c 0,51,52
 660 190 660 190 654.5 209.5 c 128,-1,53
 649 229 649 229 637 262 c 1,54,-1
 719 262 l 1,55,56
 729 245 729 245 734 224 c 128,-1,57
 739 203 739 203 739 180 c 0,58,59
 739 105 739 105 687 52.5 c 128,-1,60
 635 0 635 0 561 0 c 0,61,62
 510 0 510 0 467 23 c 128,-1,63
 424 46 424 46 401 85 c 1,64,-1
 396 82 l 1,65,66
 374 44 374 44 331 22 c 128,-1,67
 288 0 288 0 235 0 c 0,68,69
 160 0 160 0 107 52.5 c 128,-1,70
 54 105 54 105 54 180 c 1,71,-1
 54 180 l 1,0,1
EndSplineSet
MultipleSubs: 0 65534 'L006' U0C19_U0C46.abvs U0C56 U0C19_U0C46.abvs U0C56
EndChar
StartChar: U0C1A
Encoding: 3098 3098 29
Width: 801
GlyphClass: 2
Flags: W
Fore
535 0 m 1,0,1
 495 0 495 0 462.5 20.5 c 128,-1,2
 430 41 430 41 418 75 c 1,3,-1
 411 73 l 1,4,5
 399 40 399 40 366 20 c 128,-1,6
 333 0 333 0 291 0 c 0,7,8
 223 0 223 0 175 47.5 c 128,-1,9
 127 95 127 95 127 163 c 0,10,11
 127 183 127 183 133.5 202 c 128,-1,12
 140 221 140 221 153 236 c 1,13,-1
 144 245 l 1,14,-1
 12 245 l 1,15,-1
 12 326 l 1,16,-1
 274 326 l 1,17,-1
 274 270 l 1,18,19
 245 259 245 259 227 230 c 128,-1,20
 209 201 209 201 209 163 c 0,21,22
 209 129 209 129 233 105.5 c 128,-1,23
 257 82 257 82 291 82 c 256,24,25
 325 82 325 82 348.5 105.5 c 128,-1,26
 372 129 372 129 372 163 c 2,27,-1
 372 212 l 1,28,-1
 454 212 l 1,29,-1
 454 163 l 2,30,31
 454 129 454 129 477.5 105.5 c 128,-1,32
 501 82 501 82 535 82 c 0,33,34
 593 82 593 82 634 142 c 128,-1,35
 675 202 675 202 675 287 c 0,36,37
 675 394 675 394 599 470 c 128,-1,38
 523 546 523 546 415 546 c 2,39,-1
 388 546 l 2,40,41
 313 546 313 546 259.5 599.5 c 128,-1,42
 206 653 206 653 206 728 c 1,43,-1
 270 728 l 1,44,45
 270 680 270 680 304.5 645 c 128,-1,46
 339 610 339 610 389 607 c 0,47,48
 405 607 405 607 425.5 618.5 c 128,-1,49
 446 630 446 630 467 651 c 2,50,-1
 673 848 l 1,51,-1
 716 806 l 1,52,-1
 501 603 l 1,53,54
 613 575 613 575 684.5 486.5 c 128,-1,55
 756 398 756 398 756 287 c 0,56,57
 756 168 756 168 691.5 84 c 128,-1,58
 627 0 627 0 535 0 c 1,59,-1
 535 0 l 1,0,1
EndSplineSet
MultipleSubs: 0 65534 'L006' U0C1A_U0C46.abvs U0C56 U0C1A_U0C46.abvs U0C56
EndChar
StartChar: U0C1B
Encoding: 3099 3099 30
Width: 802
GlyphClass: 2
Flags: W
Fore
535 0 m 1,0,1
 507 0 507 0 481 12 c 128,-1,2
 455 24 455 24 435 46 c 1,3,-1
 430 42 l 1,4,-1
 459 -158 l 1,5,-1
 459 -231 l 1,6,-1
 359 -231 l 1,7,-1
 359 -165 l 1,8,-1
 384 42 l 1,9,-1
 379 44 l 1,10,11
 362 23 362 23 339 11.5 c 128,-1,12
 316 0 316 0 291 0 c 0,13,14
 223 0 223 0 175 47.5 c 128,-1,15
 127 95 127 95 127 163 c 0,16,17
 127 184 127 184 134.5 204 c 128,-1,18
 142 224 142 224 156 241 c 1,19,-1
 153 248 l 1,20,-1
 117 245 l 1,21,-1
 12 245 l 1,22,-1
 12 326 l 1,23,-1
 274 326 l 1,24,-1
 274 270 l 1,25,26
 245 259 245 259 227 230 c 128,-1,27
 209 201 209 201 209 163 c 0,28,29
 209 129 209 129 233 105.5 c 128,-1,30
 257 82 257 82 291 82 c 256,31,32
 325 82 325 82 348.5 105.5 c 128,-1,33
 372 129 372 129 372 163 c 2,34,-1
 372 212 l 1,35,-1
 454 212 l 1,36,-1
 454 163 l 2,37,38
 454 129 454 129 480.5 105.5 c 128,-1,39
 507 82 507 82 544 82 c 0,40,41
 598 82 598 82 636.5 142 c 128,-1,42
 675 202 675 202 675 287 c 0,43,44
 675 385 675 385 611 458.5 c 128,-1,45
 547 532 547 532 452 544 c 2,46,-1
 403 544 l 2,47,48
 330 544 330 544 278 598 c 128,-1,49
 226 652 226 652 226 728 c 1,50,-1
 291 728 l 1,51,52
 291 678 291 678 325.5 642.5 c 128,-1,53
 360 607 360 607 408 607 c 0,54,55
 423 607 423 607 442.5 618.5 c 128,-1,56
 462 630 462 630 483 651 c 2,57,-1
 695 857 l 1,58,-1
 736 806 l 1,59,-1
 520 602 l 1,60,61
 624 576 624 576 690 488 c 128,-1,62
 756 400 756 400 756 287 c 0,63,64
 756 168 756 168 691.5 84 c 128,-1,65
 627 0 627 0 535 0 c 1,66,-1
 535 0 l 1,0,1
EndSplineSet
MultipleSubs: 0 65534 'L006' U0C1B_U0C46.abvs U0C56 U0C1B_U0C46.abvs U0C56
EndChar
StartChar: U0C1C
Encoding: 3100 3100 31
Width: 814
GlyphClass: 2
Flags: W
Fore
54 180 m 1,0,1
 54 235 54 235 93.5 283.5 c 128,-1,2
 133 332 133 332 197 355 c 0,3,4
 251 375 251 375 283.5 403 c 128,-1,5
 316 431 316 431 316 457 c 0,6,7
 316 485 316 485 289.5 504.5 c 128,-1,8
 263 524 263 524 226 524 c 256,9,10
 189 524 189 524 162.5 504.5 c 128,-1,11
 136 485 136 485 136 457 c 0,12,13
 136 439 136 439 141 422.5 c 128,-1,14
 146 406 146 406 155 393 c 1,15,-1
 85 376 l 1,16,17
 70 394 70 394 62 415 c 128,-1,18
 54 436 54 436 54 457 c 0,19,20
 54 517 54 517 104.5 560 c 128,-1,21
 155 603 155 603 226 603 c 0,22,23
 275 603 275 603 315.5 582.5 c 128,-1,24
 356 562 356 562 376 527 c 1,25,26
 440 463 440 463 501 428 c 128,-1,27
 562 393 562 393 610 393 c 0,28,29
 644 393 644 393 668 411.5 c 128,-1,30
 692 430 692 430 692 457 c 0,31,32
 692 478 692 478 668 492.5 c 128,-1,33
 644 507 644 507 610 507 c 0,34,35
 601 507 601 507 584.5 502 c 128,-1,36
 568 497 568 497 537 486 c 1,37,-1
 508 551 l 1,38,39
 529 569 529 569 555.5 578.5 c 128,-1,40
 582 588 582 588 610 588 c 0,41,42
 678 588 678 588 725.5 549.5 c 128,-1,43
 773 511 773 511 773 457 c 0,44,45
 773 397 773 397 725.5 354 c 128,-1,46
 678 311 678 311 610 311 c 0,47,48
 556 311 556 311 499 343.5 c 128,-1,49
 442 376 442 376 393 435 c 1,50,-1
 384 433 l 1,51,52
 384 392 384 392 349 354.5 c 128,-1,53
 314 317 314 317 257 296 c 0,54,55
 203 276 203 276 169.5 244 c 128,-1,56
 136 212 136 212 136 180 c 0,57,58
 136 139 136 139 165 110.5 c 128,-1,59
 194 82 194 82 235 82 c 0,60,61
 291 82 291 82 330 129.5 c 128,-1,62
 369 177 369 177 369 245 c 1,63,-1
 428 245 l 1,64,65
 428 177 428 177 467 129.5 c 128,-1,66
 506 82 506 82 561 82 c 0,67,68
 602 82 602 82 631 110.5 c 128,-1,69
 660 139 660 139 660 180 c 0,70,71
 660 206 660 206 653.5 230.5 c 128,-1,72
 647 255 647 255 634 277 c 1,73,-1
 721 277 l 1,74,75
 731 250 731 250 736 225.5 c 128,-1,76
 741 201 741 201 741 180 c 0,77,78
 741 105 741 105 688.5 52.5 c 128,-1,79
 636 0 636 0 561 0 c 0,80,81
 512 0 512 0 470 24.5 c 128,-1,82
 428 49 428 49 403 92 c 1,83,-1
 393 93 l 1,84,85
 368 50 368 50 325.5 25 c 128,-1,86
 283 0 283 0 235 0 c 0,87,88
 160 0 160 0 107 52.5 c 128,-1,89
 54 105 54 105 54 180 c 1,90,-1
 54 180 l 1,0,1
EndSplineSet
MultipleSubs: 0 65534 'L006' U0C1C_U0C46.abvs U0C56 U0C1C_U0C46.abvs U0C56
EndChar
StartChar: U0C1D
Encoding: 3101 3101 32
Width: 1479
GlyphClass: 2
Flags: W
Fore
122 294 m 1,0,1
 122 206 122 206 184.5 144 c 128,-1,2
 247 82 247 82 335 82 c 256,3,4
 423 82 423 82 485 144 c 128,-1,5
 547 206 547 206 547 294 c 0,6,7
 547 386 547 386 485 451.5 c 128,-1,8
 423 517 423 517 335 517 c 256,9,10
 247 517 247 517 184.5 451.5 c 128,-1,11
 122 386 122 386 122 294 c 1,12,-1
 122 294 l 1,0,1
41 294 m 1,13,14
 41 385 41 385 102.5 461 c 128,-1,15
 164 537 164 537 263 569 c 1,16,17
 212 598 212 598 182.5 651.5 c 128,-1,18
 153 705 153 705 153 768 c 1,19,-1
 219 768 l 1,20,21
 219 700 219 700 253 652.5 c 128,-1,22
 287 605 287 605 335 605 c 0,23,24
 350 605 350 605 369 612.5 c 128,-1,25
 388 620 388 620 408 634 c 2,26,-1
 634 835 l 1,27,-1
 683 780 l 1,28,-1
 432 575 l 1,29,30
 522 542 522 542 576.5 465 c 128,-1,31
 631 388 631 388 631 294 c 0,32,33
 631 275 631 275 624.5 247.5 c 128,-1,34
 618 220 618 220 605 185 c 1,35,36
 633 137 633 137 679 109.5 c 128,-1,37
 725 82 725 82 777 82 c 0,38,39
 848 82 848 82 898.5 146.5 c 128,-1,40
 949 211 949 211 949 303 c 256,41,42
 949 395 949 395 895 460 c 128,-1,43
 841 525 841 525 765 525 c 1,44,-1
 792 595 l 1,45,46
 891 595 891 595 960.5 510 c 128,-1,47
 1030 425 1030 425 1030 304 c 0,48,49
 1030 268 1030 268 1025.5 240 c 128,-1,50
 1021 212 1021 212 1013 192 c 1,51,52
 1031 142 1031 142 1078.5 112 c 128,-1,53
 1126 82 1126 82 1185 82 c 0,54,55
 1253 82 1253 82 1301.5 146.5 c 128,-1,56
 1350 211 1350 211 1350 303 c 256,57,58
 1350 395 1350 395 1298.5 460 c 128,-1,59
 1247 525 1247 525 1175 525 c 1,60,-1
 1219 597 l 1,61,62
 1307 597 1307 597 1369 511 c 128,-1,63
 1431 425 1431 425 1431 303 c 0,64,65
 1431 177 1431 177 1359 88.5 c 128,-1,66
 1287 0 1287 0 1185 0 c 0,67,68
 1136 0 1136 0 1086.5 26 c 128,-1,69
 1037 52 1037 52 998 99 c 1,70,-1
 1039 -97 l 1,71,-1
 1039 -163 l 1,72,-1
 940 -163 l 1,73,-1
 940 -97 l 1,74,-1
 967 107 l 1,75,76
 932 57 932 57 881.5 28.5 c 128,-1,77
 831 0 831 0 777 0 c 0,78,79
 719 0 719 0 664.5 31.5 c 128,-1,80
 610 63 610 63 571 119 c 1,81,82
 527 63 527 63 465 31.5 c 128,-1,83
 403 0 403 0 335 0 c 0,84,85
 213 0 213 0 127 86 c 128,-1,86
 41 172 41 172 41 294 c 1,87,-1
 41 294 l 1,13,14
EndSplineSet
MultipleSubs: 0 65534 'L006' U0C1D_U0C46.abvs U0C56 U0C1D_U0C46.abvs U0C56
EndChar
StartChar: U0C1E
Encoding: 3102 3102 33
Width: 1011
GlyphClass: 2
Flags: W
Fore
19 393 m 1,0,1
 19 481 19 481 77.5 543 c 128,-1,2
 136 605 136 605 218 605 c 0,3,4
 256 605 256 605 291.5 581.5 c 128,-1,5
 327 558 327 558 350 518 c 1,6,-1
 357 518 l 1,7,8
 380 558 380 558 417 581.5 c 128,-1,9
 454 605 454 605 495 605 c 0,10,11
 556 605 556 605 608.5 574 c 128,-1,12
 661 543 661 543 692 490 c 1,13,-1
 838 490 l 1,14,-1
 838 588 l 1,15,-1
 904 588 l 1,16,-1
 904 490 l 1,17,-1
 1001 490 l 1,18,-1
 1001 425 l 1,19,-1
 714 425 l 1,20,21
 719 411 719 411 721.5 386 c 128,-1,22
 724 361 724 361 724 326 c 0,23,24
 724 280 724 280 709 234 c 128,-1,25
 694 188 694 188 666 148 c 1,26,-1
 666 139 l 1,27,28
 694 111 694 111 709 53.5 c 128,-1,29
 724 -4 724 -4 724 -82 c 1,30,-1
 643 -82 l 1,31,32
 643 -30 643 -30 634.5 12 c 128,-1,33
 626 54 626 54 610 82 c 1,34,-1
 602 90 l 1,35,36
 550 46 550 46 484.5 23 c 128,-1,37
 419 0 419 0 348 0 c 0,38,39
 266 0 266 0 208.5 43.5 c 128,-1,40
 151 87 151 87 151 148 c 0,41,42
 151 208 151 208 208.5 251 c 128,-1,43
 266 294 266 294 348 294 c 0,44,45
 424 294 424 294 492 271 c 128,-1,46
 560 248 560 248 612 204 c 1,47,48
 627 230 627 230 635 261 c 128,-1,49
 643 292 643 292 643 326 c 0,50,51
 643 408 643 408 599.5 466 c 128,-1,52
 556 524 556 524 495 524 c 0,53,54
 453 524 453 524 423.5 485.5 c 128,-1,55
 394 447 394 447 394 393 c 1,56,-1
 318 393 l 1,57,58
 318 447 318 447 288.5 485.5 c 128,-1,59
 259 524 259 524 218 524 c 0,60,61
 169 524 169 524 134 485.5 c 128,-1,62
 99 447 99 447 99 393 c 1,63,-1
 19 393 l 1,64,-1
 19 393 l 1,0,1
233 148 m 1,65,66
 233 121 233 121 266.5 101.5 c 128,-1,67
 300 82 300 82 348 82 c 0,68,69
 411 82 411 82 462.5 96.5 c 128,-1,70
 514 111 514 111 547 139 c 1,71,-1
 547 146 l 1,72,73
 509 178 509 178 457.5 195 c 128,-1,74
 406 212 406 212 348 212 c 0,75,76
 300 212 300 212 266.5 193.5 c 128,-1,77
 233 175 233 175 233 148 c 1,78,-1
 233 148 l 1,65,66
EndSplineSet
MultipleSubs: 0 65534 'L006' U0C1E_U0C46.abvs U0C56 U0C1E_U0C46.abvs U0C56
EndChar
StartChar: U0C1F
Encoding: 3103 3103 34
Width: 930
GlyphClass: 2
Flags: W
Fore
146 393 m 1,0,1
 146 359 146 359 170.5 335 c 128,-1,2
 195 311 195 311 229 311 c 256,3,4
 263 311 263 311 287 335 c 128,-1,5
 311 359 311 359 311 393 c 256,6,7
 311 427 311 427 287 450.5 c 128,-1,8
 263 474 263 474 229 474 c 256,9,10
 195 474 195 474 170.5 450.5 c 128,-1,11
 146 427 146 427 146 393 c 1,12,-1
 146 393 l 1,0,1
644 0 m 1,13,14
 586 0 586 0 538 34.5 c 128,-1,15
 490 69 490 69 469 126 c 1,16,-1
 464 124 l 1,17,18
 444 68 444 68 390 34 c 128,-1,19
 336 0 336 0 269 0 c 0,20,21
 177 0 177 0 112.5 80.5 c 128,-1,22
 48 161 48 161 48 275 c 0,23,24
 48 383 48 383 91 459 c 128,-1,25
 134 535 134 535 195 535 c 1,26,-1
 195 683 l 1,27,-1
 262 683 l 1,28,-1
 262 535 l 1,29,30
 309 535 309 535 342.5 493.5 c 128,-1,31
 376 452 376 452 376 393 c 0,32,33
 376 332 376 332 333 288.5 c 128,-1,34
 290 245 290 245 229 245 c 0,35,36
 197 245 197 245 171 255 c 128,-1,37
 145 265 145 265 129 284 c 1,38,-1
 124 280 l 1,39,40
 124 198 124 198 166.5 140 c 128,-1,41
 209 82 209 82 269 82 c 0,42,43
 334 82 334 82 380.5 134.5 c 128,-1,44
 427 187 427 187 427 262 c 1,45,-1
 503 262 l 1,46,47
 503 187 503 187 545 134.5 c 128,-1,48
 587 82 587 82 646 82 c 0,49,50
 710 82 710 82 755.5 142 c 128,-1,51
 801 202 801 202 801 286 c 0,52,53
 801 378 801 378 757 442.5 c 128,-1,54
 713 507 713 507 651 507 c 1,55,-1
 668 597 l 1,56,57
 757 597 757 597 819.5 506 c 128,-1,58
 882 415 882 415 882 286 c 0,59,60
 882 168 882 168 812.5 84 c 128,-1,61
 743 0 743 0 644 0 c 1,62,-1
 644 0 l 1,13,14
EndSplineSet
MultipleSubs: 0 65534 'L006' U0C1F_U0C46.abvs U0C56 U0C1F_U0C46.abvs U0C56
EndChar
StartChar: U0C20
Encoding: 3104 3104 35
Width: 675
GlyphClass: 2
Flags: W
Fore
124 303 m 1,0,1
 124 211 124 211 186.5 146.5 c 128,-1,2
 249 82 249 82 337 82 c 256,3,4
 425 82 425 82 487 146.5 c 128,-1,5
 549 211 549 211 549 303 c 256,6,7
 549 395 549 395 487 459.5 c 128,-1,8
 425 524 425 524 337 524 c 256,9,10
 249 524 249 524 186.5 459.5 c 128,-1,11
 124 395 124 395 124 303 c 1,12,-1
 124 303 l 1,0,1
42 303 m 1,13,14
 42 396 42 396 97 471.5 c 128,-1,15
 152 547 152 547 241 578 c 1,16,17
 201 611 201 611 178.5 663 c 128,-1,18
 156 715 156 715 156 777 c 1,19,-1
 221 777 l 1,20,21
 221 709 221 709 255.5 661.5 c 128,-1,22
 290 614 290 614 338 614 c 0,23,24
 355 614 355 614 376 625.5 c 128,-1,25
 397 637 397 637 418 658 c 2,26,-1
 624 855 l 1,27,-1
 666 813 l 1,28,-1
 432 578 l 1,29,30
 522 547 522 547 577 469 c 128,-1,31
 632 391 632 391 632 294 c 0,32,33
 632 172 632 172 545.5 86 c 128,-1,34
 459 0 459 0 337 0 c 256,35,36
 215 0 215 0 128.5 88.5 c 128,-1,37
 42 177 42 177 42 303 c 1,38,-1
 42 303 l 1,13,14
289 245 m 1,39,-1
 289 360 l 1,40,-1
 386 360 l 1,41,-1
 386 245 l 1,42,-1
 289 245 l 1,43,-1
 289 245 l 1,39,-1
EndSplineSet
MultipleSubs: 0 65534 'L006' U0C20_U0C46.abvs U0C56 U0C20_U0C46.abvs U0C56
EndChar
StartChar: U0C21
Encoding: 3105 3105 36
Width: 841
GlyphClass: 2
Flags: W
Fore
585 195 m 1,0,1
 585 161 585 161 608.5 137.5 c 128,-1,2
 632 114 632 114 666 114 c 256,3,4
 700 114 700 114 724 137.5 c 128,-1,5
 748 161 748 161 748 195 c 256,6,7
 748 229 748 229 724 253 c 128,-1,8
 700 277 700 277 666 277 c 256,9,10
 632 277 632 277 608.5 253 c 128,-1,11
 585 229 585 229 585 195 c 1,12,-1
 585 195 l 1,0,1
44 262 m 1,13,14
 44 374 44 374 117.5 466.5 c 128,-1,15
 191 559 191 559 309 595 c 1,16,17
 277 628 277 628 260 675 c 128,-1,18
 243 722 243 722 243 777 c 1,19,-1
 308 777 l 1,20,21
 308 709 308 709 342.5 661.5 c 128,-1,22
 377 614 377 614 425 614 c 0,23,24
 442 614 442 614 463 625.5 c 128,-1,25
 484 637 484 637 505 658 c 2,26,-1
 711 855 l 1,27,-1
 762 796 l 1,28,-1
 544 602 l 1,29,30
 601 592 601 592 649.5 572 c 128,-1,31
 698 552 698 552 734 524 c 1,32,-1
 690 457 l 1,33,34
 647 493 647 493 578 512.5 c 128,-1,35
 509 532 509 532 422 532 c 0,36,37
 299 532 299 532 212.5 453 c 128,-1,38
 126 374 126 374 126 262 c 0,39,40
 126 187 126 187 164.5 134.5 c 128,-1,41
 203 82 203 82 258 82 c 0,42,43
 314 82 314 82 353.5 129.5 c 128,-1,44
 393 177 393 177 393 245 c 1,45,-1
 452 245 l 1,46,47
 452 174 452 174 486 123.5 c 128,-1,48
 520 73 520 73 568 73 c 2,49,-1
 602 73 l 1,50,-1
 603 78 l 1,51,52
 569 90 569 90 548 122.5 c 128,-1,53
 527 155 527 155 527 195 c 0,54,55
 527 253 527 253 567.5 294 c 128,-1,56
 608 335 608 335 666 335 c 0,57,58
 727 335 727 335 770 292 c 128,-1,59
 813 249 813 249 813 189 c 0,60,61
 813 111 813 111 748.5 55.5 c 128,-1,62
 684 0 684 0 593 0 c 0,63,64
 541 0 541 0 496 26 c 128,-1,65
 451 52 451 52 425 97 c 1,66,-1
 420 95 l 1,67,68
 395 51 395 51 349 25.5 c 128,-1,69
 303 0 303 0 250 0 c 0,70,71
 165 0 165 0 104.5 76.5 c 128,-1,72
 44 153 44 153 44 262 c 1,73,-1
 44 262 l 1,13,14
EndSplineSet
MultipleSubs: 0 65534 'L006' U0C21_U0C46.abvs U0C56 U0C21_U0C46.abvs U0C56
EndChar
StartChar: U0C22
Encoding: 3106 3106 37
Width: 841
GlyphClass: 2
Flags: W
Fore
585 195 m 1,0,1
 585 161 585 161 608.5 137.5 c 128,-1,2
 632 114 632 114 666 114 c 256,3,4
 700 114 700 114 724 137.5 c 128,-1,5
 748 161 748 161 748 195 c 256,6,7
 748 229 748 229 724 253 c 128,-1,8
 700 277 700 277 666 277 c 256,9,10
 632 277 632 277 608.5 253 c 128,-1,11
 585 229 585 229 585 195 c 1,12,-1
 585 195 l 1,0,1
44 262 m 1,13,14
 44 375 44 375 115 467.5 c 128,-1,15
 186 560 186 560 301 595 c 1,16,17
 269 629 269 629 252 676 c 128,-1,18
 235 723 235 723 235 777 c 1,19,-1
 299 777 l 1,20,21
 299 709 299 709 333.5 661.5 c 128,-1,22
 368 614 368 614 416 614 c 0,23,24
 433 614 433 614 454 625.5 c 128,-1,25
 475 637 475 637 496 658 c 2,26,-1
 702 855 l 1,27,-1
 745 813 l 1,28,-1
 537 603 l 1,29,30
 599 593 599 593 649.5 573 c 128,-1,31
 700 553 700 553 734 524 c 1,32,-1
 690 457 l 1,33,34
 647 493 647 493 578 512.5 c 128,-1,35
 509 532 509 532 422 532 c 0,36,37
 299 532 299 532 212.5 453 c 128,-1,38
 126 374 126 374 126 262 c 0,39,40
 126 187 126 187 164.5 134.5 c 128,-1,41
 203 82 203 82 258 82 c 0,42,43
 307 82 307 82 341.5 129.5 c 128,-1,44
 376 177 376 177 376 245 c 1,45,-1
 444 245 l 1,46,47
 444 174 444 174 480.5 123.5 c 128,-1,48
 517 73 517 73 568 73 c 2,49,-1
 598 73 l 1,50,-1
 598 78 l 1,51,52
 562 91 562 91 540 123 c 128,-1,53
 518 155 518 155 518 195 c 0,54,55
 518 256 518 256 561.5 299.5 c 128,-1,56
 605 343 605 343 666 343 c 256,57,58
 727 343 727 343 770 298 c 128,-1,59
 813 253 813 253 813 189 c 0,60,61
 813 111 813 111 741 55.5 c 128,-1,62
 669 0 669 0 568 0 c 0,63,64
 530 0 530 0 496 14 c 128,-1,65
 462 28 462 28 437 54 c 1,66,-1
 430 51 l 1,67,-1
 462 -114 l 1,68,-1
 462 -180 l 1,69,-1
 348 -180 l 1,70,-1
 348 -114 l 1,71,-1
 379 51 l 1,72,-1
 374 54 l 1,73,74
 354 28 354 28 323.5 14 c 128,-1,75
 293 0 293 0 258 0 c 0,76,77
 169 0 169 0 106.5 76.5 c 128,-1,78
 44 153 44 153 44 262 c 1,79,-1
 44 262 l 1,13,14
EndSplineSet
MultipleSubs: 0 65534 'L006' U0C22_U0C46.abvs U0C56 U0C22_U0C46.abvs U0C56
EndChar
StartChar: U0C23
Encoding: 3107 3107 38
Width: 952
GlyphClass: 2
Flags: W
Fore
610 139 m 1,0,1
 610 105 610 105 634 80.5 c 128,-1,2
 658 56 658 56 692 56 c 256,3,4
 726 56 726 56 749.5 80.5 c 128,-1,5
 773 105 773 105 773 139 c 256,6,7
 773 173 773 173 749.5 197 c 128,-1,8
 726 221 726 221 692 221 c 256,9,10
 658 221 658 221 634 197 c 128,-1,11
 610 173 610 173 610 139 c 1,12,-1
 610 139 l 1,0,1
54 433 m 1,13,14
 54 501 54 501 116.5 549 c 128,-1,15
 179 597 179 597 267 597 c 0,16,17
 329 597 329 597 381 568.5 c 128,-1,18
 433 540 433 540 461 491 c 1,19,-1
 466 493 l 1,20,21
 494 541 494 541 541.5 569 c 128,-1,22
 589 597 589 597 644 597 c 0,23,24
 752 597 752 597 828 501 c 128,-1,25
 904 405 904 405 904 269 c 0,26,27
 904 154 904 154 842 73 c 128,-1,28
 780 -8 780 -8 692 -8 c 0,29,30
 632 -8 632 -8 589 35 c 128,-1,31
 546 78 546 78 546 139 c 256,32,33
 546 200 546 200 589 243 c 128,-1,34
 632 286 632 286 692 286 c 0,35,36
 733 286 733 286 765 265.5 c 128,-1,37
 797 245 797 245 809 212 c 1,38,-1
 814 212 l 1,39,40
 818 224 818 224 820.5 238.5 c 128,-1,41
 823 253 823 253 823 269 c 0,42,43
 823 371 823 371 770.5 443 c 128,-1,44
 718 515 718 515 644 515 c 0,45,46
 589 515 589 515 545.5 473 c 128,-1,47
 502 431 502 431 491 367 c 1,48,-1
 435 367 l 1,49,50
 424 431 424 431 376.5 473 c 128,-1,51
 329 515 329 515 267 515 c 0,52,53
 213 515 213 515 174.5 491 c 128,-1,54
 136 467 136 467 136 433 c 0,55,56
 136 392 136 392 193.5 362.5 c 128,-1,57
 251 333 251 333 333 333 c 1,58,-1
 333 272 l 1,59,60
 251 272 251 272 193.5 240 c 128,-1,61
 136 208 136 208 136 163 c 0,62,63
 136 129 136 129 179.5 105.5 c 128,-1,64
 223 82 223 82 284 82 c 0,65,66
 318 82 318 82 349 91.5 c 128,-1,67
 380 101 380 101 406 119 c 1,68,-1
 437 32 l 1,69,70
 403 12 403 12 364 2 c 128,-1,71
 325 -8 325 -8 284 -8 c 0,72,73
 189 -8 189 -8 121.5 42 c 128,-1,74
 54 92 54 92 54 163 c 0,75,76
 54 207 54 207 81 243.5 c 128,-1,77
 108 280 108 280 153 296 c 1,78,-1
 153 304 l 1,79,80
 110 312 110 312 82 348.5 c 128,-1,81
 54 385 54 385 54 433 c 1,82,-1
 54 433 l 1,13,14
EndSplineSet
MultipleSubs: 0 65534 'L006' U0C23_U0C46.abvs U0C56 U0C23_U0C46.abvs U0C56
EndChar
StartChar: U0C24
Encoding: 3108 3108 39
Width: 818
GlyphClass: 2
Flags: W
AnchorPoint: "Anchor-0" 402 -38 basechar 0
Fore
122 376 m 1,0,1
 122 342 122 342 146.5 318 c 128,-1,2
 171 294 171 294 206 294 c 0,3,4
 240 294 240 294 263.5 318 c 128,-1,5
 287 342 287 342 287 376 c 256,6,7
 287 410 287 410 263.5 433.5 c 128,-1,8
 240 457 240 457 206 457 c 0,9,10
 171 457 171 457 146.5 433.5 c 128,-1,11
 122 410 122 410 122 376 c 1,12,-1
 122 376 l 1,0,1
532 376 m 1,13,14
 532 342 532 342 556 318 c 128,-1,15
 580 294 580 294 614 294 c 256,16,17
 648 294 648 294 671.5 318 c 128,-1,18
 695 342 695 342 695 376 c 256,19,20
 695 410 695 410 671.5 433.5 c 128,-1,21
 648 457 648 457 614 457 c 256,22,23
 580 457 580 457 556 433.5 c 128,-1,24
 532 410 532 410 532 376 c 1,25,-1
 532 376 l 1,13,14
224 728 m 1,26,-1
 289 728 l 1,27,28
 289 678 289 678 323.5 642.5 c 128,-1,29
 358 607 358 607 406 607 c 0,30,31
 423 607 423 607 444 618.5 c 128,-1,32
 465 630 465 630 486 651 c 2,33,-1
 692 848 l 1,34,-1
 734 806 l 1,35,-1
 525 598 l 1,36,37
 636 570 636 570 706.5 499 c 128,-1,38
 777 428 777 428 777 343 c 0,39,40
 777 187 777 187 674.5 93.5 c 128,-1,41
 572 0 572 0 401 0 c 0,42,43
 238 0 238 0 139.5 89 c 128,-1,44
 41 178 41 178 41 326 c 0,45,46
 41 408 41 408 89.5 466 c 128,-1,47
 138 524 138 524 206 524 c 0,48,49
 266 524 266 524 309 480.5 c 128,-1,50
 352 437 352 437 352 376 c 256,51,52
 352 315 352 315 309 272 c 128,-1,53
 266 229 266 229 206 229 c 0,54,55
 185 229 185 229 169 233.5 c 128,-1,56
 153 238 153 238 143 246 c 1,57,-1
 134 245 l 1,58,59
 134 171 134 171 207 126.5 c 128,-1,60
 280 82 280 82 401 82 c 0,61,62
 527 82 527 82 602.5 126.5 c 128,-1,63
 678 171 678 171 678 245 c 1,64,-1
 671 246 l 1,65,66
 664 238 664 238 649 233.5 c 128,-1,67
 634 229 634 229 614 229 c 0,68,69
 553 229 553 229 509.5 272 c 128,-1,70
 466 315 466 315 466 376 c 0,71,72
 466 425 466 425 501 461.5 c 128,-1,73
 536 498 536 498 588 503 c 1,74,-1
 588 508 l 1,75,76
 555 526 555 526 509.5 535 c 128,-1,77
 464 544 464 544 410 544 c 0,78,79
 333 544 333 544 278.5 598 c 128,-1,80
 224 652 224 652 224 728 c 1,81,-1
 224 728 l 1,26,-1
EndSplineSet
MultipleSubs: 0 65534 'L006' U0C24_U0C46.abvs U0C56 U0C24_U0C46.abvs U0C56
EndChar
StartChar: U0C25
Encoding: 3109 3109 40
Width: 807
GlyphClass: 2
Flags: W
Fore
126 245 m 1,0,1
 126 177 126 177 159.5 129.5 c 128,-1,2
 193 82 193 82 241 82 c 0,3,4
 296 82 296 82 335 129.5 c 128,-1,5
 374 177 374 177 374 245 c 1,6,-1
 435 245 l 1,7,8
 435 177 435 177 474 129.5 c 128,-1,9
 513 82 513 82 568 82 c 0,10,11
 615 82 615 82 648.5 129.5 c 128,-1,12
 682 177 682 177 682 245 c 0,13,14
 682 361 682 361 601 442.5 c 128,-1,15
 520 524 520 524 405 524 c 0,16,17
 289 524 289 524 207.5 442.5 c 128,-1,18
 126 361 126 361 126 245 c 1,19,-1
 126 245 l 1,0,1
44 245 m 1,20,21
 44 362 44 362 117 456 c 128,-1,22
 190 550 190 550 306 583 c 1,23,24
 268 616 268 616 247 667 c 128,-1,25
 226 718 226 718 226 777 c 1,26,-1
 291 777 l 1,27,28
 291 709 291 709 325.5 661.5 c 128,-1,29
 360 614 360 614 408 614 c 0,30,31
 425 614 425 614 446 625.5 c 128,-1,32
 467 637 467 637 488 658 c 2,33,-1
 694 855 l 1,34,-1
 736 813 l 1,35,-1
 510 585 l 1,36,37
 622 553 622 553 692.5 458.5 c 128,-1,38
 763 364 763 364 763 245 c 0,39,40
 763 144 763 144 706 72 c 128,-1,41
 649 0 649 0 568 0 c 0,42,43
 525 0 525 0 488.5 14.5 c 128,-1,44
 452 29 452 29 428 56 c 1,45,-1
 423 53 l 1,46,-1
 454 -114 l 1,47,-1
 454 -180 l 1,48,-1
 355 -180 l 1,49,-1
 355 -114 l 1,50,-1
 382 51 l 1,51,-1
 377 56 l 1,52,53
 353 29 353 29 317.5 14.5 c 128,-1,54
 282 0 282 0 241 0 c 0,55,56
 159 0 159 0 101.5 72 c 128,-1,57
 44 144 44 144 44 245 c 1,58,-1
 44 245 l 1,20,21
355 311 m 1,59,-1
 355 408 l 1,60,-1
 454 408 l 1,61,-1
 454 311 l 1,62,-1
 355 311 l 1,63,-1
 355 311 l 1,59,-1
EndSplineSet
MultipleSubs: 0 65534 'L006' U0C25_U0C46.abvs U0C56 U0C25_U0C46.abvs U0C56
EndChar
StartChar: U0C26
Encoding: 3110 3110 41
Width: 807
GlyphClass: 2
Flags: W
Fore
126 245 m 1,0,1
 126 177 126 177 159.5 129.5 c 128,-1,2
 193 82 193 82 241 82 c 0,3,4
 296 82 296 82 335 129.5 c 128,-1,5
 374 177 374 177 374 245 c 1,6,-1
 435 245 l 1,7,8
 435 177 435 177 474 129.5 c 128,-1,9
 513 82 513 82 568 82 c 0,10,11
 615 82 615 82 648.5 129.5 c 128,-1,12
 682 177 682 177 682 245 c 0,13,14
 682 361 682 361 601 442.5 c 128,-1,15
 520 524 520 524 405 524 c 0,16,17
 289 524 289 524 207.5 442.5 c 128,-1,18
 126 361 126 361 126 245 c 1,19,-1
 126 245 l 1,0,1
44 245 m 1,20,21
 44 362 44 362 117 456 c 128,-1,22
 190 550 190 550 306 583 c 1,23,24
 268 616 268 616 247 667 c 128,-1,25
 226 718 226 718 226 777 c 1,26,-1
 291 777 l 1,27,28
 291 709 291 709 325.5 661.5 c 128,-1,29
 360 614 360 614 408 614 c 0,30,31
 425 614 425 614 446 625.5 c 128,-1,32
 467 637 467 637 488 658 c 2,33,-1
 694 855 l 1,34,-1
 736 813 l 1,35,-1
 510 585 l 1,36,37
 622 553 622 553 692.5 458.5 c 128,-1,38
 763 364 763 364 763 245 c 0,39,40
 763 144 763 144 702.5 72 c 128,-1,41
 642 0 642 0 556 0 c 0,42,43
 506 0 506 0 465 27 c 128,-1,44
 424 54 424 54 408 99 c 1,45,-1
 401 97 l 1,46,47
 385 53 385 53 341 26.5 c 128,-1,48
 297 0 297 0 241 0 c 0,49,50
 159 0 159 0 101.5 72 c 128,-1,51
 44 144 44 144 44 245 c 1,52,-1
 44 245 l 1,20,21
EndSplineSet
MultipleSubs: 0 65534 'L006' U0C26_U0C46.abvs U0C56 U0C26_U0C46.abvs U0C56
EndChar
StartChar: U0C27
Encoding: 3111 3111 42
Width: 807
GlyphClass: 2
Flags: W
Fore
126 245 m 1,0,1
 126 177 126 177 159.5 129.5 c 128,-1,2
 193 82 193 82 241 82 c 0,3,4
 296 82 296 82 335 129.5 c 128,-1,5
 374 177 374 177 374 245 c 1,6,-1
 435 245 l 1,7,8
 435 177 435 177 474 129.5 c 128,-1,9
 513 82 513 82 568 82 c 0,10,11
 615 82 615 82 648.5 129.5 c 128,-1,12
 682 177 682 177 682 245 c 0,13,14
 682 361 682 361 601 442.5 c 128,-1,15
 520 524 520 524 405 524 c 0,16,17
 289 524 289 524 207.5 442.5 c 128,-1,18
 126 361 126 361 126 245 c 1,19,-1
 126 245 l 1,0,1
44 245 m 1,20,21
 44 362 44 362 117 456 c 128,-1,22
 190 550 190 550 306 583 c 1,23,24
 268 616 268 616 247 667 c 128,-1,25
 226 718 226 718 226 777 c 1,26,-1
 291 777 l 1,27,28
 291 709 291 709 325.5 661.5 c 128,-1,29
 360 614 360 614 408 614 c 0,30,31
 425 614 425 614 446 625.5 c 128,-1,32
 467 637 467 637 488 658 c 2,33,-1
 694 855 l 1,34,-1
 736 813 l 1,35,-1
 510 585 l 1,36,37
 622 553 622 553 692.5 458.5 c 128,-1,38
 763 364 763 364 763 245 c 0,39,40
 763 144 763 144 706 72 c 128,-1,41
 649 0 649 0 568 0 c 0,42,43
 528 0 528 0 493 14 c 128,-1,44
 458 28 458 28 433 53 c 1,45,-1
 428 49 l 1,46,-1
 466 -97 l 1,47,-1
 466 -163 l 1,48,-1
 352 -163 l 1,49,-1
 352 -97 l 1,50,-1
 386 46 l 1,51,-1
 381 53 l 1,52,53
 359 28 359 28 322.5 14 c 128,-1,54
 286 0 286 0 241 0 c 0,55,56
 159 0 159 0 101.5 72 c 128,-1,57
 44 144 44 144 44 245 c 1,58,-1
 44 245 l 1,20,21
EndSplineSet
MultipleSubs: 0 65534 'L006' U0C27_U0C46.abvs U0C56 U0C27_U0C46.abvs U0C56
EndChar
StartChar: U0C28
Encoding: 3112 3112 43
Width: 758
GlyphClass: 2
Flags: W
Fore
493 82 m 1,0,1
 551 82 551 82 591.5 146.5 c 128,-1,2
 632 211 632 211 632 303 c 0,3,4
 632 403 632 403 553.5 473.5 c 128,-1,5
 475 544 475 544 364 544 c 2,6,-1
 252 544 l 2,7,8
 178 544 178 544 125.5 598 c 128,-1,9
 73 652 73 652 73 728 c 1,10,-1
 138 728 l 1,11,12
 138 678 138 678 172.5 642.5 c 128,-1,13
 207 607 207 607 255 607 c 0,14,15
 272 607 272 607 293 618.5 c 128,-1,16
 314 630 314 630 335 651 c 2,17,-1
 541 848 l 1,18,-1
 583 806 l 1,19,-1
 386 612 l 1,20,21
 524 605 524 605 619 515.5 c 128,-1,22
 714 426 714 426 714 303 c 0,23,24
 714 177 714 177 649.5 88.5 c 128,-1,25
 585 0 585 0 493 0 c 0,26,27
 423 0 423 0 370.5 43 c 128,-1,28
 318 86 318 86 306 151 c 0,29,30
 298 199 298 199 267.5 230.5 c 128,-1,31
 237 262 237 262 199 262 c 0,32,33
 165 262 165 262 140.5 228 c 128,-1,34
 116 194 116 194 116 146 c 0,35,36
 116 128 116 128 128.5 97 c 128,-1,37
 141 66 141 66 165 24 c 1,38,-1
 92 -3 l 1,39,40
 64 46 64 46 49 84 c 128,-1,41
 34 122 34 122 34 146 c 0,42,43
 34 228 34 228 82.5 285.5 c 128,-1,44
 131 343 131 343 199 343 c 0,45,46
 266 343 266 343 315.5 300 c 128,-1,47
 365 257 365 257 371 194 c 0,48,49
 375 146 375 146 410 114 c 128,-1,50
 445 82 445 82 493 82 c 1,51,-1
 493 82 l 1,0,1
EndSplineSet
MultipleSubs: 0 65534 'L006' U0C28_U0C46.abvs U0C56 U0C28_U0C46.abvs U0C56
EndChar
StartChar: U0C2A
Encoding: 3114 3114 44
Width: 716
GlyphClass: 2
Flags: W
Fore
95 148 m 1,0,1
 95 114 95 114 119 89.5 c 128,-1,2
 143 65 143 65 177 65 c 256,3,4
 211 65 211 65 234.5 89.5 c 128,-1,5
 258 114 258 114 258 148 c 256,6,7
 258 182 258 182 234.5 205.5 c 128,-1,8
 211 229 211 229 177 229 c 256,9,10
 143 229 143 229 119 205.5 c 128,-1,11
 95 182 95 182 95 148 c 1,12,-1
 95 148 l 1,0,1
454 82 m 1,13,14
 512 82 512 82 552.5 144.5 c 128,-1,15
 593 207 593 207 593 296 c 0,16,17
 593 401 593 401 534.5 475 c 128,-1,18
 476 549 476 549 394 549 c 1,19,-1
 422 620 l 1,20,21
 523 620 523 620 594.5 525 c 128,-1,22
 666 430 666 430 666 296 c 0,23,24
 666 173 666 173 604 86.5 c 128,-1,25
 542 0 542 0 454 0 c 0,26,27
 412 0 412 0 374.5 23 c 128,-1,28
 337 46 337 46 314 85 c 1,29,-1
 306 83 l 1,30,31
 292 46 292 46 256.5 23 c 128,-1,32
 221 0 221 0 177 0 c 0,33,34
 116 0 116 0 72.5 43.5 c 128,-1,35
 29 87 29 87 29 148 c 0,36,37
 29 208 29 208 72.5 251 c 128,-1,38
 116 294 116 294 177 294 c 0,39,40
 230 294 230 294 274 260.5 c 128,-1,41
 318 227 318 227 338 172 c 0,42,43
 353 131 353 131 385 106.5 c 128,-1,44
 417 82 417 82 454 82 c 1,45,-1
 454 82 l 1,13,14
14 792 m 1,46,-1
 76 792 l 1,47,48
 76 731 76 731 105.5 687.5 c 128,-1,49
 135 644 135 644 177 644 c 0,50,51
 198 644 198 644 220.5 652 c 128,-1,52
 243 660 243 660 265 675 c 2,53,-1
 534 857 l 1,54,-1
 573 802 l 1,55,-1
 299 615 l 2,56,57
 268 594 268 594 237 582.5 c 128,-1,58
 206 571 206 571 177 571 c 0,59,60
 109 571 109 571 61.5 635.5 c 128,-1,61
 14 700 14 700 14 792 c 1,62,-1
 14 792 l 1,46,-1
EndSplineSet
MultipleSubs: 0 65534 'L006' U0C2A_U0C46.abvs U0C56 U0C2A_U0C46.abvs U0C56
EndChar
StartChar: U0C2B
Encoding: 3115 3115 45
Width: 722
GlyphClass: 2
Flags: W
Fore
95 148 m 1,0,1
 95 114 95 114 119 89.5 c 128,-1,2
 143 65 143 65 177 65 c 256,3,4
 211 65 211 65 234.5 89.5 c 128,-1,5
 258 114 258 114 258 148 c 256,6,7
 258 182 258 182 234.5 205.5 c 128,-1,8
 211 229 211 229 177 229 c 256,9,10
 143 229 143 229 119 205.5 c 128,-1,11
 95 182 95 182 95 148 c 1,12,-1
 95 148 l 1,0,1
462 82 m 1,13,14
 520 82 520 82 561 147 c 128,-1,15
 602 212 602 212 602 304 c 0,16,17
 602 405 602 405 538.5 477 c 128,-1,18
 475 549 475 549 386 549 c 1,19,-1
 405 620 l 1,20,21
 517 620 517 620 596 527.5 c 128,-1,22
 675 435 675 435 675 304 c 0,23,24
 675 178 675 178 610.5 89 c 128,-1,25
 546 0 546 0 454 0 c 0,26,27
 421 0 421 0 390 13.5 c 128,-1,28
 359 27 359 27 335 51 c 1,29,-1
 330 44 l 1,30,-1
 362 -131 l 1,31,-1
 362 -197 l 1,32,-1
 263 -197 l 1,33,-1
 263 -131 l 1,34,-1
 296 42 l 1,35,-1
 289 49 l 1,36,37
 269 26 269 26 240 13 c 128,-1,38
 211 0 211 0 177 0 c 0,39,40
 116 0 116 0 72.5 43.5 c 128,-1,41
 29 87 29 87 29 148 c 0,42,43
 29 208 29 208 72.5 251 c 128,-1,44
 116 294 116 294 177 294 c 0,45,46
 235 294 235 294 279 259.5 c 128,-1,47
 323 225 323 225 331 172 c 0,48,49
 337 133 337 133 374.5 107.5 c 128,-1,50
 412 82 412 82 462 82 c 1,51,-1
 462 82 l 1,13,14
14 792 m 1,52,-1
 76 792 l 1,53,54
 76 731 76 731 105.5 687.5 c 128,-1,55
 135 644 135 644 177 644 c 0,56,57
 198 644 198 644 220.5 652 c 128,-1,58
 243 660 243 660 265 675 c 2,59,-1
 534 857 l 1,60,-1
 573 802 l 1,61,-1
 299 615 l 2,62,63
 268 594 268 594 237 582.5 c 128,-1,64
 206 571 206 571 177 571 c 0,65,66
 109 571 109 571 61.5 635.5 c 128,-1,67
 14 700 14 700 14 792 c 1,68,-1
 14 792 l 1,52,-1
EndSplineSet
MultipleSubs: 0 65534 'L006' U0C2B_U0C46.abvs U0C56 U0C2B_U0C46.abvs U0C56
EndChar
StartChar: U0C2C
Encoding: 3116 3116 46
Width: 807
GlyphClass: 2
Flags: W
Fore
552 82 m 1,0,1
 604 82 604 82 640.5 147.5 c 128,-1,2
 677 213 677 213 677 306 c 0,3,4
 677 400 677 400 628 466 c 128,-1,5
 579 532 579 532 510 532 c 1,6,-1
 535 612 l 1,7,8
 627 612 627 612 692.5 522.5 c 128,-1,9
 758 433 758 433 758 306 c 256,10,11
 758 179 758 179 697.5 89.5 c 128,-1,12
 637 0 637 0 552 0 c 0,13,14
 500 0 500 0 457.5 29 c 128,-1,15
 415 58 415 58 398 105 c 1,16,-1
 391 104 l 1,17,18
 363 56 363 56 321.5 28 c 128,-1,19
 280 0 280 0 235 0 c 0,20,21
 160 0 160 0 107 52.5 c 128,-1,22
 54 105 54 105 54 180 c 0,23,24
 54 233 54 233 93.5 280 c 128,-1,25
 133 327 133 327 197 350 c 0,26,27
 251 370 251 370 283.5 399 c 128,-1,28
 316 428 316 428 316 457 c 0,29,30
 316 488 316 488 289.5 510 c 128,-1,31
 263 532 263 532 226 532 c 256,32,33
 189 532 189 532 162.5 510 c 128,-1,34
 136 488 136 488 136 457 c 0,35,36
 136 442 136 442 143 425.5 c 128,-1,37
 150 409 150 409 163 393 c 1,38,-1
 93 367 l 1,39,40
 74 386 74 386 64 409.5 c 128,-1,41
 54 433 54 433 54 457 c 0,42,43
 54 518 54 518 105.5 561.5 c 128,-1,44
 157 605 157 605 229 605 c 0,45,46
 299 605 299 605 348.5 561.5 c 128,-1,47
 398 518 398 518 398 457 c 0,48,49
 398 408 398 408 359 363.5 c 128,-1,50
 320 319 320 319 257 296 c 0,51,52
 203 276 203 276 169.5 244 c 128,-1,53
 136 212 136 212 136 180 c 0,54,55
 136 139 136 139 165 110.5 c 128,-1,56
 194 82 194 82 235 82 c 0,57,58
 291 82 291 82 330 129.5 c 128,-1,59
 369 177 369 177 369 245 c 1,60,-1
 428 245 l 1,61,62
 428 177 428 177 464.5 129.5 c 128,-1,63
 501 82 501 82 552 82 c 1,64,-1
 552 82 l 1,0,1
EndSplineSet
MultipleSubs: 0 65534 'L006' U0C2C_U0C46.abvs U0C56 U0C2C_U0C46.abvs U0C56
EndChar
StartChar: U0C2D
Encoding: 3117 3117 47
Width: 807
GlyphClass: 2
Flags: W
Fore
563 82 m 1,0,1
 611 82 611 82 644.5 139 c 128,-1,2
 678 196 678 196 678 277 c 0,3,4
 678 388 678 388 620.5 466 c 128,-1,5
 563 544 563 544 481 544 c 0,6,7
 406 547 406 547 353.5 614.5 c 128,-1,8
 301 682 301 682 301 777 c 1,9,-1
 365 777 l 1,10,11
 365 709 365 709 399.5 661.5 c 128,-1,12
 434 614 434 614 483 614 c 0,13,14
 500 614 500 614 521 625.5 c 128,-1,15
 542 637 542 637 563 658 c 2,16,-1
 768 855 l 1,17,-1
 811 813 l 1,18,-1
 585 585 l 1,19,20
 665 546 665 546 712.5 462.5 c 128,-1,21
 760 379 760 379 760 277 c 0,22,23
 760 162 760 162 702.5 81 c 128,-1,24
 645 0 645 0 563 0 c 0,25,26
 524 0 524 0 487 19 c 128,-1,27
 450 38 450 38 422 73 c 1,28,-1
 418 68 l 1,29,-1
 449 -114 l 1,30,-1
 449 -180 l 1,31,-1
 350 -180 l 1,32,-1
 350 -114 l 1,33,-1
 382 66 l 1,34,-1
 379 73 l 1,35,36
 351 38 351 38 313.5 19 c 128,-1,37
 276 0 276 0 236 0 c 0,38,39
 161 0 161 0 108.5 52.5 c 128,-1,40
 56 105 56 105 56 180 c 0,41,42
 56 236 56 236 95.5 285 c 128,-1,43
 135 334 135 334 199 357 c 0,44,45
 253 377 253 377 285.5 404 c 128,-1,46
 318 431 318 431 318 457 c 0,47,48
 318 485 318 485 290 504.5 c 128,-1,49
 262 524 262 524 223 524 c 0,50,51
 188 524 188 524 163 504.5 c 128,-1,52
 138 485 138 485 138 457 c 0,53,54
 138 441 138 441 145 426.5 c 128,-1,55
 152 412 152 412 165 401 c 1,56,-1
 104 359 l 1,57,58
 81 378 81 378 68.5 406 c 128,-1,59
 56 434 56 434 56 466 c 0,60,61
 56 520 56 520 104.5 558.5 c 128,-1,62
 153 597 153 597 221 597 c 0,63,64
 295 597 295 597 347 556 c 128,-1,65
 399 515 399 515 399 457 c 0,66,67
 399 408 399 408 360 363.5 c 128,-1,68
 321 319 321 319 258 296 c 0,69,70
 204 276 204 276 171 244.5 c 128,-1,71
 138 213 138 213 138 180 c 0,72,73
 138 139 138 139 166.5 110.5 c 128,-1,74
 195 82 195 82 236 82 c 0,75,76
 292 82 292 82 331.5 129.5 c 128,-1,77
 371 177 371 177 371 245 c 1,78,-1
 430 245 l 1,79,80
 430 177 430 177 469 129.5 c 128,-1,81
 508 82 508 82 563 82 c 1,82,-1
 563 82 l 1,0,1
EndSplineSet
MultipleSubs: 0 65534 'L006' U0C2D_U0C46.abvs U0C56 U0C2D_U0C46.abvs U0C56
EndChar
StartChar: U0C2E
Encoding: 3118 3118 48
Width: 1195
GlyphClass: 2
Flags: W
Fore
95 148 m 1,0,1
 95 114 95 114 119 89.5 c 128,-1,2
 143 65 143 65 177 65 c 256,3,4
 211 65 211 65 234.5 89.5 c 128,-1,5
 258 114 258 114 258 148 c 256,6,7
 258 182 258 182 234.5 205.5 c 128,-1,8
 211 229 211 229 177 229 c 256,9,10
 143 229 143 229 119 205.5 c 128,-1,11
 95 182 95 182 95 148 c 1,12,-1
 95 148 l 1,0,1
29 148 m 1,13,14
 29 208 29 208 72.5 251 c 128,-1,15
 116 294 116 294 177 294 c 0,16,17
 229 294 229 294 270 259.5 c 128,-1,18
 311 225 311 225 325 170 c 0,19,20
 335 131 335 131 371 106.5 c 128,-1,21
 407 82 407 82 454 82 c 0,22,23
 512 82 512 82 552.5 144.5 c 128,-1,24
 593 207 593 207 593 296 c 0,25,26
 593 400 593 400 524.5 473 c 128,-1,27
 456 546 456 546 359 546 c 2,28,-1
 270 546 l 2,29,30
 197 546 197 546 145 599.5 c 128,-1,31
 93 653 93 653 93 728 c 1,32,-1
 158 728 l 1,33,34
 158 678 158 678 192.5 642.5 c 128,-1,35
 227 607 227 607 275 607 c 0,36,37
 292 607 292 607 313 618.5 c 128,-1,38
 334 630 334 630 355 651 c 2,39,-1
 561 848 l 1,40,-1
 603 806 l 1,41,-1
 405 610 l 1,42,43
 521 594 521 594 598 504.5 c 128,-1,44
 675 415 675 415 675 296 c 2,45,-1
 673 258 l 1,46,47
 700 179 700 179 762 130.5 c 128,-1,48
 824 82 824 82 898 82 c 0,49,50
 966 82 966 82 1013.5 144.5 c 128,-1,51
 1061 207 1061 207 1061 296 c 0,52,53
 1061 393 1061 393 1002 461 c 128,-1,54
 943 529 943 529 860 529 c 1,55,-1
 879 610 l 1,56,57
 994 600 994 600 1072.5 509 c 128,-1,58
 1151 418 1151 418 1151 294 c 0,59,60
 1151 172 1151 172 1074.5 86 c 128,-1,61
 998 0 998 0 889 0 c 0,62,63
 817 0 817 0 753.5 42 c 128,-1,64
 690 84 690 84 653 156 c 1,65,66
 627 86 627 86 572.5 43 c 128,-1,67
 518 0 518 0 454 0 c 0,68,69
 410 0 410 0 372 23 c 128,-1,70
 334 46 334 46 311 85 c 1,71,-1
 308 83 l 1,72,73
 294 46 294 46 258 23 c 128,-1,74
 222 0 222 0 177 0 c 0,75,76
 116 0 116 0 72.5 43.5 c 128,-1,77
 29 87 29 87 29 148 c 1,78,-1
 29 148 l 1,13,14
EndSplineSet
MultipleSubs: 0 65534 'L006' U0C2E_U0C46.abvs U0C56 U0C2E_U0C46.abvs U0C56
EndChar
StartChar: U0C2F
Encoding: 3119 3119 49
Width: 1542
GlyphClass: 2
Flags: W
AnchorPoint: "Anchor-0" 783 -22 basechar 0
Fore
124 294 m 1,0,1
 124 206 124 206 186.5 144 c 128,-1,2
 249 82 249 82 337 82 c 256,3,4
 425 82 425 82 487 144 c 128,-1,5
 549 206 549 206 549 294 c 0,6,7
 549 389 549 389 487 456.5 c 128,-1,8
 425 524 425 524 337 524 c 256,9,10
 249 524 249 524 186.5 456.5 c 128,-1,11
 124 389 124 389 124 294 c 1,12,-1
 124 294 l 1,0,1
942 304 m 1,13,14
 942 403 942 403 880 473.5 c 128,-1,15
 818 544 818 544 731 544 c 0,16,17
 655 544 655 544 601 612 c 128,-1,18
 547 680 547 680 547 777 c 1,19,-1
 612 777 l 1,20,21
 612 709 612 709 646.5 661.5 c 128,-1,22
 681 614 681 614 729 614 c 0,23,24
 746 614 746 614 767 625.5 c 128,-1,25
 788 637 788 637 809 658 c 2,26,-1
 1015 855 l 1,27,-1
 1057 813 l 1,28,-1
 838 592 l 1,29,30
 926 558 926 558 979 479 c 128,-1,31
 1032 400 1032 400 1032 304 c 2,32,-1
 1027 238 l 1,33,34
 1057 167 1057 167 1116 124.5 c 128,-1,35
 1175 82 1175 82 1243 82 c 256,36,37
 1311 82 1311 82 1358.5 144.5 c 128,-1,38
 1406 207 1406 207 1406 296 c 0,39,40
 1406 393 1406 393 1347 461 c 128,-1,41
 1288 529 1288 529 1205 529 c 1,42,-1
 1224 610 l 1,43,44
 1337 610 1337 610 1416.5 517.5 c 128,-1,45
 1496 425 1496 425 1496 294 c 0,46,47
 1496 172 1496 172 1419.5 86 c 128,-1,48
 1343 0 1343 0 1234 0 c 0,49,50
 1155 0 1155 0 1091 43 c 128,-1,51
 1027 86 1027 86 1001 156 c 1,52,53
 968 85 968 85 907.5 42.5 c 128,-1,54
 847 0 847 0 779 0 c 0,55,56
 715 0 715 0 661 30.5 c 128,-1,57
 607 61 607 61 576 114 c 1,58,-1
 566 114 l 1,59,60
 527 60 527 60 466.5 30 c 128,-1,61
 406 0 406 0 337 0 c 0,62,63
 215 0 215 0 128.5 86 c 128,-1,64
 42 172 42 172 42 294 c 0,65,66
 42 423 42 423 128.5 514 c 128,-1,67
 215 605 215 605 337 605 c 256,68,69
 459 605 459 605 545.5 514 c 128,-1,70
 632 423 632 423 632 294 c 0,71,72
 632 260 632 260 628 232 c 128,-1,73
 624 204 624 204 617 184 c 1,74,75
 644 137 644 137 687.5 109.5 c 128,-1,76
 731 82 731 82 779 82 c 0,77,78
 847 82 847 82 894.5 147 c 128,-1,79
 942 212 942 212 942 304 c 1,80,-1
 942 304 l 1,13,14
EndSplineSet
MultipleSubs: 0 65534 'L006' U0C2F_U0C46.abvs U0C56 U0C2F_U0C46.abvs U0C56
EndChar
StartChar: U0C30
Encoding: 3120 3120 50
Width: 675
GlyphClass: 2
Flags: W
Fore
124 303 m 1,0,1
 124 211 124 211 186.5 146.5 c 128,-1,2
 249 82 249 82 337 82 c 256,3,4
 425 82 425 82 487 146.5 c 128,-1,5
 549 211 549 211 549 303 c 256,6,7
 549 395 549 395 487 459.5 c 128,-1,8
 425 524 425 524 337 524 c 256,9,10
 249 524 249 524 186.5 459.5 c 128,-1,11
 124 395 124 395 124 303 c 1,12,-1
 124 303 l 1,0,1
42 303 m 1,13,14
 42 396 42 396 97 471.5 c 128,-1,15
 152 547 152 547 241 578 c 1,16,17
 201 611 201 611 178.5 663 c 128,-1,18
 156 715 156 715 156 777 c 1,19,-1
 221 777 l 1,20,21
 221 709 221 709 255.5 661.5 c 128,-1,22
 290 614 290 614 338 614 c 0,23,24
 355 614 355 614 376 625.5 c 128,-1,25
 397 637 397 637 418 658 c 2,26,-1
 624 855 l 1,27,-1
 666 813 l 1,28,-1
 432 578 l 1,29,30
 522 547 522 547 577 469 c 128,-1,31
 632 391 632 391 632 294 c 0,32,33
 632 172 632 172 545.5 86 c 128,-1,34
 459 0 459 0 337 0 c 256,35,36
 215 0 215 0 128.5 88.5 c 128,-1,37
 42 177 42 177 42 303 c 1,38,-1
 42 303 l 1,13,14
EndSplineSet
MultipleSubs: 0 65534 'L006' U0C30_U0C46.abvs U0C56 U0C30_U0C46.abvs U0C56
EndChar
StartChar: U0C31
Encoding: 3121 3121 51
Width: 945
GlyphClass: 2
Flags: W
Fore
178 457 m 1,0,1
 178 423 178 423 202 399.5 c 128,-1,2
 226 376 226 376 260 376 c 256,3,4
 294 376 294 376 318 399.5 c 128,-1,5
 342 423 342 423 342 457 c 256,6,7
 342 491 342 491 318 515 c 128,-1,8
 294 539 294 539 260 539 c 256,9,10
 226 539 226 539 202 515 c 128,-1,11
 178 491 178 491 178 457 c 1,12,-1
 178 457 l 1,0,1
48 309 m 1,13,14
 48 432 48 432 110 518.5 c 128,-1,15
 172 605 172 605 260 605 c 0,16,17
 321 605 321 605 364.5 561.5 c 128,-1,18
 408 518 408 518 408 457 c 0,19,20
 408 397 408 397 364 354 c 128,-1,21
 320 311 320 311 258 311 c 0,22,23
 212 311 212 311 177 340 c 128,-1,24
 142 369 142 369 134 413 c 1,25,-1
 129 413 l 1,26,27
 122 399 122 399 122 356 c 128,-1,28
 122 313 122 313 122 309 c 0,29,30
 122 215 122 215 172 148.5 c 128,-1,31
 222 82 222 82 292 82 c 0,32,33
 355 82 355 82 399.5 129.5 c 128,-1,34
 444 177 444 177 444 245 c 1,35,-1
 503 245 l 1,36,37
 503 177 503 177 547 129.5 c 128,-1,38
 591 82 591 82 654 82 c 0,39,40
 721 82 721 82 768.5 148.5 c 128,-1,41
 816 215 816 215 816 309 c 0,42,43
 816 404 816 404 777.5 471.5 c 128,-1,44
 739 539 739 539 685 539 c 0,45,46
 651 539 651 539 627 515 c 128,-1,47
 603 491 603 491 603 457 c 0,48,49
 603 418 603 418 642 392.5 c 128,-1,50
 681 367 681 367 734 372 c 1,51,-1
 734 311 l 1,52,-1
 405 311 l 1,53,-1
 405 376 l 1,54,-1
 532 376 l 1,55,-1
 578 372 l 1,56,-1
 581 376 l 1,57,58
 561 390 561 390 550 411.5 c 128,-1,59
 539 433 539 433 539 457 c 0,60,61
 539 524 539 524 579 564.5 c 128,-1,62
 619 605 619 605 685 605 c 0,63,64
 773 605 773 605 835.5 518.5 c 128,-1,65
 898 432 898 432 898 309 c 0,66,67
 898 181 898 181 826.5 90.5 c 128,-1,68
 755 0 755 0 654 0 c 0,69,70
 595 0 595 0 547 23.5 c 128,-1,71
 499 47 499 47 476 87 c 1,72,-1
 467 87 l 1,73,74
 444 47 444 47 397 23.5 c 128,-1,75
 350 0 350 0 292 0 c 0,76,77
 191 0 191 0 119.5 90.5 c 128,-1,78
 48 181 48 181 48 309 c 1,79,-1
 48 309 l 1,13,14
EndSplineSet
MultipleSubs: 0 65534 'L006' U0C31_U0C46.abvs U0C56 U0C31_U0C46.abvs U0C56
EndChar
StartChar: U0C32
Encoding: 3122 3122 52
Width: 743
GlyphClass: 2
Flags: W
AnchorPoint: "Anchor-0" 375 -15 basechar 0
Fore
192 457 m 1,0,1
 192 423 192 423 216 399.5 c 128,-1,2
 240 376 240 376 274 376 c 256,3,4
 308 376 308 376 331.5 399.5 c 128,-1,5
 355 423 355 423 355 457 c 256,6,7
 355 491 355 491 331.5 515 c 128,-1,8
 308 539 308 539 274 539 c 256,9,10
 240 539 240 539 216 515 c 128,-1,11
 192 491 192 491 192 457 c 1,12,-1
 192 457 l 1,0,1
372 82 m 1,13,14
 473 82 473 82 545 153.5 c 128,-1,15
 617 225 617 225 617 326 c 0,16,17
 617 397 617 397 580 453.5 c 128,-1,18
 543 510 543 510 483 532 c 1,19,-1
 510 612 l 1,20,21
 595 581 595 581 647 502.5 c 128,-1,22
 699 424 699 424 699 326 c 0,23,24
 699 191 699 191 603 95.5 c 128,-1,25
 507 0 507 0 372 0 c 0,26,27
 236 0 236 0 140 95.5 c 128,-1,28
 44 191 44 191 44 326 c 0,29,30
 44 442 44 442 111.5 523.5 c 128,-1,31
 179 605 179 605 274 605 c 0,32,33
 335 605 335 605 378.5 561.5 c 128,-1,34
 422 518 422 518 422 457 c 0,35,36
 422 397 422 397 378.5 354 c 128,-1,37
 335 311 335 311 274 311 c 0,38,39
 224 311 224 311 186.5 340.5 c 128,-1,40
 149 370 149 370 141 415 c 1,41,-1
 136 415 l 1,42,43
 131 403 131 403 128.5 380.5 c 128,-1,44
 126 358 126 358 126 326 c 0,45,46
 126 225 126 225 198 153.5 c 128,-1,47
 270 82 270 82 372 82 c 1,48,-1
 372 82 l 1,13,14
EndSplineSet
MultipleSubs: 0 65534 'L006' U0C32_U0C46.abvs U0C56 U0C32_U0C46.abvs U0C56
EndChar
StartChar: U0C33
Encoding: 3123 3123 53
Width: 702
GlyphClass: 2
Flags: W
Fore
97 360 m 1,0,1
 97 326 97 326 120.5 301.5 c 128,-1,2
 144 277 144 277 178 277 c 256,3,4
 212 277 212 277 236 301.5 c 128,-1,5
 260 326 260 326 260 360 c 256,6,7
 260 394 260 394 236 418 c 128,-1,8
 212 442 212 442 178 442 c 256,9,10
 144 442 144 442 120.5 418 c 128,-1,11
 97 394 97 394 97 360 c 1,12,-1
 97 360 l 1,0,1
309 105 m 1,13,14
 309 95 309 95 323.5 88.5 c 128,-1,15
 338 82 338 82 359 82 c 0,16,17
 379 82 379 82 393.5 88.5 c 128,-1,18
 408 95 408 95 408 105 c 0,19,20
 408 116 408 116 393.5 123.5 c 128,-1,21
 379 131 379 131 359 131 c 0,22,23
 338 131 338 131 323.5 123.5 c 128,-1,24
 309 116 309 116 309 105 c 1,25,-1
 309 105 l 1,13,14
359 212 m 1,26,27
 453 212 453 212 519.5 265 c 128,-1,28
 586 318 586 318 586 393 c 0,29,30
 586 456 586 456 531 500 c 128,-1,31
 476 544 476 544 399 544 c 2,32,-1
 348 544 l 2,33,34
 275 544 275 544 223.5 598 c 128,-1,35
 172 652 172 652 172 728 c 1,36,-1
 236 728 l 1,37,38
 236 678 236 678 270.5 642.5 c 128,-1,39
 305 607 305 607 354 607 c 0,40,41
 371 607 371 607 391.5 618.5 c 128,-1,42
 412 630 412 630 433 651 c 2,43,-1
 639 848 l 1,44,-1
 682 806 l 1,45,-1
 471 605 l 1,46,47
 557 587 557 587 612.5 527 c 128,-1,48
 668 467 668 467 668 393 c 0,49,50
 668 307 668 307 609.5 240.5 c 128,-1,51
 551 174 551 174 461 158 c 1,52,-1
 459 155 l 1,53,54
 470 142 470 142 475.5 129.5 c 128,-1,55
 481 117 481 117 481 105 c 0,56,57
 481 62 481 62 445.5 31 c 128,-1,58
 410 0 410 0 359 0 c 0,59,60
 301 0 301 0 260 31 c 128,-1,61
 219 62 219 62 219 105 c 0,62,63
 219 112 219 112 223 120.5 c 128,-1,64
 227 129 227 129 235 138 c 1,65,-1
 235 143 l 1,66,67
 147 159 147 159 89 220 c 128,-1,68
 31 281 31 281 31 360 c 0,69,70
 31 421 31 421 74 464 c 128,-1,71
 117 507 117 507 178 507 c 256,72,73
 239 507 239 507 282 464 c 128,-1,74
 325 421 325 421 325 360 c 0,75,76
 325 312 325 312 296.5 275.5 c 128,-1,77
 268 239 268 239 224 231 c 1,78,-1
 224 224 l 1,79,80
 238 216 238 216 266.5 214 c 128,-1,81
 295 212 295 212 359 212 c 1,82,-1
 359 212 l 1,26,27
EndSplineSet
MultipleSubs: 0 65534 'L006' U0C33_U0C46.abvs U0C56 U0C33_U0C46.abvs U0C56
EndChar
StartChar: U0C35
Encoding: 3125 3125 54
Width: 721
GlyphClass: 2
Flags: W
AnchorPoint: "Anchor-0" 350 -3 basechar 0
Fore
95 148 m 1,0,1
 95 114 95 114 119 89.5 c 128,-1,2
 143 65 143 65 177 65 c 256,3,4
 211 65 211 65 234.5 89.5 c 128,-1,5
 258 114 258 114 258 148 c 256,6,7
 258 182 258 182 234.5 205.5 c 128,-1,8
 211 229 211 229 177 229 c 256,9,10
 143 229 143 229 119 205.5 c 128,-1,11
 95 182 95 182 95 148 c 1,12,-1
 95 148 l 1,0,1
29 148 m 1,13,14
 29 208 29 208 72.5 251 c 128,-1,15
 116 294 116 294 177 294 c 0,16,17
 229 294 229 294 270 259.5 c 128,-1,18
 311 225 311 225 325 170 c 0,19,20
 335 131 335 131 371 106.5 c 128,-1,21
 407 82 407 82 454 82 c 0,22,23
 512 82 512 82 552.5 144.5 c 128,-1,24
 593 207 593 207 593 296 c 0,25,26
 593 400 593 400 524.5 473 c 128,-1,27
 456 546 456 546 359 546 c 2,28,-1
 275 546 l 2,29,30
 200 546 200 546 146.5 599.5 c 128,-1,31
 93 653 93 653 93 728 c 1,32,-1
 158 728 l 1,33,34
 158 678 158 678 192.5 642.5 c 128,-1,35
 227 607 227 607 275 607 c 0,36,37
 292 607 292 607 313 618.5 c 128,-1,38
 334 630 334 630 355 651 c 2,39,-1
 561 848 l 1,40,-1
 603 806 l 1,41,-1
 399 610 l 1,42,43
 517 595 517 595 596 505.5 c 128,-1,44
 675 416 675 416 675 296 c 0,45,46
 675 173 675 173 610.5 86.5 c 128,-1,47
 546 0 546 0 454 0 c 0,48,49
 410 0 410 0 372 23 c 128,-1,50
 334 46 334 46 311 85 c 1,51,-1
 308 83 l 1,52,53
 294 46 294 46 258 23 c 128,-1,54
 222 0 222 0 177 0 c 0,55,56
 116 0 116 0 72.5 43.5 c 128,-1,57
 29 87 29 87 29 148 c 1,58,-1
 29 148 l 1,13,14
EndSplineSet
MultipleSubs: 0 65534 'L006' U0C35_U0C46.abvs U0C56 U0C35_U0C46.abvs U0C56
EndChar
StartChar: U0C36
Encoding: 3126 3126 55
Width: 626
GlyphClass: 2
Flags: W
Fore
270 184 m 1,0,1
 270 142 270 142 300.5 112 c 128,-1,2
 331 82 331 82 374 82 c 256,3,4
 417 82 417 82 448 112 c 128,-1,5
 479 142 479 142 479 184 c 0,6,7
 479 227 479 227 448 257 c 128,-1,8
 417 287 417 287 374 287 c 256,9,10
 331 287 331 287 300.5 257 c 128,-1,11
 270 227 270 227 270 184 c 1,12,-1
 270 184 l 1,0,1
197 189 m 1,13,14
 197 230 197 230 214 263 c 128,-1,15
 231 296 231 296 260 313 c 1,16,-1
 260 318 l 1,17,18
 247 327 247 327 224 332 c 128,-1,19
 201 337 201 337 170 337 c 0,20,21
 143 337 143 337 124 321.5 c 128,-1,22
 105 306 105 306 105 284 c 0,23,24
 105 268 105 268 110.5 253 c 128,-1,25
 116 238 116 238 126 226 c 1,26,-1
 46 199 l 1,27,28
 35 229 35 229 29.5 250.5 c 128,-1,29
 24 272 24 272 24 284 c 0,30,31
 24 337 24 337 67 375 c 128,-1,32
 110 413 110 413 170 413 c 0,33,34
 228 413 228 413 277.5 399 c 128,-1,35
 327 385 327 385 365 359 c 1,36,37
 437 385 437 385 480.5 416.5 c 128,-1,38
 524 448 524 448 524 473 c 0,39,40
 524 503 524 503 456.5 523.5 c 128,-1,41
 389 544 389 544 292 544 c 2,42,-1
 240 544 l 2,43,44
 167 544 167 544 115 598 c 128,-1,45
 63 652 63 652 63 728 c 1,46,-1
 127 728 l 1,47,48
 127 678 127 678 161.5 642.5 c 128,-1,49
 196 607 196 607 245 607 c 0,50,51
 262 607 262 607 283 618.5 c 128,-1,52
 304 630 304 630 325 651 c 2,53,-1
 530 848 l 1,54,-1
 573 806 l 1,55,-1
 367 609 l 1,56,57
 465 597 465 597 531 558 c 128,-1,58
 597 519 597 519 597 473 c 0,59,60
 597 441 597 441 559 404 c 128,-1,61
 521 367 521 367 456 337 c 1,62,-1
 456 330 l 1,63,64
 498 306 498 306 522.5 265.5 c 128,-1,65
 547 225 547 225 547 180 c 0,66,67
 547 105 547 105 495 52.5 c 128,-1,68
 443 0 443 0 369 0 c 0,69,70
 298 0 298 0 247.5 55.5 c 128,-1,71
 197 111 197 111 197 189 c 1,72,-1
 197 189 l 1,13,14
EndSplineSet
MultipleSubs: 0 65534 'L006' U0C36_U0C46.abvs U0C56 U0C36_U0C46.abvs U0C56
EndChar
StartChar: U0C37
Encoding: 3127 3127 56
Width: 751
GlyphClass: 2
Flags: W
Fore
95 148 m 1,0,1
 95 114 95 114 119 89.5 c 128,-1,2
 143 65 143 65 177 65 c 256,3,4
 211 65 211 65 234.5 89.5 c 128,-1,5
 258 114 258 114 258 148 c 256,6,7
 258 182 258 182 234.5 205.5 c 128,-1,8
 211 229 211 229 177 229 c 256,9,10
 143 229 143 229 119 205.5 c 128,-1,11
 95 182 95 182 95 148 c 1,12,-1
 95 148 l 1,0,1
454 82 m 1,13,14
 508 82 508 82 546.5 143.5 c 128,-1,15
 585 205 585 205 585 292 c 0,16,17
 585 391 585 391 536.5 461.5 c 128,-1,18
 488 532 488 532 420 532 c 1,19,-1
 439 603 l 1,20,21
 533 603 533 603 599.5 513.5 c 128,-1,22
 666 424 666 424 666 297 c 2,23,-1
 666 229 l 2,24,25
 666 91 666 91 731 -5.5 c 128,-1,26
 796 -102 796 -102 879 -87 c 1,27,-1
 879 -168 l 1,28,29
 785 -168 785 -168 710 -90 c 128,-1,30
 635 -12 635 -12 614 107 c 1,31,-1
 607 107 l 1,32,33
 578 57 578 57 537 28.5 c 128,-1,34
 496 0 496 0 454 0 c 0,35,36
 410 0 410 0 371.5 22 c 128,-1,37
 333 44 333 44 311 83 c 1,38,-1
 306 83 l 1,39,40
 292 46 292 46 256.5 23 c 128,-1,41
 221 0 221 0 177 0 c 0,42,43
 116 0 116 0 72.5 43.5 c 128,-1,44
 29 87 29 87 29 148 c 0,45,46
 29 208 29 208 72.5 251 c 128,-1,47
 116 294 116 294 177 294 c 0,48,49
 229 294 229 294 271.5 260 c 128,-1,50
 314 226 314 226 331 172 c 0,51,52
 343 132 343 132 377 107 c 128,-1,53
 411 82 411 82 454 82 c 1,54,-1
 454 82 l 1,13,14
14 792 m 1,55,-1
 76 792 l 1,56,57
 76 731 76 731 105.5 687.5 c 128,-1,58
 135 644 135 644 177 644 c 0,59,60
 198 644 198 644 220.5 652 c 128,-1,61
 243 660 243 660 265 675 c 2,62,-1
 534 857 l 1,63,-1
 573 802 l 1,64,-1
 299 615 l 2,65,66
 268 594 268 594 237 582.5 c 128,-1,67
 206 571 206 571 177 571 c 0,68,69
 109 571 109 571 61.5 635.5 c 128,-1,70
 14 700 14 700 14 792 c 1,71,-1
 14 792 l 1,55,-1
EndSplineSet
MultipleSubs: 0 65534 'L006' U0C37_U0C46.abvs U0C56 U0C37_U0C46.abvs U0C56
EndChar
StartChar: U0C38
Encoding: 3128 3128 57
Width: 738
GlyphClass: 2
Flags: W
Fore
476 82 m 1,0,1
 530 82 530 82 568.5 144 c 128,-1,2
 607 206 607 206 607 294 c 0,3,4
 607 391 607 391 549.5 460 c 128,-1,5
 492 529 492 529 411 529 c 1,6,-1
 445 612 l 1,7,8
 546 612 546 612 617 519 c 128,-1,9
 688 426 688 426 688 294 c 0,10,11
 688 172 688 172 626 86 c 128,-1,12
 564 0 564 0 476 0 c 0,13,14
 403 0 403 0 349 46 c 128,-1,15
 295 92 295 92 289 160 c 0,16,17
 285 203 285 203 261.5 232.5 c 128,-1,18
 238 262 238 262 207 262 c 0,19,20
 169 262 169 262 142.5 228 c 128,-1,21
 116 194 116 194 116 146 c 0,22,23
 116 121 116 121 131 89.5 c 128,-1,24
 146 58 146 58 175 24 c 1,25,-1
 100 -12 l 1,26,27
 68 26 68 26 51 67 c 128,-1,28
 34 108 34 108 34 146 c 0,29,30
 34 228 34 228 84.5 285.5 c 128,-1,31
 135 343 135 343 207 343 c 0,32,33
 267 343 267 343 311.5 300 c 128,-1,34
 356 257 356 257 362 194 c 0,35,36
 366 146 366 146 399 114 c 128,-1,37
 432 82 432 82 476 82 c 1,38,-1
 476 82 l 1,0,1
19 792 m 1,39,-1
 82 792 l 1,40,41
 82 731 82 731 111.5 687.5 c 128,-1,42
 141 644 141 644 182 644 c 0,43,44
 203 644 203 644 225.5 652 c 128,-1,45
 248 660 248 660 270 675 c 2,46,-1
 539 857 l 1,47,-1
 578 802 l 1,48,-1
 304 615 l 2,49,50
 273 594 273 594 242 582.5 c 128,-1,51
 211 571 211 571 182 571 c 0,52,53
 114 571 114 571 66.5 635.5 c 128,-1,54
 19 700 19 700 19 792 c 1,55,-1
 19 792 l 1,39,-1
EndSplineSet
MultipleSubs: 0 65534 'L006' U0C38_U0C46.abvs U0C56 U0C38_U0C46.abvs U0C56
EndChar
StartChar: U0C39
Encoding: 3129 3129 58
Width: 1103
GlyphClass: 2
Flags: W
Fore
95 148 m 1,0,1
 95 114 95 114 119 89.5 c 128,-1,2
 143 65 143 65 177 65 c 256,3,4
 211 65 211 65 234.5 89.5 c 128,-1,5
 258 114 258 114 258 148 c 256,6,7
 258 182 258 182 234.5 205.5 c 128,-1,8
 211 229 211 229 177 229 c 256,9,10
 143 229 143 229 119 205.5 c 128,-1,11
 95 182 95 182 95 148 c 1,12,-1
 95 148 l 1,0,1
847 457 m 1,13,14
 847 423 847 423 870.5 399.5 c 128,-1,15
 894 376 894 376 928 376 c 256,16,17
 962 376 962 376 986 399.5 c 128,-1,18
 1010 423 1010 423 1010 457 c 256,19,20
 1010 491 1010 491 986 515 c 128,-1,21
 962 539 962 539 928 539 c 256,22,23
 894 539 894 539 870.5 515 c 128,-1,24
 847 491 847 491 847 457 c 1,25,-1
 847 457 l 1,13,14
29 148 m 1,26,27
 29 208 29 208 72.5 251 c 128,-1,28
 116 294 116 294 177 294 c 0,29,30
 234 294 234 294 275.5 258 c 128,-1,31
 317 222 317 222 323 168 c 1,32,33
 340 129 340 129 376 105.5 c 128,-1,34
 412 82 412 82 454 82 c 0,35,36
 522 82 522 82 570.5 151 c 128,-1,37
 619 220 619 220 619 318 c 0,38,39
 619 410 619 410 569 474.5 c 128,-1,40
 519 539 519 539 449 539 c 1,41,-1
 486 612 l 1,42,-1
 896 612 l 2,43,44
 971 612 971 612 1023.5 566.5 c 128,-1,45
 1076 521 1076 521 1076 457 c 0,46,47
 1076 396 1076 396 1032.5 352.5 c 128,-1,48
 989 309 989 309 928 309 c 0,49,50
 868 309 868 309 825 352.5 c 128,-1,51
 782 396 782 396 782 457 c 0,52,53
 782 478 782 478 790 499.5 c 128,-1,54
 798 521 798 521 814 539 c 1,55,-1
 813 544 l 1,56,-1
 770 539 l 1,57,-1
 660 539 l 1,58,-1
 610 544 l 1,59,-1
 607 539 l 1,60,61
 651 502 651 502 675.5 443.5 c 128,-1,62
 700 385 700 385 700 316 c 0,63,64
 700 185 700 185 628 92.5 c 128,-1,65
 556 0 556 0 454 0 c 0,66,67
 410 0 410 0 371.5 22 c 128,-1,68
 333 44 333 44 311 83 c 1,69,-1
 306 83 l 1,70,71
 292 46 292 46 256.5 23 c 128,-1,72
 221 0 221 0 177 0 c 0,73,74
 116 0 116 0 72.5 43.5 c 128,-1,75
 29 87 29 87 29 148 c 1,76,-1
 29 148 l 1,26,27
14 792 m 1,77,-1
 76 792 l 1,78,79
 76 731 76 731 105.5 687.5 c 128,-1,80
 135 644 135 644 177 644 c 0,81,82
 198 644 198 644 220.5 652 c 128,-1,83
 243 660 243 660 265 675 c 2,84,-1
 534 857 l 1,85,-1
 573 802 l 1,86,-1
 299 615 l 2,87,88
 268 594 268 594 237 582.5 c 128,-1,89
 206 571 206 571 177 571 c 0,90,91
 109 571 109 571 61.5 635.5 c 128,-1,92
 14 700 14 700 14 792 c 1,93,-1
 14 792 l 1,77,-1
EndSplineSet
MultipleSubs: 0 65534 'L006' U0C39_U0C46.abvs U0C56 U0C39_U0C46.abvs U0C56
EndChar
StartChar: U0C3E
Encoding: 3134 3134 59
Width: 752
GlyphClass: 2
Flags: W
Fore
458 462 m 1,0,1
 458 487 458 487 464.5 508.5 c 128,-1,2
 471 530 471 530 483 544 c 1,3,-1
 480 552 l 1,4,-1
 415 544 l 1,5,-1
 -343 544 l 1,6,-1
 -343 626 l 1,7,-1
 571 626 l 2,8,9
 646 626 646 626 699 578 c 128,-1,10
 752 530 752 530 752 462 c 0,11,12
 752 401 752 401 709 357.5 c 128,-1,13
 666 314 666 314 605 314 c 256,14,15
 544 314 544 314 501 357.5 c 128,-1,16
 458 401 458 401 458 462 c 1,17,-1
 458 462 l 1,0,1
524 462 m 1,18,19
 524 428 524 428 547.5 404.5 c 128,-1,20
 571 381 571 381 605 381 c 256,21,22
 639 381 639 381 663 404.5 c 128,-1,23
 687 428 687 428 687 462 c 256,24,25
 687 496 687 496 663 520 c 128,-1,26
 639 544 639 544 605 544 c 256,27,28
 571 544 571 544 547.5 520 c 128,-1,29
 524 496 524 496 524 462 c 1,30,-1
 524 462 l 1,18,19
EndSplineSet
EndChar
StartChar: U0C3F
Encoding: 3135 3135 60
Width: 0
GlyphClass: 2
Flags: W
Fore
-127 651 m 1,0,1
 -98 632 -98 632 -66 622 c 128,-1,2
 -34 612 -34 612 -2 612 c 0,3,4
 59 612 59 612 102.5 648.5 c 128,-1,5
 146 685 146 685 146 736 c 1,6,-1
 138 739 l 1,7,8
 119 714 119 714 85.5 700.5 c 128,-1,9
 52 687 52 687 10 687 c 0,10,11
 -69 687 -69 687 -124.5 725.5 c 128,-1,12
 -180 764 -180 764 -180 818 c 0,13,14
 -180 876 -180 876 -124 916.5 c 128,-1,15
 -68 957 -68 957 12 957 c 1,16,17
 103 944 103 944 163 888 c 128,-1,18
 223 832 223 832 223 760 c 0,19,20
 223 672 223 672 157 609.5 c 128,-1,21
 91 547 91 547 -2 547 c 0,22,23
 -51 547 -51 547 -93 560 c 128,-1,24
 -135 573 -135 573 -166 597 c 1,25,-1
 -127 651 l 1,26,-1
 -127 651 l 1,0,1
-97 826 m 1,27,28
 -97 792 -97 792 -65.5 768.5 c 128,-1,29
 -34 745 -34 745 10 745 c 0,30,31
 50 745 50 745 78 766.5 c 128,-1,32
 106 788 106 788 106 818 c 256,33,34
 106 848 106 848 78 869.5 c 128,-1,35
 50 891 50 891 10 891 c 0,36,37
 -34 891 -34 891 -65.5 872 c 128,-1,38
 -97 853 -97 853 -97 826 c 1,39,-1
 -97 826 l 1,27,28
EndSplineSet
EndChar
StartChar: U0C40
Encoding: 3136 3136 61
Width: 0
GlyphClass: 2
Flags: W
Fore
-136 660 m 1,0,1
 -111 641 -111 641 -76 630.5 c 128,-1,2
 -41 620 -41 620 1 620 c 0,3,4
 57 620 57 620 97 654 c 128,-1,5
 137 688 137 688 137 736 c 1,6,-1
 131 743 l 1,7,8
 110 720 110 720 76 707.5 c 128,-1,9
 42 695 42 695 1 695 c 0,10,11
 -78 695 -78 695 -133.5 733.5 c 128,-1,12
 -189 772 -189 772 -189 826 c 0,13,14
 -189 859 -189 859 -165 887 c 128,-1,15
 -141 915 -141 915 -102 926 c 1,16,-1
 -102 933 l 1,17,18
 -132 942 -132 942 -150.5 966.5 c 128,-1,19
 -169 991 -169 991 -169 1022 c 0,20,21
 -169 1076 -169 1076 -119 1114.5 c 128,-1,22
 -69 1153 -69 1153 1 1153 c 0,23,24
 79 1153 79 1153 132.5 1108.5 c 128,-1,25
 186 1064 186 1064 180 1005 c 1,26,-1
 91 1005 l 1,27,28
 91 1039 91 1039 64.5 1062.5 c 128,-1,29
 38 1086 38 1086 1 1086 c 0,30,31
 -34 1086 -34 1086 -59 1067.5 c 128,-1,32
 -84 1049 -84 1049 -84 1022 c 0,33,34
 -84 999 -84 999 -58.5 979.5 c 128,-1,35
 -33 960 -33 960 5 955 c 0,36,37
 95 942 95 942 154.5 886.5 c 128,-1,38
 214 831 214 831 214 760 c 0,39,40
 214 672 214 672 151.5 609.5 c 128,-1,41
 89 547 89 547 1 547 c 0,42,43
 -40 547 -40 547 -84.5 557.5 c 128,-1,44
 -129 568 -129 568 -175 588 c 1,45,-1
 -136 660 l 1,46,-1
 -136 660 l 1,0,1
-106 826 m 1,47,48
 -106 799 -106 799 -74.5 780.5 c 128,-1,49
 -43 762 -43 762 1 762 c 0,50,51
 41 762 41 762 69 780.5 c 128,-1,52
 97 799 97 799 97 826 c 256,53,54
 97 853 97 853 69 872 c 128,-1,55
 41 891 41 891 1 891 c 0,56,57
 -43 891 -43 891 -74.5 872 c 128,-1,58
 -106 853 -106 853 -106 826 c 1,59,-1
 -106 826 l 1,47,48
EndSplineSet
EndChar
StartChar: U0C41
Encoding: 3137 3137 62
Width: 461
GlyphClass: 2
Flags: W
Fore
-87 177 m 1,0,-1
 -70 280 l 1,1,2
 -47 192 -47 192 18 137 c 128,-1,3
 83 82 83 82 162 82 c 0,4,5
 230 82 230 82 277.5 144.5 c 128,-1,6
 325 207 325 207 325 296 c 0,7,8
 325 393 325 393 266 461 c 128,-1,9
 207 529 207 529 124 529 c 1,10,-1
 143 610 l 1,11,12
 256 610 256 610 335.5 517.5 c 128,-1,13
 415 425 415 425 415 294 c 0,14,15
 415 172 415 172 338.5 86 c 128,-1,16
 262 0 262 0 153 0 c 0,17,18
 68 0 68 0 1 49.5 c 128,-1,19
 -66 99 -66 99 -87 177 c 1,20,-1
 -87 177 l 1,0,-1
EndSplineSet
EndChar
StartChar: U0C42
Encoding: 3138 3138 63
Width: 905
GlyphClass: 2
Flags: W
Fore
648 474 m 1,0,1
 648 440 648 440 671.5 416.5 c 128,-1,2
 695 393 695 393 729 393 c 256,3,4
 763 393 763 393 787 416.5 c 128,-1,5
 811 440 811 440 811 474 c 256,6,7
 811 508 811 508 787 532 c 128,-1,8
 763 556 763 556 729 556 c 256,9,10
 695 556 695 556 671.5 532 c 128,-1,11
 648 508 648 508 648 474 c 1,12,-1
 648 474 l 1,0,1
129 637 m 1,13,-1
 697 637 l 2,14,15
 772 637 772 637 824.5 589.5 c 128,-1,16
 877 542 877 542 877 474 c 0,17,18
 877 413 877 413 833.5 369.5 c 128,-1,19
 790 326 790 326 729 326 c 256,20,21
 668 326 668 326 625 369.5 c 128,-1,22
 582 413 582 413 582 474 c 0,23,24
 582 494 582 494 591 515 c 128,-1,25
 600 536 600 536 616 556 c 1,26,-1
 612 561 l 1,27,-1
 556 556 l 1,28,-1
 344 556 l 1,29,-1
 301 561 l 1,30,-1
 298 556 l 1,31,32
 345 523 345 523 371.5 453.5 c 128,-1,33
 398 384 398 384 398 294 c 0,34,35
 398 172 398 172 324 86 c 128,-1,36
 250 0 250 0 145 0 c 0,37,38
 59 0 59 0 -6.5 55 c 128,-1,39
 -72 110 -72 110 -87 194 c 1,40,-1
 -87 280 l 1,41,42
 -72 194 -72 194 -6 138 c 128,-1,43
 60 82 60 82 145 82 c 0,44,45
 220 82 220 82 272.5 144 c 128,-1,46
 325 206 325 206 325 294 c 0,47,48
 325 405 325 405 267.5 484 c 128,-1,49
 210 563 210 563 129 563 c 1,50,-1
 129 637 l 1,51,-1
 129 637 l 1,13,-1
EndSplineSet
EndChar
StartChar: U0C43
Encoding: 3139 3139 64
Width: 402
GlyphClass: 2
Flags: W
Fore
-133 -272 m 1,0,1
 -133 -303 -133 -303 -110.5 -325.5 c 128,-1,2
 -88 -348 -88 -348 -57 -348 c 0,3,4
 -25 -348 -25 -348 -2.5 -325.5 c 128,-1,5
 20 -303 20 -303 20 -272 c 0,6,7
 20 -240 20 -240 -2.5 -217.5 c 128,-1,8
 -25 -195 -25 -195 -57 -195 c 0,9,10
 -88 -195 -88 -195 -110.5 -217.5 c 128,-1,11
 -133 -240 -133 -240 -133 -272 c 1,12,-1
 -133 -272 l 1,0,1
-201 -272 m 1,13,14
 -201 -212 -201 -212 -159 -169.5 c 128,-1,15
 -117 -127 -117 -127 -57 -127 c 256,16,17
 3 -127 3 -127 45.5 -169.5 c 128,-1,18
 88 -212 88 -212 88 -272 c 0,19,20
 88 -328 88 -328 45.5 -368 c 128,-1,21
 3 -408 3 -408 -57 -408 c 1,22,-1
 -60 -413 l 1,23,24
 -48 -430 -48 -430 -20 -440 c 128,-1,25
 8 -450 8 -450 45 -450 c 0,26,27
 151 -450 151 -450 225.5 -333 c 128,-1,28
 300 -216 300 -216 300 -51 c 0,29,30
 300 108 300 108 222.5 245 c 128,-1,31
 145 382 145 382 11 459 c 1,32,-1
 62 527 l 1,33,34
 208 443 208 443 292.5 288 c 128,-1,35
 377 133 377 133 377 -51 c 0,36,37
 377 -248 377 -248 280 -387.5 c 128,-1,38
 183 -527 183 -527 45 -527 c 0,39,40
 -57 -527 -57 -527 -129 -452.5 c 128,-1,41
 -201 -378 -201 -378 -201 -272 c 1,42,-1
 -201 -272 l 1,13,14
EndSplineSet
EndChar
StartChar: U0C44
Encoding: 3140 3140 65
Width: 766
GlyphClass: 2
Flags: W
Fore
510 326 m 1,0,1
 510 292 510 292 533.5 268.5 c 128,-1,2
 557 245 557 245 591 245 c 256,3,4
 625 245 625 245 649 268.5 c 128,-1,5
 673 292 673 292 673 326 c 256,6,7
 673 360 673 360 649 384 c 128,-1,8
 625 408 625 408 591 408 c 256,9,10
 557 408 557 408 533.5 384 c 128,-1,11
 510 360 510 360 510 326 c 1,12,-1
 510 326 l 1,0,1
445 326 m 1,13,14
 445 355 445 355 453.5 377 c 128,-1,15
 462 399 462 399 477 408 c 1,16,-1
 476 415 l 1,17,-1
 414 408 l 1,18,-1
 261 408 l 1,19,-1
 209 413 l 1,20,-1
 204 408 l 1,21,22
 285 318 285 318 328.5 199.5 c 128,-1,23
 372 81 372 81 372 -51 c 0,24,25
 372 -248 372 -248 275 -387.5 c 128,-1,26
 178 -527 178 -527 40 -527 c 0,27,28
 -62 -527 -62 -527 -134 -452.5 c 128,-1,29
 -206 -378 -206 -378 -206 -272 c 0,30,31
 -206 -212 -206 -212 -164 -169.5 c 128,-1,32
 -122 -127 -122 -127 -62 -127 c 256,33,34
 -2 -127 -2 -127 40.5 -169.5 c 128,-1,35
 83 -212 83 -212 83 -272 c 0,36,37
 83 -328 83 -328 39 -368 c 128,-1,38
 -5 -408 -5 -408 -68 -408 c 1,39,-1
 -72 -413 l 1,40,41
 -60 -430 -60 -430 -30 -440 c 128,-1,42
 0 -450 0 -450 40 -450 c 0,43,44
 146 -450 146 -450 220.5 -333 c 128,-1,45
 295 -216 295 -216 295 -51 c 0,46,47
 295 106 295 106 218 240.5 c 128,-1,48
 141 375 141 375 8 452 c 1,49,-1
 32 481 l 1,50,-1
 559 481 l 2,51,52
 634 481 634 481 686.5 435.5 c 128,-1,53
 739 390 739 390 739 326 c 0,54,55
 739 265 739 265 695.5 221.5 c 128,-1,56
 652 178 652 178 591 178 c 0,57,58
 531 178 531 178 488 221.5 c 128,-1,59
 445 265 445 265 445 326 c 1,60,-1
 445 326 l 1,13,14
-138 -272 m 1,61,62
 -138 -303 -138 -303 -115.5 -325.5 c 128,-1,63
 -93 -348 -93 -348 -62 -348 c 0,64,65
 -30 -348 -30 -348 -7.5 -325.5 c 128,-1,66
 15 -303 15 -303 15 -272 c 0,67,68
 15 -240 15 -240 -7.5 -217.5 c 128,-1,69
 -30 -195 -30 -195 -62 -195 c 0,70,71
 -93 -195 -93 -195 -115.5 -217.5 c 128,-1,72
 -138 -240 -138 -240 -138 -272 c 1,73,-1
 -138 -272 l 1,61,62
EndSplineSet
EndChar
StartChar: U0C46
Encoding: 3142 3142 66
Width: 0
GlyphClass: 2
Flags: W
Fore
-418 824 m 1,0,-1
 61 824 l 2,1,2
 118 824 118 824 158.5 784 c 128,-1,3
 199 744 199 744 199 687 c 0,4,5
 199 629 199 629 157 587.5 c 128,-1,6
 115 546 115 546 56 546 c 2,7,-1
 -98 546 l 1,8,-1
 -98 629 l 1,9,-1
 68 629 l 2,10,11
 88 629 88 629 102.5 646 c 128,-1,12
 117 663 117 663 117 687 c 0,13,14
 117 710 117 710 102 726.5 c 128,-1,15
 87 743 87 743 66 743 c 2,16,-1
 -418 743 l 1,17,-1
 -418 824 l 1,18,-1
 -418 824 l 1,0,-1
EndSplineSet
EndChar
StartChar: U0C47
Encoding: 3143 3143 67
Width: 0
GlyphClass: 2
Flags: W
Fore
-418 821 m 1,0,-1
 -76 821 l 1,1,-1
 -32 816 l 1,2,-1
 -29 821 l 1,3,4
 -44 836 -44 836 -52.5 855.5 c 128,-1,5
 -61 875 -61 875 -61 896 c 0,6,7
 -61 947 -61 947 -23 982.5 c 128,-1,8
 15 1018 15 1018 68 1018 c 0,9,10
 125 1018 125 1018 165.5 974.5 c 128,-1,11
 206 931 206 931 206 870 c 1,12,-1
 140 870 l 1,13,14
 140 904 140 904 121.5 928 c 128,-1,15
 103 952 103 952 77 952 c 0,16,17
 50 952 50 952 31 933 c 128,-1,18
 12 914 12 914 12 887 c 0,19,20
 12 869 12 869 31.5 851 c 128,-1,21
 51 833 51 833 83 821 c 0,22,23
 135 802 135 802 167 764 c 128,-1,24
 199 726 199 726 199 683 c 0,25,26
 199 625 199 625 157 584.5 c 128,-1,27
 115 544 115 544 56 544 c 2,28,-1
 -192 544 l 1,29,-1
 -192 626 l 1,30,-1
 68 626 l 2,31,32
 88 626 88 626 102.5 642.5 c 128,-1,33
 117 659 117 659 117 683 c 0,34,35
 117 706 117 706 102 722.5 c 128,-1,36
 87 739 87 739 66 739 c 2,37,-1
 -418 739 l 1,38,-1
 -418 821 l 1,39,-1
 -418 821 l 1,0,-1
EndSplineSet
EndChar
StartChar: U0C48
Encoding: 3144 3144 68
Width: 918
GlyphClass: 2
Flags: W
Fore
216 824 m 1,0,-1
 695 824 l 2,1,2
 752 824 752 824 792.5 784 c 128,-1,3
 833 744 833 744 833 687 c 0,4,5
 833 629 833 629 791 587.5 c 128,-1,6
 749 546 749 546 690 546 c 2,7,-1
 535 546 l 1,8,-1
 535 629 l 1,9,-1
 702 629 l 2,10,11
 722 629 722 629 736.5 646 c 128,-1,12
 751 663 751 663 751 687 c 0,13,14
 751 710 751 710 736 726.5 c 128,-1,15
 721 743 721 743 700 743 c 2,16,-1
 216 743 l 1,17,-1
 216 824 l 1,18,-1
 216 824 l 1,0,-1
150 -204 m 1,19,20
 150 -238 150 -238 173.5 -262 c 128,-1,21
 197 -286 197 -286 231 -286 c 256,22,23
 265 -286 265 -286 289 -262 c 128,-1,24
 313 -238 313 -238 313 -204 c 256,25,26
 313 -170 313 -170 289 -146 c 128,-1,27
 265 -122 265 -122 231 -122 c 256,28,29
 197 -122 197 -122 173.5 -146 c 128,-1,30
 150 -170 150 -170 150 -204 c 1,31,-1
 150 -204 l 1,19,20
85 -204 m 1,32,33
 85 -144 85 -144 128 -101 c 128,-1,34
 171 -58 171 -58 231 -58 c 0,35,36
 292 -58 292 -58 335.5 -101 c 128,-1,37
 379 -144 379 -144 379 -204 c 0,38,39
 379 -223 379 -223 369.5 -244 c 128,-1,40
 360 -265 360 -265 343 -286 c 1,41,-1
 345 -292 l 1,42,-1
 415 -286 l 1,43,-1
 790 -286 l 1,44,-1
 790 -369 l 1,45,-1
 246 -369 l 2,46,47
 179 -369 179 -369 132 -320.5 c 128,-1,48
 85 -272 85 -272 85 -204 c 1,49,-1
 85 -204 l 1,32,33
EndSplineSet
Substitution: 0 0 'abvs' .null
EndChar
StartChar: U0C4A
Encoding: 3146 3146 69
Width: 726
GlyphClass: 2
Flags: W
Fore
432 702 m 1,0,1
 432 728 432 728 438.5 749.5 c 128,-1,2
 445 771 445 771 457 785 c 1,3,-1
 454 790 l 1,4,-1
 411 785 l 1,5,-1
 348 785 l 2,6,7
 295 785 295 785 257 760.5 c 128,-1,8
 219 736 219 736 219 702 c 1,9,-1
 143 702 l 1,10,11
 143 736 143 736 96.5 760.5 c 128,-1,12
 50 785 50 785 -15 785 c 0,13,14
 -81 785 -81 785 -127.5 760 c 128,-1,15
 -174 735 -174 735 -174 699 c 256,16,17
 -174 663 -174 663 -142 637.5 c 128,-1,18
 -110 612 -110 612 -65 612 c 2,19,-1
 12 612 l 1,20,-1
 12 544 l 1,21,-1
 -65 544 l 2,22,23
 -144 544 -144 544 -199.5 589 c 128,-1,24
 -255 634 -255 634 -255 697 c 0,25,26
 -255 767 -255 767 -184.5 817 c 128,-1,27
 -114 867 -114 867 -15 867 c 0,28,29
 53 867 53 867 103.5 851.5 c 128,-1,30
 154 836 154 836 178 807 c 1,31,-1
 185 807 l 1,32,33
 209 836 209 836 251.5 851.5 c 128,-1,34
 294 867 294 867 347 867 c 2,35,-1
 578 867 l 2,36,37
 639 867 639 867 682.5 818.5 c 128,-1,38
 726 770 726 770 726 702 c 0,39,40
 726 642 726 642 682.5 599 c 128,-1,41
 639 556 639 556 578 556 c 0,42,43
 518 556 518 556 475 599 c 128,-1,44
 432 642 432 642 432 702 c 1,45,-1
 432 702 l 1,0,1
496 702 m 1,46,47
 496 668 496 668 520 644 c 128,-1,48
 544 620 544 620 578 620 c 256,49,50
 612 620 612 620 636.5 644 c 128,-1,51
 661 668 661 668 661 702 c 256,52,53
 661 736 661 736 636.5 760.5 c 128,-1,54
 612 785 612 785 578 785 c 256,55,56
 544 785 544 785 520 760.5 c 128,-1,57
 496 736 496 736 496 702 c 1,58,-1
 496 702 l 1,46,47
EndSplineSet
EndChar
StartChar: U0C4B
Encoding: 3147 3147 70
Width: 722
GlyphClass: 2
Flags: W
Fore
428 702 m 1,0,1
 428 727 428 727 434.5 748.5 c 128,-1,2
 441 770 441 770 454 785 c 1,3,-1
 450 790 l 1,4,-1
 401 785 l 1,5,-1
 345 785 l 2,6,7
 292 785 292 785 254 760.5 c 128,-1,8
 216 736 216 736 216 702 c 1,9,-1
 139 702 l 1,10,11
 139 736 139 736 95.5 760.5 c 128,-1,12
 52 785 52 785 -9 785 c 0,13,14
 -75 785 -75 785 -121.5 758.5 c 128,-1,15
 -168 732 -168 732 -168 694 c 0,16,17
 -168 660 -168 660 -138.5 636 c 128,-1,18
 -109 612 -109 612 -68 612 c 2,19,-1
 17 612 l 1,20,-1
 17 544 l 1,21,-1
 -68 544 l 2,22,23
 -143 544 -143 544 -196.5 588 c 128,-1,24
 -250 632 -250 632 -250 694 c 0,25,26
 -250 766 -250 766 -179.5 816.5 c 128,-1,27
 -109 867 -109 867 -10 867 c 0,28,29
 55 867 55 867 104.5 851.5 c 128,-1,30
 154 836 154 836 178 807 c 1,31,32
 202 836 202 836 230 851.5 c 128,-1,33
 258 867 258 867 284 867 c 2,34,-1
 432 867 l 1,35,-1
 474 862 l 1,36,-1
 478 867 l 1,37,38
 462 880 462 880 453.5 901.5 c 128,-1,39
 445 923 445 923 445 949 c 0,40,41
 445 996 445 996 485.5 1029 c 128,-1,42
 526 1062 526 1062 583 1062 c 256,43,44
 640 1062 640 1062 678.5 1018 c 128,-1,45
 717 974 717 974 712 915 c 1,46,-1
 646 915 l 1,47,48
 649 948 649 948 630 973 c 128,-1,49
 611 998 611 998 583 998 c 0,50,51
 556 998 556 998 537 981 c 128,-1,52
 518 964 518 964 518 940 c 0,53,54
 518 912 518 912 535 891 c 128,-1,55
 552 870 552 870 578 865 c 0,56,57
 640 854 640 854 681 808 c 128,-1,58
 722 762 722 762 722 702 c 256,59,60
 722 642 722 642 678.5 599 c 128,-1,61
 635 556 635 556 574 556 c 0,62,63
 514 556 514 556 471 599 c 128,-1,64
 428 642 428 642 428 702 c 1,65,-1
 428 702 l 1,0,1
493 702 m 1,66,67
 493 668 493 668 516.5 644 c 128,-1,68
 540 620 540 620 574 620 c 0,69,70
 609 620 609 620 633.5 644 c 128,-1,71
 658 668 658 668 658 702 c 256,72,73
 658 736 658 736 633.5 760.5 c 128,-1,74
 609 785 609 785 574 785 c 0,75,76
 540 785 540 785 516.5 760.5 c 128,-1,77
 493 736 493 736 493 702 c 1,78,-1
 493 702 l 1,66,67
EndSplineSet
EndChar
StartChar: U0C4C
Encoding: 3148 3148 71
Width: 768
GlyphClass: 2
Flags: W
Fore
-240 821 m 1,0,-1
 588 821 l 2,1,2
 663 821 663 821 715.5 773.5 c 128,-1,3
 768 726 768 726 768 658 c 0,4,5
 768 598 768 598 724.5 555 c 128,-1,6
 681 512 681 512 620 512 c 0,7,8
 556 512 556 512 511 555 c 128,-1,9
 466 598 466 598 466 658 c 0,10,11
 466 686 466 686 474 707.5 c 128,-1,12
 482 729 482 729 496 739 c 1,13,-1
 493 745 l 1,14,-1
 437 739 l 1,15,-1
 331 739 l 1,16,-1
 287 745 l 1,17,-1
 284 739 l 1,18,19
 297 728 297 728 304 713.5 c 128,-1,20
 311 699 311 699 311 683 c 0,21,22
 311 625 311 625 273 584.5 c 128,-1,23
 235 544 235 544 182 544 c 2,24,-1
 -53 544 l 1,25,-1
 -53 626 l 1,26,-1
 180 626 l 2,27,28
 200 626 200 626 214.5 642.5 c 128,-1,29
 229 659 229 659 229 683 c 0,30,31
 229 706 229 706 214 722.5 c 128,-1,32
 199 739 199 739 178 739 c 2,33,-1
 -240 739 l 1,34,-1
 -240 821 l 1,35,-1
 -240 821 l 1,0,-1
539 658 m 1,36,37
 539 624 539 624 562.5 600 c 128,-1,38
 586 576 586 576 620 576 c 256,39,40
 654 576 654 576 678 600 c 128,-1,41
 702 624 702 624 702 658 c 256,42,43
 702 692 702 692 678 715.5 c 128,-1,44
 654 739 654 739 620 739 c 256,45,46
 586 739 586 739 562.5 715.5 c 128,-1,47
 539 692 539 692 539 658 c 1,48,-1
 539 658 l 1,36,37
EndSplineSet
EndChar
StartChar: U0C4D
Encoding: 3149 3149 72
Width: 0
GlyphClass: 2
Flags: W
Fore
294 556 m 1,0,-1
 163 556 l 1,1,2
 107 566 107 566 70.5 603 c 128,-1,3
 34 640 34 640 34 687 c 0,4,5
 34 716 34 716 47.5 741 c 128,-1,6
 61 766 61 766 85 780 c 1,7,-1
 85 785 l 1,8,9
 61 802 61 802 47.5 828 c 128,-1,10
 34 854 34 854 34 882 c 0,11,12
 34 943 34 943 77.5 986.5 c 128,-1,13
 121 1030 121 1030 182 1030 c 2,14,-1
 551 1030 l 1,15,-1
 551 949 l 1,16,-1
 184 949 l 2,17,18
 156 949 156 949 136 929.5 c 128,-1,19
 116 910 116 910 116 882 c 0,20,21
 116 855 116 855 130.5 836.5 c 128,-1,22
 145 818 145 818 165 818 c 2,23,-1
 342 818 l 1,24,-1
 342 736 l 1,25,-1
 167 736 l 2,26,27
 146 736 146 736 131 721.5 c 128,-1,28
 116 707 116 707 116 687 c 0,29,30
 116 666 116 666 130.5 651.5 c 128,-1,31
 145 637 145 637 165 637 c 2,32,-1
 294 637 l 1,33,-1
 294 556 l 1,34,-1
 294 556 l 1,0,-1
EndSplineSet
EndChar
StartChar: U0C55
Encoding: 3157 3157 73
Width: 484
GlyphClass: 2
Flags: W
Fore
143 592 m 1,0,1
 115 615 115 615 100 648.5 c 128,-1,2
 85 682 85 682 85 719 c 0,3,4
 85 773 85 773 132.5 811.5 c 128,-1,5
 180 850 180 850 248 850 c 0,6,7
 297 850 297 850 338.5 818 c 128,-1,8
 380 786 380 786 399 733 c 1,9,-1
 328 702 l 1,10,11
 310 733 310 733 288.5 750.5 c 128,-1,12
 267 768 267 768 248 768 c 0,13,14
 214 768 214 768 190.5 748.5 c 128,-1,15
 167 729 167 729 167 702 c 0,16,17
 167 678 167 678 182.5 652.5 c 128,-1,18
 198 627 198 627 226 603 c 1,19,-1
 143 592 l 1,20,-1
 143 592 l 1,0,1
EndSplineSet
EndChar
StartChar: U0C56
Encoding: 3158 3158 74
Width: 0
GlyphClass: 2
Flags: W
Fore
-617 -204 m 1,0,1
 -617 -238 -617 -238 -593.5 -262 c 128,-1,2
 -570 -286 -570 -286 -536 -286 c 256,3,4
 -502 -286 -502 -286 -478 -262 c 128,-1,5
 -454 -238 -454 -238 -454 -204 c 256,6,7
 -454 -170 -454 -170 -478 -146 c 128,-1,8
 -502 -122 -502 -122 -536 -122 c 256,9,10
 -570 -122 -570 -122 -593.5 -146 c 128,-1,11
 -617 -170 -617 -170 -617 -204 c 1,12,-1
 -617 -204 l 1,0,1
-682 -204 m 1,13,14
 -682 -144 -682 -144 -639 -101 c 128,-1,15
 -596 -58 -596 -58 -536 -58 c 0,16,17
 -475 -58 -475 -58 -431.5 -101 c 128,-1,18
 -388 -144 -388 -144 -388 -204 c 0,19,20
 -388 -223 -388 -223 -397.5 -244 c 128,-1,21
 -407 -265 -407 -265 -424 -286 c 1,22,-1
 -422 -292 l 1,23,-1
 -352 -286 l 1,24,-1
 23 -286 l 1,25,-1
 23 -369 l 1,26,-1
 -521 -369 l 2,27,28
 -588 -369 -588 -369 -635 -320.5 c 128,-1,29
 -682 -272 -682 -272 -682 -204 c 1,30,-1
 -682 -204 l 1,13,14
EndSplineSet
EndChar
StartChar: U0C60
Encoding: 3168 3168 75
Width: 2184
GlyphClass: 2
Flags: W
Fore
552 82 m 1,0,1
 604 82 604 82 640.5 147.5 c 128,-1,2
 677 213 677 213 677 306 c 0,3,4
 677 400 677 400 628 466 c 128,-1,5
 579 532 579 532 510 532 c 1,6,-1
 535 612 l 1,7,8
 627 612 627 612 692.5 522.5 c 128,-1,9
 758 433 758 433 758 306 c 0,10,11
 770 210 770 210 831.5 146 c 128,-1,12
 893 82 893 82 974 82 c 0,13,14
 1045 82 1045 82 1095.5 144.5 c 128,-1,15
 1146 207 1146 207 1146 296 c 0,16,17
 1146 393 1146 393 1085 461 c 128,-1,18
 1024 529 1024 529 937 529 c 1,19,-1
 955 610 l 1,20,21
 1068 610 1068 610 1147.5 517.5 c 128,-1,22
 1227 425 1227 425 1227 294 c 0,23,24
 1238 203 1238 203 1294.5 142.5 c 128,-1,25
 1351 82 1351 82 1425 82 c 0,26,27
 1500 82 1500 82 1552.5 144 c 128,-1,28
 1605 206 1605 206 1605 294 c 0,29,30
 1605 405 1605 405 1547.5 484 c 128,-1,31
 1490 563 1490 563 1409 563 c 1,32,-1
 1409 637 l 1,33,-1
 1977 637 l 2,34,35
 2052 637 2052 637 2104.5 589.5 c 128,-1,36
 2157 542 2157 542 2157 474 c 0,37,38
 2157 413 2157 413 2113.5 369.5 c 128,-1,39
 2070 326 2070 326 2009 326 c 256,40,41
 1948 326 1948 326 1904.5 369.5 c 128,-1,42
 1861 413 1861 413 1861 474 c 0,43,44
 1861 494 1861 494 1870 515 c 128,-1,45
 1879 536 1879 536 1895 556 c 1,46,-1
 1892 561 l 1,47,-1
 1836 556 l 1,48,-1
 1623 556 l 1,49,-1
 1581 561 l 1,50,-1
 1578 556 l 1,51,52
 1625 523 1625 523 1651.5 453.5 c 128,-1,53
 1678 384 1678 384 1678 294 c 0,54,55
 1678 172 1678 172 1604 86 c 128,-1,56
 1530 0 1530 0 1425 0 c 0,57,58
 1347 0 1347 0 1284.5 45.5 c 128,-1,59
 1222 91 1222 91 1200 165 c 1,60,61
 1166 90 1166 90 1102.5 45 c 128,-1,62
 1039 0 1039 0 966 0 c 0,63,64
 887 0 887 0 823 43.5 c 128,-1,65
 759 87 759 87 733 158 c 1,66,67
 706 87 706 87 656 43.5 c 128,-1,68
 606 0 606 0 552 0 c 0,69,70
 500 0 500 0 457.5 29 c 128,-1,71
 415 58 415 58 398 105 c 1,72,-1
 391 104 l 1,73,74
 363 56 363 56 321.5 28 c 128,-1,75
 280 0 280 0 235 0 c 0,76,77
 160 0 160 0 107 52.5 c 128,-1,78
 54 105 54 105 54 180 c 0,79,80
 54 233 54 233 93.5 280 c 128,-1,81
 133 327 133 327 197 350 c 0,82,83
 251 370 251 370 283.5 399 c 128,-1,84
 316 428 316 428 316 457 c 0,85,86
 316 488 316 488 289.5 510 c 128,-1,87
 263 532 263 532 226 532 c 256,88,89
 189 532 189 532 162.5 510 c 128,-1,90
 136 488 136 488 136 457 c 0,91,92
 136 442 136 442 143 425.5 c 128,-1,93
 150 409 150 409 163 393 c 1,94,-1
 93 367 l 1,95,96
 74 386 74 386 64 409.5 c 128,-1,97
 54 433 54 433 54 457 c 0,98,99
 54 518 54 518 105.5 561.5 c 128,-1,100
 157 605 157 605 229 605 c 0,101,102
 299 605 299 605 348.5 561.5 c 128,-1,103
 398 518 398 518 398 457 c 0,104,105
 398 408 398 408 359 363.5 c 128,-1,106
 320 319 320 319 257 296 c 0,107,108
 203 276 203 276 169.5 244 c 128,-1,109
 136 212 136 212 136 180 c 0,110,111
 136 139 136 139 165 110.5 c 128,-1,112
 194 82 194 82 235 82 c 0,113,114
 291 82 291 82 330 129.5 c 128,-1,115
 369 177 369 177 369 245 c 1,116,-1
 428 245 l 1,117,118
 428 177 428 177 464.5 129.5 c 128,-1,119
 501 82 501 82 552 82 c 1,120,-1
 552 82 l 1,0,1
1928 474 m 1,121,122
 1928 440 1928 440 1951.5 416.5 c 128,-1,123
 1975 393 1975 393 2009 393 c 256,124,125
 2043 393 2043 393 2067 416.5 c 128,-1,126
 2091 440 2091 440 2091 474 c 256,127,128
 2091 508 2091 508 2067 532 c 128,-1,129
 2043 556 2043 556 2009 556 c 256,130,131
 1975 556 1975 556 1951.5 532 c 128,-1,132
 1928 508 1928 508 1928 474 c 1,133,-1
 1928 474 l 1,121,122
EndSplineSet
EndChar
StartChar: U0C61
Encoding: 3169 3169 76
Width: 1450
GlyphClass: 2
Flags: W
Fore
1193 428 m 1,0,1
 1193 394 1193 394 1217 370.5 c 128,-1,2
 1241 347 1241 347 1275 347 c 256,3,4
 1309 347 1309 347 1333 370.5 c 128,-1,5
 1357 394 1357 394 1357 428 c 256,6,7
 1357 462 1357 462 1333 486 c 128,-1,8
 1309 510 1309 510 1275 510 c 256,9,10
 1241 510 1241 510 1217 486 c 128,-1,11
 1193 462 1193 462 1193 428 c 1,12,-1
 1193 428 l 1,0,1
1129 428 m 1,13,14
 1129 457 1129 457 1137.5 479 c 128,-1,15
 1146 501 1146 501 1161 510 c 1,16,-1
 1159 517 l 1,17,-1
 1100 510 l 1,18,-1
 926 510 l 1,19,-1
 869 515 l 1,20,-1
 865 510 l 1,21,22
 899 445 899 445 917 371.5 c 128,-1,23
 935 298 935 298 935 221 c 0,24,25
 935 48 935 48 840 -74.5 c 128,-1,26
 745 -197 745 -197 610 -197 c 0,27,28
 511 -197 511 -197 441.5 -131.5 c 128,-1,29
 372 -66 372 -66 372 27 c 0,30,31
 372 81 372 81 411.5 137 c 128,-1,32
 451 193 451 193 520 238 c 0,33,34
 573 273 573 273 603.5 320 c 128,-1,35
 634 367 634 367 634 415 c 0,36,37
 634 456 634 456 605 484.5 c 128,-1,38
 576 513 576 513 535 513 c 0,39,40
 479 513 479 513 440 465.5 c 128,-1,41
 401 418 401 418 401 350 c 1,42,-1
 342 350 l 1,43,44
 342 418 342 418 303 465.5 c 128,-1,45
 264 513 264 513 209 513 c 0,46,47
 168 513 168 513 139 484.5 c 128,-1,48
 110 456 110 456 110 415 c 0,49,50
 110 389 110 389 116.5 364.5 c 128,-1,51
 123 340 123 340 136 318 c 1,52,-1
 51 318 l 1,53,54
 40 337 40 337 34.5 361.5 c 128,-1,55
 29 386 29 386 29 415 c 0,56,57
 29 490 29 490 81.5 542.5 c 128,-1,58
 134 595 134 595 209 595 c 0,59,60
 259 595 259 595 302 571 c 128,-1,61
 345 547 345 547 369 505 c 1,62,-1
 374 507 l 1,63,64
 398 548 398 548 441 571.5 c 128,-1,65
 484 595 484 595 535 595 c 0,66,67
 610 595 610 595 663 542.5 c 128,-1,68
 716 490 716 490 716 415 c 0,69,70
 716 345 716 345 676.5 280.5 c 128,-1,71
 637 216 637 216 568 173 c 0,72,73
 515 140 515 140 484.5 99 c 128,-1,74
 454 58 454 58 454 19 c 0,75,76
 454 -37 454 -37 500.5 -76.5 c 128,-1,77
 547 -116 547 -116 612 -116 c 0,78,79
 713 -116 713 -116 784 -16.5 c 128,-1,80
 855 83 855 83 855 223 c 0,81,82
 855 320 855 320 829 402 c 128,-1,83
 803 484 803 484 755 542 c 1,84,-1
 770 583 l 1,85,-1
 1243 583 l 2,86,87
 1318 583 1318 583 1370.5 537.5 c 128,-1,88
 1423 492 1423 492 1423 428 c 0,89,90
 1423 367 1423 367 1379.5 323.5 c 128,-1,91
 1336 280 1336 280 1275 280 c 0,92,93
 1215 280 1215 280 1172 323.5 c 128,-1,94
 1129 367 1129 367 1129 428 c 1,95,-1
 1129 428 l 1,13,14
EndSplineSet
EndChar
StartChar: U0C66
Encoding: 3174 3174 77
Width: 923
GlyphClass: 2
Flags: W
Fore
461 -24 m 1,0,1
 304 -24 304 -24 193.5 103 c 128,-1,2
 83 230 83 230 83 410 c 0,3,4
 83 586 83 586 193.5 710.5 c 128,-1,5
 304 835 304 835 461 835 c 256,6,7
 618 835 618 835 729 710.5 c 128,-1,8
 840 586 840 586 840 410 c 0,9,10
 840 230 840 230 729 103 c 128,-1,11
 618 -24 618 -24 461 -24 c 1,12,-1
 461 -24 l 1,0,1
461 56 m 1,13,14
 586 56 586 56 674 159.5 c 128,-1,15
 762 263 762 263 762 410 c 0,16,17
 762 553 762 553 674 654 c 128,-1,18
 586 755 586 755 461 755 c 0,19,20
 340 755 340 755 254 654 c 128,-1,21
 168 553 168 553 168 410 c 0,22,23
 168 263 168 263 254 159.5 c 128,-1,24
 340 56 340 56 461 56 c 1,25,-1
 461 56 l 1,13,14
EndSplineSet
EndChar
StartChar: U0C67
Encoding: 3175 3175 78
Width: 925
GlyphClass: 2
Flags: W
Fore
299 -20 m 1,0,1
 203 47 203 47 149 163.5 c 128,-1,2
 95 280 95 280 95 420 c 0,3,4
 95 592 95 592 202.5 713.5 c 128,-1,5
 310 835 310 835 462 835 c 256,6,7
 614 835 614 835 722 713.5 c 128,-1,8
 830 592 830 592 830 420 c 0,9,10
 830 293 830 293 775 176.5 c 128,-1,11
 720 60 720 60 620 -24 c 1,12,-1
 569 32 l 1,13,14
 653 116 653 116 698 216.5 c 128,-1,15
 743 317 743 317 743 420 c 0,16,17
 743 559 743 559 660.5 657 c 128,-1,18
 578 755 578 755 462 755 c 256,19,20
 346 755 346 755 264 657 c 128,-1,21
 182 559 182 559 182 420 c 0,22,23
 182 302 182 302 227.5 200 c 128,-1,24
 273 98 273 98 355 32 c 1,25,-1
 299 -20 l 1,26,-1
 299 -20 l 1,0,1
EndSplineSet
EndChar
StartChar: U0C68
Encoding: 3176 3176 79
Width: 923
GlyphClass: 2
Flags: W
Fore
90 -7 m 1,0,-1
 90 73 l 1,1,-1
 367 73 l 2,2,3
 527 73 527 73 640 178.5 c 128,-1,4
 753 284 753 284 753 433 c 0,5,6
 753 552 753 552 684 636 c 128,-1,7
 615 720 615 720 510 729 c 1,8,9
 526 715 526 715 535 690.5 c 128,-1,10
 544 666 544 666 544 634 c 0,11,12
 544 568 544 568 497 521 c 128,-1,13
 450 474 450 474 384 474 c 0,14,15
 317 474 317 474 270 521 c 128,-1,16
 223 568 223 568 223 634 c 0,17,18
 223 710 223 710 280 756 c 128,-1,19
 337 802 337 802 432 802 c 0,20,21
 598 802 598 802 715.5 694 c 128,-1,22
 833 586 833 586 833 433 c 0,23,24
 833 251 833 251 697 122 c 128,-1,25
 561 -7 561 -7 369 -7 c 2,26,-1
 90 -7 l 1,27,-1
 90 -7 l 1,0,-1
384 554 m 1,28,29
 417 554 417 554 440.5 577.5 c 128,-1,30
 464 601 464 601 464 634 c 0,31,32
 464 668 464 668 440.5 692 c 128,-1,33
 417 716 417 716 384 716 c 256,34,35
 351 716 351 716 327.5 692 c 128,-1,36
 304 668 304 668 304 634 c 0,37,38
 304 601 304 601 327.5 577.5 c 128,-1,39
 351 554 351 554 384 554 c 1,40,-1
 384 554 l 1,28,29
EndSplineSet
EndChar
StartChar: U0C69
Encoding: 3177 3177 80
Width: 925
GlyphClass: 2
Flags: W
Fore
469 -41 m 1,0,1
 338 -41 338 -41 245.5 43.5 c 128,-1,2
 153 128 153 128 153 248 c 1,3,-1
 240 248 l 1,4,5
 240 165 240 165 307 106.5 c 128,-1,6
 374 48 374 48 469 48 c 0,7,8
 566 48 566 48 624 98.5 c 128,-1,9
 682 149 682 149 682 233 c 0,10,11
 682 302 682 302 635.5 347.5 c 128,-1,12
 589 393 589 393 518 393 c 2,13,-1
 345 393 l 1,14,-1
 345 474 l 1,15,-1
 517 474 l 2,16,17
 592 474 592 474 637 511 c 128,-1,18
 682 548 682 548 682 610 c 0,19,20
 682 670 682 670 619.5 712.5 c 128,-1,21
 557 755 557 755 469 755 c 0,22,23
 373 755 373 755 305.5 707.5 c 128,-1,24
 238 660 238 660 238 593 c 1,25,-1
 153 593 l 1,26,27
 153 693 153 693 245.5 764 c 128,-1,28
 338 835 338 835 469 835 c 0,29,30
 595 835 595 835 683.5 769 c 128,-1,31
 772 703 772 703 772 610 c 0,32,33
 772 549 772 549 736 500 c 128,-1,34
 700 451 700 451 643 435 c 1,35,-1
 643 427 l 1,36,37
 701 399 701 399 735.5 346.5 c 128,-1,38
 770 294 770 294 770 233 c 0,39,40
 770 103 770 103 691 31 c 128,-1,41
 612 -41 612 -41 469 -41 c 1,42,-1
 469 -41 l 1,0,1
EndSplineSet
EndChar
StartChar: U0C6A
Encoding: 3178 3178 81
Width: 923
GlyphClass: 2
Flags: W
Fore
471 -41 m 1,0,1
 367 -41 367 -41 294 25 c 128,-1,2
 221 91 221 91 221 185 c 0,3,4
 221 245 221 245 256 299.5 c 128,-1,5
 291 354 291 354 352 389 c 1,6,7
 243 429 243 429 176 496.5 c 128,-1,8
 109 564 109 564 109 634 c 0,9,10
 109 701 109 701 148.5 759 c 128,-1,11
 188 817 188 817 255 848 c 1,12,-1
 309 794 l 1,13,14
 257 764 257 764 227 721 c 128,-1,15
 197 678 197 678 197 634 c 0,16,17
 197 577 197 577 271 521.5 c 128,-1,18
 345 466 345 466 462 435 c 1,19,20
 577 455 577 455 652.5 511.5 c 128,-1,21
 728 568 728 568 728 634 c 0,22,23
 728 678 728 678 698.5 720 c 128,-1,24
 669 762 669 762 617 792 c 1,25,-1
 658 848 l 1,26,27
 728 822 728 822 771 763.5 c 128,-1,28
 814 705 814 705 814 634 c 0,29,30
 814 562 814 562 750.5 494.5 c 128,-1,31
 687 427 687 427 583 389 c 1,32,33
 646 353 646 353 682.5 300 c 128,-1,34
 719 247 719 247 719 192 c 0,35,36
 719 95 719 95 646.5 27 c 128,-1,37
 574 -41 574 -41 471 -41 c 1,38,-1
 471 -41 l 1,0,1
471 48 m 1,39,40
 537 48 537 48 584 90 c 128,-1,41
 631 132 631 132 631 192 c 0,42,43
 631 247 631 247 586.5 294 c 128,-1,44
 542 341 542 341 471 360 c 1,45,46
 399 341 399 341 354 292 c 128,-1,47
 309 243 309 243 309 185 c 0,48,49
 309 128 309 128 356.5 88 c 128,-1,50
 404 48 404 48 471 48 c 1,51,-1
 471 48 l 1,39,40
EndSplineSet
EndChar
StartChar: U0C6B
Encoding: 3179 3179 82
Width: 925
GlyphClass: 2
Flags: W
Fore
75 -24 m 1,0,-1
 78 59 l 1,1,2
 236 73 236 73 317 159.5 c 128,-1,3
 398 246 398 246 398 401 c 0,4,5
 398 544 398 544 315 637.5 c 128,-1,6
 232 731 232 731 95 743 c 1,7,-1
 95 830 l 1,8,9
 256 830 256 830 369.5 704.5 c 128,-1,10
 483 579 483 579 483 401 c 0,11,12
 483 333 483 333 464.5 270.5 c 128,-1,13
 446 208 446 208 411 158 c 1,14,-1
 416 153 l 1,15,16
 488 203 488 203 545.5 265 c 128,-1,17
 603 327 603 327 644 398 c 1,18,19
 571 449 571 449 529.5 518 c 128,-1,20
 488 587 488 587 488 658 c 0,21,22
 488 731 488 731 542 783 c 128,-1,23
 596 835 596 835 673 835 c 0,24,25
 746 835 746 835 798 779 c 128,-1,26
 850 723 850 723 850 643 c 0,27,28
 850 595 850 595 826 535.5 c 128,-1,29
 802 476 802 476 756 410 c 1,30,31
 790 370 790 370 808 322 c 128,-1,32
 826 274 826 274 826 224 c 0,33,34
 826 120 826 120 756.5 46.5 c 128,-1,35
 687 -27 687 -27 588 -27 c 1,36,-1
 575 42 l 1,37,38
 646 54 646 54 692 106 c 128,-1,39
 738 158 738 158 738 224 c 0,40,41
 738 265 738 265 729.5 296 c 128,-1,42
 721 327 721 327 705 343 c 1,43,44
 584 170 584 170 417 73 c 128,-1,45
 250 -24 250 -24 75 -24 c 1,46,-1
 75 -24 l 1,0,-1
694 464 m 1,47,48
 727 511 727 511 744.5 557 c 128,-1,49
 762 603 762 603 762 643 c 0,50,51
 762 692 762 692 737 723.5 c 128,-1,52
 712 755 712 755 673 755 c 0,53,54
 631 755 631 755 603.5 727.5 c 128,-1,55
 576 700 576 700 576 658 c 0,56,57
 576 606 576 606 607.5 554.5 c 128,-1,58
 639 503 639 503 694 464 c 1,59,-1
 694 464 l 1,47,48
EndSplineSet
EndChar
StartChar: U0C6C
Encoding: 3180 3180 83
Width: 925
GlyphClass: 2
Flags: W
Fore
331 -15 m 1,0,1
 226 -15 226 -15 162.5 48 c 128,-1,2
 99 111 99 111 99 216 c 0,3,4
 99 284 99 284 140 337.5 c 128,-1,5
 181 391 181 391 246 408 c 1,6,-1
 246 415 l 1,7,8
 184 432 184 432 144.5 481.5 c 128,-1,9
 105 531 105 531 105 593 c 0,10,11
 105 690 105 690 189.5 758 c 128,-1,12
 274 826 274 826 394 826 c 2,13,-1
 500 826 l 1,14,-1
 500 746 l 1,15,-1
 396 746 l 2,16,17
 309 746 309 746 248 701 c 128,-1,18
 187 656 187 656 187 593 c 0,19,20
 187 537 187 537 238.5 497 c 128,-1,21
 290 457 290 457 362 457 c 2,22,-1
 483 457 l 1,23,-1
 483 369 l 1,24,-1
 369 369 l 2,25,26
 282 369 282 369 230 327 c 128,-1,27
 178 285 178 285 178 216 c 0,28,29
 178 151 178 151 220 112 c 128,-1,30
 262 73 262 73 331 73 c 2,31,-1
 826 73 l 1,32,-1
 826 -15 l 1,33,-1
 331 -15 l 1,34,-1
 331 -15 l 1,0,1
EndSplineSet
EndChar
StartChar: U0C6D
Encoding: 3181 3181 84
Width: 923
GlyphClass: 2
Flags: W
Fore
442 -24 m 1,0,1
 302 -24 302 -24 203.5 55.5 c 128,-1,2
 105 135 105 135 105 248 c 0,3,4
 105 339 105 339 192 409 c 128,-1,5
 279 479 279 479 408 490 c 0,6,7
 508 499 508 499 575.5 533.5 c 128,-1,8
 643 568 643 568 643 610 c 0,9,10
 643 666 643 666 582 706 c 128,-1,11
 521 746 521 746 435 746 c 0,12,13
 371 746 371 746 308 713 c 128,-1,14
 245 680 245 680 195 620 c 1,15,-1
 121 680 l 1,16,17
 172 753 172 753 255 794 c 128,-1,18
 338 835 338 835 435 835 c 0,19,20
 569 835 569 835 650 773.5 c 128,-1,21
 731 712 731 712 731 610 c 0,22,23
 731 537 731 537 641.5 479.5 c 128,-1,24
 552 422 552 422 420 410 c 0,25,26
 324 402 324 402 259 355 c 128,-1,27
 194 308 194 308 194 248 c 0,28,29
 194 172 194 172 266.5 118.5 c 128,-1,30
 339 65 339 65 442 65 c 0,31,32
 548 65 548 65 629 130.5 c 128,-1,33
 710 196 710 196 728 297 c 1,34,-1
 818 297 l 1,35,36
 806 161 806 161 698 68.5 c 128,-1,37
 590 -24 590 -24 442 -24 c 1,38,-1
 442 -24 l 1,0,1
EndSplineSet
EndChar
StartChar: U0C6E
Encoding: 3182 3182 85
Width: 925
GlyphClass: 2
Flags: W
Fore
430 -32 m 1,0,1
 280 -32 280 -32 174 85 c 128,-1,2
 68 202 68 202 68 367 c 0,3,4
 68 522 68 522 138 646.5 c 128,-1,5
 208 771 208 771 326 826 c 1,6,-1
 360 748 l 1,7,8
 264 699 264 699 207.5 596 c 128,-1,9
 151 493 151 493 151 367 c 0,10,11
 151 237 151 237 232.5 145 c 128,-1,12
 314 53 314 53 430 53 c 0,13,14
 543 53 543 53 622.5 145 c 128,-1,15
 702 237 702 237 702 367 c 0,16,17
 702 500 702 500 644.5 602 c 128,-1,18
 587 704 587 704 493 738 c 1,19,-1
 493 819 l 1,20,-1
 857 819 l 1,21,-1
 857 738 l 1,22,-1
 700 738 l 1,23,-1
 649 745 l 1,24,-1
 644 738 l 1,25,26
 711 671 711 671 747.5 574.5 c 128,-1,27
 784 478 784 478 784 367 c 0,28,29
 784 202 784 202 680.5 85 c 128,-1,30
 577 -32 577 -32 430 -32 c 1,31,-1
 430 -32 l 1,0,1
EndSplineSet
EndChar
StartChar: U0C6F
Encoding: 3183 3183 86
Width: 925
GlyphClass: 2
Flags: W
Fore
309 -32 m 1,0,1
 216 -32 216 -32 150.5 31.5 c 128,-1,2
 85 95 85 95 85 185 c 0,3,4
 85 247 85 247 128.5 301 c 128,-1,5
 172 355 172 355 243 381 c 1,6,-1
 243 388 l 1,7,8
 173 407 173 407 129 464 c 128,-1,9
 85 521 85 521 85 593 c 0,10,11
 85 687 85 687 150.5 753 c 128,-1,12
 216 819 216 819 309 819 c 2,13,-1
 840 819 l 1,14,-1
 840 734 l 1,15,-1
 311 734 l 2,16,17
 253 734 253 734 211.5 692.5 c 128,-1,18
 170 651 170 651 170 593 c 0,19,20
 170 525 170 525 227.5 477.5 c 128,-1,21
 285 430 285 430 367 430 c 2,22,-1
 486 430 l 1,23,-1
 486 345 l 1,24,-1
 367 345 l 2,25,26
 285 345 285 345 227.5 298 c 128,-1,27
 170 251 170 251 170 185 c 0,28,29
 170 129 170 129 210.5 90 c 128,-1,30
 251 51 251 51 309 51 c 2,31,-1
 430 51 l 1,32,-1
 430 -32 l 1,33,-1
 309 -32 l 1,34,-1
 309 -32 l 1,0,1
EndSplineSet
EndChar
StartChar: afii61664
Encoding: 8204 8204 87
Width: 0
GlyphClass: 2
Flags: W
Fore
0 -518 m 1,0,-1
 0 1173 l 1,1,-1
 68 1173 l 1,2,-1
 68 -518 l 1,3,-1
 0 -518 l 1,4,-1
 0 -518 l 1,0,-1
EndSplineSet
EndChar
StartChar: afii301
Encoding: 8205 8205 88
Width: 0
GlyphClass: 2
Flags: W
Fore
0 -518 m 1,0,-1
 0 1173 l 1,1,-1
 289 1173 l 1,2,-1
 289 1105 l 1,3,-1
 68 1105 l 1,4,-1
 68 -518 l 1,5,-1
 0 -518 l 1,6,-1
 0 -518 l 1,0,-1
EndSplineSet
EndChar
StartChar: minus
Encoding: 8722 8722 89
Width: 800
GlyphClass: 2
Flags: W
Fore
100 -310 m 1,0,-1
 100 390 l 1,1,-1
 700 390 l 1,2,-1
 700 -310 l 1,3,-1
 100 -310 l 1,4,-1
 100 -310 l 1,0,-1
150 -260 m 1,5,-1
 650 -260 l 1,6,-1
 650 340 l 1,7,-1
 150 340 l 1,8,-1
 150 -260 l 1,9,-1
 150 -260 l 1,5,-1
EndSplineSet
EndChar
StartChar: uni25CC
Encoding: 9676 9676 90
Width: 1088
GlyphClass: 2
Flags: W
Fore
483 721 m 1,0,1
 483 746 483 746 501 764 c 128,-1,2
 519 782 519 782 544 782 c 256,3,4
 569 782 569 782 587 764 c 128,-1,5
 605 746 605 746 605 721 c 256,6,7
 605 696 605 696 587 678 c 128,-1,8
 569 660 569 660 544 660 c 256,9,10
 519 660 519 660 501 678 c 128,-1,11
 483 696 483 696 483 721 c 1,12,-1
 483 721 l 1,0,1
483 -75 m 1,13,14
 483 -50 483 -50 501 -32 c 128,-1,15
 519 -14 519 -14 544 -14 c 256,16,17
 569 -14 569 -14 587 -32 c 128,-1,18
 605 -50 605 -50 605 -75 c 256,19,20
 605 -100 605 -100 587 -118 c 128,-1,21
 569 -136 569 -136 544 -136 c 256,22,23
 519 -136 519 -136 501 -118 c 128,-1,24
 483 -100 483 -100 483 -75 c 1,25,-1
 483 -75 l 1,13,14
85 323 m 1,26,27
 85 348 85 348 103 366 c 128,-1,28
 121 384 121 384 146 384 c 256,29,30
 171 384 171 384 189 366 c 128,-1,31
 207 348 207 348 207 323 c 256,32,33
 207 298 207 298 189 280 c 128,-1,34
 171 262 171 262 146 262 c 256,35,36
 121 262 121 262 103 280 c 128,-1,37
 85 298 85 298 85 323 c 1,38,-1
 85 323 l 1,26,27
881 323 m 1,39,40
 881 348 881 348 899 366 c 128,-1,41
 917 384 917 384 942 384 c 256,42,43
 967 384 967 384 985 366 c 128,-1,44
 1003 348 1003 348 1003 323 c 256,45,46
 1003 298 1003 298 985 280 c 128,-1,47
 967 262 967 262 942 262 c 256,48,49
 917 262 917 262 899 280 c 128,-1,50
 881 298 881 298 881 323 c 1,51,-1
 881 323 l 1,39,40
139 124 m 1,52,53
 139 149 139 149 157 167 c 128,-1,54
 175 185 175 185 201 185 c 0,55,56
 226 185 226 185 244 167 c 128,-1,57
 262 149 262 149 262 124 c 256,58,59
 262 99 262 99 244 81 c 128,-1,60
 226 63 226 63 201 63 c 0,61,62
 175 63 175 63 157 81 c 128,-1,63
 139 99 139 99 139 124 c 1,64,-1
 139 124 l 1,52,53
828 522 m 1,65,66
 828 547 828 547 846 565 c 128,-1,67
 864 583 864 583 889 583 c 256,68,69
 914 583 914 583 932 565 c 128,-1,70
 950 547 950 547 950 522 c 256,71,72
 950 497 950 497 932 479 c 128,-1,73
 914 461 914 461 889 461 c 256,74,75
 864 461 864 461 846 479 c 128,-1,76
 828 497 828 497 828 522 c 1,77,-1
 828 522 l 1,65,66
682 668 m 1,78,79
 682 693 682 693 700 711 c 128,-1,80
 718 729 718 729 743 729 c 256,81,82
 768 729 768 729 786 711 c 128,-1,83
 804 693 804 693 804 668 c 256,84,85
 804 643 804 643 786 625 c 128,-1,86
 768 607 768 607 743 607 c 256,87,88
 718 607 718 607 700 625 c 128,-1,89
 682 643 682 643 682 668 c 1,90,-1
 682 668 l 1,78,79
284 -20 m 1,91,92
 284 5 284 5 302 23 c 128,-1,93
 320 41 320 41 345 41 c 256,94,95
 370 41 370 41 388 23 c 128,-1,96
 406 5 406 5 406 -20 c 0,97,98
 406 -46 406 -46 388 -64.5 c 128,-1,99
 370 -83 370 -83 345 -83 c 256,100,101
 320 -83 320 -83 302 -64.5 c 128,-1,102
 284 -46 284 -46 284 -20 c 1,103,-1
 284 -20 l 1,91,92
139 522 m 1,104,105
 139 547 139 547 157 565 c 128,-1,106
 175 583 175 583 201 583 c 0,107,108
 226 583 226 583 244 565 c 128,-1,109
 262 547 262 547 262 522 c 256,110,111
 262 497 262 497 244 479 c 128,-1,112
 226 461 226 461 201 461 c 0,113,114
 175 461 175 461 157 479 c 128,-1,115
 139 497 139 497 139 522 c 1,116,-1
 139 522 l 1,104,105
828 124 m 1,117,118
 828 149 828 149 846 167 c 128,-1,119
 864 185 864 185 889 185 c 256,120,121
 914 185 914 185 932 167 c 128,-1,122
 950 149 950 149 950 124 c 256,123,124
 950 99 950 99 932 81 c 128,-1,125
 914 63 914 63 889 63 c 256,126,127
 864 63 864 63 846 81 c 128,-1,128
 828 99 828 99 828 124 c 1,129,-1
 828 124 l 1,117,118
284 668 m 1,130,131
 284 693 284 693 302 711 c 128,-1,132
 320 729 320 729 345 729 c 256,133,134
 370 729 370 729 388 711 c 128,-1,135
 406 693 406 693 406 668 c 256,136,137
 406 643 406 643 388 625 c 128,-1,138
 370 607 370 607 345 607 c 256,139,140
 320 607 320 607 302 625 c 128,-1,141
 284 643 284 643 284 668 c 1,142,-1
 284 668 l 1,130,131
682 -20 m 1,143,144
 682 5 682 5 700 23 c 128,-1,145
 718 41 718 41 743 41 c 256,146,147
 768 41 768 41 786 23 c 128,-1,148
 804 5 804 5 804 -20 c 0,149,150
 804 -46 804 -46 786 -64.5 c 128,-1,151
 768 -83 768 -83 743 -83 c 256,152,153
 718 -83 718 -83 700 -64.5 c 128,-1,154
 682 -46 682 -46 682 -20 c 1,155,-1
 682 -20 l 1,143,144
EndSplineSet
EndChar
StartChar: glyph86
Encoding: 65539 -1 91
Width: 800
GlyphClass: 2
Flags: W
Fore
100 -310 m 1,0,-1
 100 390 l 1,1,-1
 700 390 l 1,2,-1
 700 -310 l 1,3,-1
 100 -310 l 1,4,-1
 100 -310 l 1,0,-1
150 -260 m 1,5,-1
 650 -260 l 1,6,-1
 650 340 l 1,7,-1
 150 340 l 1,8,-1
 150 -260 l 1,9,-1
 150 -260 l 1,5,-1
EndSplineSet
EndChar
StartChar: glyph88
Encoding: 65540 -1 92
Width: 800
GlyphClass: 2
Flags: W
Fore
100 -310 m 1,0,-1
 100 390 l 1,1,-1
 700 390 l 1,2,-1
 700 -310 l 1,3,-1
 100 -310 l 1,4,-1
 100 -310 l 1,0,-1
150 -260 m 1,5,-1
 650 -260 l 1,6,-1
 650 340 l 1,7,-1
 150 340 l 1,8,-1
 150 -260 l 1,9,-1
 150 -260 l 1,5,-1
EndSplineSet
EndChar
StartChar: glyph89
Encoding: 65541 -1 93
Width: 800
GlyphClass: 2
Flags: W
Fore
100 -310 m 1,0,-1
 100 390 l 1,1,-1
 700 390 l 1,2,-1
 700 -310 l 1,3,-1
 100 -310 l 1,4,-1
 100 -310 l 1,0,-1
150 -260 m 1,5,-1
 650 -260 l 1,6,-1
 650 340 l 1,7,-1
 150 340 l 1,8,-1
 150 -260 l 1,9,-1
 150 -260 l 1,5,-1
EndSplineSet
EndChar
StartChar: glyph91
Encoding: 65542 -1 94
Width: 800
GlyphClass: 2
Flags: W
Fore
100 -310 m 1,0,-1
 100 390 l 1,1,-1
 700 390 l 1,2,-1
 700 -310 l 1,3,-1
 100 -310 l 1,4,-1
 100 -310 l 1,0,-1
150 -260 m 1,5,-1
 650 -260 l 1,6,-1
 650 340 l 1,7,-1
 150 340 l 1,8,-1
 150 -260 l 1,9,-1
 150 -260 l 1,5,-1
EndSplineSet
EndChar
StartChar: glyph92
Encoding: 65543 -1 95
Width: 800
GlyphClass: 2
Flags: W
Fore
100 -310 m 1,0,-1
 100 390 l 1,1,-1
 700 390 l 1,2,-1
 700 -310 l 1,3,-1
 100 -310 l 1,4,-1
 100 -310 l 1,0,-1
150 -260 m 1,5,-1
 650 -260 l 1,6,-1
 650 340 l 1,7,-1
 150 340 l 1,8,-1
 150 -260 l 1,9,-1
 150 -260 l 1,5,-1
EndSplineSet
EndChar
StartChar: glyph94
Encoding: 65544 -1 96
Width: 800
GlyphClass: 2
Flags: W
Fore
100 -310 m 1,0,-1
 100 390 l 1,1,-1
 700 390 l 1,2,-1
 700 -310 l 1,3,-1
 100 -310 l 1,4,-1
 100 -310 l 1,0,-1
150 -260 m 1,5,-1
 650 -260 l 1,6,-1
 650 340 l 1,7,-1
 150 340 l 1,8,-1
 150 -260 l 1,9,-1
 150 -260 l 1,5,-1
EndSplineSet
EndChar
StartChar: glyph95
Encoding: 65545 -1 97
Width: 800
GlyphClass: 2
Flags: W
Fore
100 -310 m 1,0,-1
 100 390 l 1,1,-1
 700 390 l 1,2,-1
 700 -310 l 1,3,-1
 100 -310 l 1,4,-1
 100 -310 l 1,0,-1
150 -260 m 1,5,-1
 650 -260 l 1,6,-1
 650 340 l 1,7,-1
 150 340 l 1,8,-1
 150 -260 l 1,9,-1
 150 -260 l 1,5,-1
EndSplineSet
EndChar
StartChar: glyph96
Encoding: 65546 -1 98
Width: 800
GlyphClass: 2
Flags: W
Fore
100 -310 m 1,0,-1
 100 390 l 1,1,-1
 700 390 l 1,2,-1
 700 -310 l 1,3,-1
 100 -310 l 1,4,-1
 100 -310 l 1,0,-1
150 -260 m 1,5,-1
 650 -260 l 1,6,-1
 650 340 l 1,7,-1
 150 340 l 1,8,-1
 150 -260 l 1,9,-1
 150 -260 l 1,5,-1
EndSplineSet
EndChar
StartChar: glyph97
Encoding: 65547 -1 99
Width: 800
GlyphClass: 2
Flags: W
Fore
100 -310 m 1,0,-1
 100 390 l 1,1,-1
 700 390 l 1,2,-1
 700 -310 l 1,3,-1
 100 -310 l 1,4,-1
 100 -310 l 1,0,-1
150 -260 m 1,5,-1
 650 -260 l 1,6,-1
 650 340 l 1,7,-1
 150 340 l 1,8,-1
 150 -260 l 1,9,-1
 150 -260 l 1,5,-1
EndSplineSet
EndChar
StartChar: glyph98
Encoding: 65548 -1 100
Width: 800
GlyphClass: 2
Flags: W
Fore
100 -310 m 1,0,-1
 100 390 l 1,1,-1
 700 390 l 1,2,-1
 700 -310 l 1,3,-1
 100 -310 l 1,4,-1
 100 -310 l 1,0,-1
150 -260 m 1,5,-1
 650 -260 l 1,6,-1
 650 340 l 1,7,-1
 150 340 l 1,8,-1
 150 -260 l 1,9,-1
 150 -260 l 1,5,-1
EndSplineSet
EndChar
StartChar: glyph99
Encoding: 65549 -1 101
Width: 800
GlyphClass: 2
Flags: W
Fore
100 -310 m 1,0,-1
 100 390 l 1,1,-1
 700 390 l 1,2,-1
 700 -310 l 1,3,-1
 100 -310 l 1,4,-1
 100 -310 l 1,0,-1
150 -260 m 1,5,-1
 650 -260 l 1,6,-1
 650 340 l 1,7,-1
 150 340 l 1,8,-1
 150 -260 l 1,9,-1
 150 -260 l 1,5,-1
EndSplineSet
EndChar
StartChar: glyph100
Encoding: 65550 -1 102
Width: 800
GlyphClass: 2
Flags: W
Fore
100 -310 m 1,0,-1
 100 390 l 1,1,-1
 700 390 l 1,2,-1
 700 -310 l 1,3,-1
 100 -310 l 1,4,-1
 100 -310 l 1,0,-1
150 -260 m 1,5,-1
 650 -260 l 1,6,-1
 650 340 l 1,7,-1
 150 340 l 1,8,-1
 150 -260 l 1,9,-1
 150 -260 l 1,5,-1
EndSplineSet
EndChar
StartChar: glyph101
Encoding: 65551 -1 103
Width: 800
GlyphClass: 2
Flags: W
Fore
100 -310 m 1,0,-1
 100 390 l 1,1,-1
 700 390 l 1,2,-1
 700 -310 l 1,3,-1
 100 -310 l 1,4,-1
 100 -310 l 1,0,-1
150 -260 m 1,5,-1
 650 -260 l 1,6,-1
 650 340 l 1,7,-1
 150 340 l 1,8,-1
 150 -260 l 1,9,-1
 150 -260 l 1,5,-1
EndSplineSet
EndChar
StartChar: U0C15_U0C3E.abvs
Encoding: 65552 -1 104
Width: 1001
GlyphClass: 2
Flags: W
Fore
155 442 m 1,0,1
 155 405 155 405 202.5 378.5 c 128,-1,2
 250 352 250 352 318 352 c 0,3,4
 420 352 420 352 492 301.5 c 128,-1,5
 564 251 564 251 564 180 c 0,6,7
 564 105 564 105 489.5 52.5 c 128,-1,8
 415 0 415 0 309 0 c 0,9,10
 225 0 225 0 150.5 34 c 128,-1,11
 76 68 76 68 25 129 c 1,12,-1
 82 185 l 1,13,14
 123 136 123 136 182.5 109 c 128,-1,15
 242 82 242 82 309 82 c 0,16,17
 381 82 381 82 432 110.5 c 128,-1,18
 483 139 483 139 483 180 c 0,19,20
 483 224 483 224 427.5 255 c 128,-1,21
 372 286 372 286 294 286 c 0,22,23
 202 286 202 286 137.5 331.5 c 128,-1,24
 73 377 73 377 73 442 c 0,25,26
 73 469 73 469 87 496 c 128,-1,27
 101 523 101 523 126 544 c 1,28,-1
 24 544 l 1,29,-1
 24 626 l 1,30,-1
 794 626 l 2,31,32
 869 626 869 626 921.5 578 c 128,-1,33
 974 530 974 530 974 462 c 0,34,35
 974 401 974 401 931 357.5 c 128,-1,36
 888 314 888 314 828 314 c 0,37,38
 767 314 767 314 723.5 357.5 c 128,-1,39
 680 401 680 401 680 462 c 0,40,41
 680 487 680 487 686.5 508.5 c 128,-1,42
 693 530 693 530 705 544 c 1,43,-1
 702 552 l 1,44,-1
 637 544 l 1,45,-1
 505 544 l 1,46,47
 512 543 512 543 520.5 538 c 128,-1,48
 529 533 529 533 539 525 c 1,49,-1
 500 452 l 1,50,51
 458 487 458 487 407.5 505.5 c 128,-1,52
 357 524 357 524 303 524 c 0,53,54
 242 524 242 524 198.5 500 c 128,-1,55
 155 476 155 476 155 442 c 1,56,-1
 155 442 l 1,0,1
746 462 m 1,57,58
 746 428 746 428 770 404.5 c 128,-1,59
 794 381 794 381 828 381 c 256,60,61
 862 381 862 381 885.5 404.5 c 128,-1,62
 909 428 909 428 909 462 c 256,63,64
 909 496 909 496 885.5 520 c 128,-1,65
 862 544 862 544 828 544 c 256,66,67
 794 544 794 544 770 520 c 128,-1,68
 746 496 746 496 746 462 c 1,69,-1
 746 462 l 1,57,58
EndSplineSet
Ligature: 0 0 'abvs' U0C15 U0C3E
EndChar
StartChar: U0C16_U0C3E.abvs
Encoding: 65553 -1 105
Width: 1209
GlyphClass: 2
Flags: W
Fore
167 457 m 1,0,1
 167 423 167 423 190.5 399.5 c 128,-1,2
 214 376 214 376 248 376 c 256,3,4
 282 376 282 376 306 399.5 c 128,-1,5
 330 423 330 423 330 457 c 256,6,7
 330 491 330 491 306 515 c 128,-1,8
 282 539 282 539 248 539 c 256,9,10
 214 539 214 539 190.5 515 c 128,-1,11
 167 491 167 491 167 457 c 1,12,-1
 167 457 l 1,0,1
105 131 m 1,13,14
 105 111 105 111 134.5 96.5 c 128,-1,15
 164 82 164 82 206 82 c 0,16,17
 250 82 250 82 283.5 90 c 128,-1,18
 317 98 317 98 335 114 c 1,19,-1
 335 119 l 1,20,21
 299 150 299 150 261 166 c 128,-1,22
 223 182 223 182 189 182 c 0,23,24
 154 182 154 182 129.5 167 c 128,-1,25
 105 152 105 152 105 131 c 1,26,-1
 105 131 l 1,13,14
575 0 m 1,27,28
 538 0 538 0 503 12.5 c 128,-1,29
 468 25 468 25 440 49 c 1,30,-1
 433 46 l 1,31,-1
 461 -82 l 1,32,-1
 461 -148 l 1,33,-1
 362 -148 l 1,34,-1
 362 -82 l 1,35,-1
 388 48 l 1,36,-1
 382 51 l 1,37,38
 353 26 353 26 307.5 13 c 128,-1,39
 262 0 262 0 206 0 c 0,40,41
 131 0 131 0 77.5 38.5 c 128,-1,42
 24 77 24 77 24 131 c 0,43,44
 24 186 24 186 72.5 224.5 c 128,-1,45
 121 263 121 263 189 263 c 0,46,47
 245 263 245 263 297.5 237.5 c 128,-1,48
 350 212 350 212 389 165 c 1,49,-1
 396 165 l 1,50,51
 412 192 412 192 420 225 c 128,-1,52
 428 258 428 258 428 294 c 0,53,54
 428 327 428 327 419.5 362 c 128,-1,55
 411 397 411 397 394 433 c 1,56,57
 385 380 385 380 343.5 345.5 c 128,-1,58
 302 311 302 311 248 311 c 0,59,60
 187 311 187 311 143.5 354 c 128,-1,61
 100 397 100 397 100 457 c 0,62,63
 100 518 100 518 143.5 561.5 c 128,-1,64
 187 605 187 605 248 605 c 0,65,66
 357 605 357 605 433.5 516.5 c 128,-1,67
 510 428 510 428 510 303 c 0,68,69
 510 255 510 255 494.5 208 c 128,-1,70
 479 161 479 161 450 119 c 1,71,-1
 450 114 l 1,72,73
 468 98 468 98 500.5 90 c 128,-1,74
 533 82 533 82 575 82 c 0,75,76
 650 82 650 82 703 149 c 128,-1,77
 756 216 756 216 756 311 c 0,78,79
 756 408 756 408 696 476 c 128,-1,80
 636 544 636 544 551 544 c 2,81,-1
 491 544 l 1,82,-1
 491 617 l 1,83,-1
 1001 617 l 2,84,85
 1076 617 1076 617 1128.5 571.5 c 128,-1,86
 1181 526 1181 526 1181 462 c 0,87,88
 1181 401 1181 401 1138 357.5 c 128,-1,89
 1095 314 1095 314 1034 314 c 256,90,91
 973 314 973 314 930 357.5 c 128,-1,92
 887 401 887 401 887 462 c 0,93,94
 887 491 887 491 896 513 c 128,-1,95
 905 535 905 535 920 544 c 1,96,-1
 916 549 l 1,97,-1
 864 544 l 1,98,-1
 733 544 l 1,99,100
 783 501 783 501 810.5 440 c 128,-1,101
 838 379 838 379 838 311 c 0,102,103
 838 182 838 182 761 91 c 128,-1,104
 684 0 684 0 575 0 c 1,105,-1
 575 0 l 1,27,28
952 462 m 1,106,107
 952 428 952 428 976 404.5 c 128,-1,108
 1000 381 1000 381 1034 381 c 256,109,110
 1068 381 1068 381 1091.5 404.5 c 128,-1,111
 1115 428 1115 428 1115 462 c 256,112,113
 1115 496 1115 496 1091.5 520 c 128,-1,114
 1068 544 1068 544 1034 544 c 256,115,116
 1000 544 1000 544 976 520 c 128,-1,117
 952 496 952 496 952 462 c 1,118,-1
 952 462 l 1,106,107
EndSplineSet
Ligature: 0 0 'abvs' U0C16 U0C3E
EndChar
StartChar: U0C17_U0C3E.abvs
Encoding: 65554 -1 106
Width: 1054
GlyphClass: 2
Flags: W
Fore
51 0 m 1,0,1
 51 182 51 182 90 322.5 c 128,-1,2
 129 463 129 463 202 544 c 1,3,-1
 51 544 l 1,4,-1
 51 626 l 1,5,-1
 847 626 l 2,6,7
 922 626 922 626 974.5 578 c 128,-1,8
 1027 530 1027 530 1027 462 c 0,9,10
 1027 401 1027 401 984 357.5 c 128,-1,11
 941 314 941 314 881 314 c 0,12,13
 820 314 820 314 776.5 357.5 c 128,-1,14
 733 401 733 401 733 462 c 0,15,16
 733 487 733 487 739.5 508.5 c 128,-1,17
 746 530 746 530 758 544 c 1,18,-1
 755 552 l 1,19,-1
 690 544 l 1,20,-1
 459 544 l 1,21,22
 532 461 532 461 570.5 320.5 c 128,-1,23
 609 180 609 180 609 0 c 1,24,-1
 527 0 l 1,25,26
 527 217 527 217 469.5 370.5 c 128,-1,27
 412 524 412 524 330 524 c 256,28,29
 248 524 248 524 190.5 370.5 c 128,-1,30
 133 217 133 217 133 0 c 1,31,-1
 51 0 l 1,32,-1
 51 0 l 1,0,1
799 462 m 1,33,34
 799 428 799 428 823 404.5 c 128,-1,35
 847 381 847 381 881 381 c 256,36,37
 915 381 915 381 938.5 404.5 c 128,-1,38
 962 428 962 428 962 462 c 256,39,40
 962 496 962 496 938.5 520 c 128,-1,41
 915 544 915 544 881 544 c 256,42,43
 847 544 847 544 823 520 c 128,-1,44
 799 496 799 496 799 462 c 1,45,-1
 799 462 l 1,33,34
EndSplineSet
Ligature: 0 0 'abvs' U0C17 U0C3E
EndChar
StartChar: U0C18_U0C3E.abvs
Encoding: 65555 -1 107
Width: 1640
GlyphClass: 2
Flags: W
Fore
95 148 m 1,0,1
 95 114 95 114 119 89.5 c 128,-1,2
 143 65 143 65 177 65 c 256,3,4
 211 65 211 65 234.5 89.5 c 128,-1,5
 258 114 258 114 258 148 c 256,6,7
 258 182 258 182 234.5 205.5 c 128,-1,8
 211 229 211 229 177 229 c 256,9,10
 143 229 143 229 119 205.5 c 128,-1,11
 95 182 95 182 95 148 c 1,12,-1
 95 148 l 1,0,1
462 82 m 1,13,14
 520 82 520 82 561 147 c 128,-1,15
 602 212 602 212 602 304 c 0,16,17
 602 405 602 405 538.5 477 c 128,-1,18
 475 549 475 549 386 549 c 1,19,-1
 405 620 l 1,20,21
 517 620 517 620 596 527.5 c 128,-1,22
 675 435 675 435 675 304 c 0,23,24
 675 290 675 290 673 274 c 128,-1,25
 671 258 671 258 668 240 c 1,26,27
 700 168 700 168 758 125 c 128,-1,28
 816 82 816 82 881 82 c 0,29,30
 956 82 956 82 1008.5 144 c 128,-1,31
 1061 206 1061 206 1061 294 c 0,32,33
 1061 405 1061 405 1003.5 484 c 128,-1,34
 946 563 946 563 865 563 c 1,35,-1
 865 637 l 1,36,-1
 1433 637 l 2,37,38
 1508 637 1508 637 1560.5 589.5 c 128,-1,39
 1613 542 1613 542 1613 474 c 0,40,41
 1613 413 1613 413 1569.5 369.5 c 128,-1,42
 1526 326 1526 326 1465 326 c 256,43,44
 1404 326 1404 326 1360.5 369.5 c 128,-1,45
 1317 413 1317 413 1317 474 c 0,46,47
 1317 494 1317 494 1326 515 c 128,-1,48
 1335 536 1335 536 1351 556 c 1,49,-1
 1348 561 l 1,50,-1
 1292 556 l 1,51,-1
 1079 556 l 1,52,-1
 1037 561 l 1,53,-1
 1034 556 l 1,54,55
 1082 508 1082 508 1108 440 c 128,-1,56
 1134 372 1134 372 1134 294 c 0,57,58
 1134 172 1134 172 1060 86 c 128,-1,59
 986 0 986 0 881 0 c 0,60,61
 810 0 810 0 747.5 42 c 128,-1,62
 685 84 685 84 648 156 c 1,63,64
 619 85 619 85 566 42.5 c 128,-1,65
 513 0 513 0 454 0 c 0,66,67
 421 0 421 0 390 13.5 c 128,-1,68
 359 27 359 27 335 51 c 1,69,-1
 330 44 l 1,70,-1
 362 -131 l 1,71,-1
 362 -197 l 1,72,-1
 263 -197 l 1,73,-1
 263 -131 l 1,74,-1
 296 42 l 1,75,-1
 289 49 l 1,76,77
 269 26 269 26 240 13 c 128,-1,78
 211 0 211 0 177 0 c 0,79,80
 116 0 116 0 72.5 43.5 c 128,-1,81
 29 87 29 87 29 148 c 0,82,83
 29 208 29 208 72.5 251 c 128,-1,84
 116 294 116 294 177 294 c 0,85,86
 235 294 235 294 279 259.5 c 128,-1,87
 323 225 323 225 331 172 c 0,88,89
 337 133 337 133 374.5 107.5 c 128,-1,90
 412 82 412 82 462 82 c 1,91,-1
 462 82 l 1,13,14
14 792 m 1,92,-1
 76 792 l 1,93,94
 76 731 76 731 105.5 687.5 c 128,-1,95
 135 644 135 644 177 644 c 0,96,97
 198 644 198 644 220.5 652 c 128,-1,98
 243 660 243 660 265 675 c 2,99,-1
 534 857 l 1,100,-1
 573 802 l 1,101,-1
 299 615 l 2,102,103
 268 594 268 594 237 582.5 c 128,-1,104
 206 571 206 571 177 571 c 0,105,106
 109 571 109 571 61.5 635.5 c 128,-1,107
 14 700 14 700 14 792 c 1,108,-1
 14 792 l 1,92,-1
1384 474 m 1,109,110
 1384 440 1384 440 1407.5 416.5 c 128,-1,111
 1431 393 1431 393 1465 393 c 256,112,113
 1499 393 1499 393 1523 416.5 c 128,-1,114
 1547 440 1547 440 1547 474 c 256,115,116
 1547 508 1547 508 1523 532 c 128,-1,117
 1499 556 1499 556 1465 556 c 256,118,119
 1431 556 1431 556 1407.5 532 c 128,-1,120
 1384 508 1384 508 1384 474 c 1,121,-1
 1384 474 l 1,109,110
EndSplineSet
Ligature: 0 0 'abvs' U0C18 U0C3E
EndChar
StartChar: U0C19_U0C3E.abvs
Encoding: 65556 -1 108
Width: 1163
GlyphClass: 2
Flags: W
Fore
54 180 m 1,0,1
 54 236 54 236 96 285 c 128,-1,2
 138 334 138 334 206 359 c 0,3,4
 256 377 256 377 286 404 c 128,-1,5
 316 431 316 431 316 457 c 0,6,7
 316 485 316 485 289.5 504.5 c 128,-1,8
 263 524 263 524 226 524 c 256,9,10
 189 524 189 524 162.5 504.5 c 128,-1,11
 136 485 136 485 136 457 c 0,12,13
 136 447 136 447 143 435 c 128,-1,14
 150 423 150 423 163 410 c 1,15,-1
 95 376 l 1,16,17
 75 400 75 400 64.5 420.5 c 128,-1,18
 54 441 54 441 54 457 c 0,19,20
 54 518 54 518 105 561.5 c 128,-1,21
 156 605 156 605 228 605 c 0,22,23
 290 605 290 605 336 572.5 c 128,-1,24
 382 540 382 540 391 490 c 1,25,-1
 546 490 l 1,26,-1
 546 544 l 1,27,-1
 445 544 l 1,28,-1
 445 617 l 1,29,-1
 955 617 l 2,30,31
 1030 617 1030 617 1083 571.5 c 128,-1,32
 1136 526 1136 526 1136 462 c 0,33,34
 1136 401 1136 401 1092.5 357.5 c 128,-1,35
 1049 314 1049 314 988 314 c 256,36,37
 927 314 927 314 884 357.5 c 128,-1,38
 841 401 841 401 841 462 c 0,39,40
 841 491 841 491 850 513 c 128,-1,41
 859 535 859 535 874 544 c 1,42,-1
 870 549 l 1,43,-1
 818 544 l 1,44,-1
 610 544 l 1,45,-1
 610 490 l 1,46,-1
 709 490 l 1,47,-1
 709 425 l 1,48,-1
 393 425 l 1,49,50
 386 386 386 386 349.5 351 c 128,-1,51
 313 316 313 316 257 296 c 0,52,53
 203 276 203 276 169.5 244 c 128,-1,54
 136 212 136 212 136 180 c 0,55,56
 136 139 136 139 165 110.5 c 128,-1,57
 194 82 194 82 235 82 c 0,58,59
 291 82 291 82 330 120 c 128,-1,60
 369 158 369 158 369 211 c 1,61,-1
 428 211 l 1,62,63
 428 158 428 158 467 120 c 128,-1,64
 506 82 506 82 561 82 c 0,65,66
 602 82 602 82 631 110.5 c 128,-1,67
 660 139 660 139 660 180 c 0,68,69
 660 190 660 190 654.5 209.5 c 128,-1,70
 649 229 649 229 637 262 c 1,71,-1
 719 262 l 1,72,73
 729 245 729 245 734 224 c 128,-1,74
 739 203 739 203 739 180 c 0,75,76
 739 105 739 105 687 52.5 c 128,-1,77
 635 0 635 0 561 0 c 0,78,79
 510 0 510 0 467 23 c 128,-1,80
 424 46 424 46 401 85 c 1,81,-1
 396 82 l 1,82,83
 374 44 374 44 331 22 c 128,-1,84
 288 0 288 0 235 0 c 0,85,86
 160 0 160 0 107 52.5 c 128,-1,87
 54 105 54 105 54 180 c 1,88,-1
 54 180 l 1,0,1
906 462 m 1,89,90
 906 428 906 428 930 404.5 c 128,-1,91
 954 381 954 381 988 381 c 256,92,93
 1022 381 1022 381 1045.5 404.5 c 128,-1,94
 1069 428 1069 428 1069 462 c 256,95,96
 1069 496 1069 496 1045.5 520 c 128,-1,97
 1022 544 1022 544 988 544 c 256,98,99
 954 544 954 544 930 520 c 128,-1,100
 906 496 906 496 906 462 c 1,101,-1
 906 462 l 1,89,90
EndSplineSet
Ligature: 0 0 'abvs' U0C19 U0C3E
EndChar
StartChar: U0C1A_U0C3E.abvs
Encoding: 65557 -1 109
Width: 1170
GlyphClass: 2
Flags: W
Fore
535 0 m 1,0,1
 495 0 495 0 462.5 20.5 c 128,-1,2
 430 41 430 41 418 75 c 1,3,-1
 411 73 l 1,4,5
 399 40 399 40 366 20 c 128,-1,6
 333 0 333 0 291 0 c 0,7,8
 223 0 223 0 175 47.5 c 128,-1,9
 127 95 127 95 127 163 c 0,10,11
 127 183 127 183 133.5 202 c 128,-1,12
 140 221 140 221 153 236 c 1,13,-1
 144 245 l 1,14,-1
 12 245 l 1,15,-1
 12 326 l 1,16,-1
 274 326 l 1,17,-1
 274 270 l 1,18,19
 245 259 245 259 227 230 c 128,-1,20
 209 201 209 201 209 163 c 0,21,22
 209 129 209 129 233 105.5 c 128,-1,23
 257 82 257 82 291 82 c 256,24,25
 325 82 325 82 348.5 105.5 c 128,-1,26
 372 129 372 129 372 163 c 2,27,-1
 372 212 l 1,28,-1
 454 212 l 1,29,-1
 454 163 l 2,30,31
 454 129 454 129 477.5 105.5 c 128,-1,32
 501 82 501 82 535 82 c 0,33,34
 593 82 593 82 634 142 c 128,-1,35
 675 202 675 202 675 287 c 0,36,37
 675 385 675 385 609 458.5 c 128,-1,38
 543 532 543 532 445 544 c 2,39,-1
 133 544 l 1,40,-1
 133 626 l 1,41,-1
 962 626 l 2,42,43
 1037 626 1037 626 1089.5 578 c 128,-1,44
 1142 530 1142 530 1142 462 c 0,45,46
 1142 401 1142 401 1099 357.5 c 128,-1,47
 1056 314 1056 314 996 314 c 0,48,49
 935 314 935 314 891.5 357.5 c 128,-1,50
 848 401 848 401 848 462 c 0,51,52
 848 487 848 487 854.5 508 c 128,-1,53
 861 529 861 529 874 544 c 1,54,-1
 870 552 l 1,55,-1
 806 544 l 1,56,-1
 626 544 l 1,57,58
 687 498 687 498 721.5 430 c 128,-1,59
 756 362 756 362 756 287 c 0,60,61
 756 168 756 168 691.5 84 c 128,-1,62
 627 0 627 0 535 0 c 1,63,-1
 535 0 l 1,0,1
915 462 m 1,64,65
 915 428 915 428 938.5 404.5 c 128,-1,66
 962 381 962 381 996 381 c 256,67,68
 1030 381 1030 381 1054 404.5 c 128,-1,69
 1078 428 1078 428 1078 462 c 256,70,71
 1078 496 1078 496 1054 520 c 128,-1,72
 1030 544 1030 544 996 544 c 256,73,74
 962 544 962 544 938.5 520 c 128,-1,75
 915 496 915 496 915 462 c 1,76,-1
 915 462 l 1,64,65
EndSplineSet
Ligature: 0 0 'abvs' U0C1A U0C3E
EndChar
StartChar: U0C1B_U0C3E.abvs
Encoding: 65558 -1 110
Width: 1188
GlyphClass: 2
Flags: W
Fore
537 0 m 1,0,1
 509 0 509 0 483 12 c 128,-1,2
 457 24 457 24 437 46 c 1,3,-1
 432 42 l 1,4,-1
 461 -158 l 1,5,-1
 461 -231 l 1,6,-1
 360 -231 l 1,7,-1
 360 -165 l 1,8,-1
 386 42 l 1,9,-1
 381 44 l 1,10,11
 364 23 364 23 340.5 11.5 c 128,-1,12
 317 0 317 0 292 0 c 0,13,14
 224 0 224 0 176.5 47.5 c 128,-1,15
 129 95 129 95 129 163 c 0,16,17
 129 184 129 184 136.5 204 c 128,-1,18
 144 224 144 224 158 241 c 1,19,-1
 155 248 l 1,20,-1
 119 245 l 1,21,-1
 14 245 l 1,22,-1
 14 326 l 1,23,-1
 275 326 l 1,24,-1
 275 270 l 1,25,26
 246 260 246 260 228.5 230.5 c 128,-1,27
 211 201 211 201 211 163 c 0,28,29
 211 129 211 129 234.5 105.5 c 128,-1,30
 258 82 258 82 292 82 c 256,31,32
 326 82 326 82 350 105.5 c 128,-1,33
 374 129 374 129 374 163 c 2,34,-1
 374 212 l 1,35,-1
 456 212 l 1,36,-1
 456 163 l 2,37,38
 456 129 456 129 482.5 105.5 c 128,-1,39
 509 82 509 82 546 82 c 0,40,41
 600 82 600 82 638.5 142 c 128,-1,42
 677 202 677 202 677 287 c 0,43,44
 677 385 677 385 613 458.5 c 128,-1,45
 549 532 549 532 454 544 c 2,46,-1
 66 544 l 1,47,-1
 66 626 l 1,48,-1
 981 626 l 2,49,50
 1056 626 1056 626 1108.5 578 c 128,-1,51
 1161 530 1161 530 1161 462 c 0,52,53
 1161 401 1161 401 1118 357.5 c 128,-1,54
 1075 314 1075 314 1015 314 c 0,55,56
 954 314 954 314 910.5 357.5 c 128,-1,57
 867 401 867 401 867 462 c 0,58,59
 867 487 867 487 873.5 508.5 c 128,-1,60
 880 530 880 530 892 544 c 1,61,-1
 889 552 l 1,62,-1
 824 544 l 1,63,-1
 631 544 l 1,64,65
 691 497 691 497 724.5 429.5 c 128,-1,66
 758 362 758 362 758 287 c 0,67,68
 758 168 758 168 693.5 84 c 128,-1,69
 629 0 629 0 537 0 c 1,70,-1
 537 0 l 1,0,1
933 462 m 1,71,72
 933 428 933 428 957 404.5 c 128,-1,73
 981 381 981 381 1015 381 c 256,74,75
 1049 381 1049 381 1072.5 404.5 c 128,-1,76
 1096 428 1096 428 1096 462 c 256,77,78
 1096 496 1096 496 1072.5 520 c 128,-1,79
 1049 544 1049 544 1015 544 c 256,80,81
 981 544 981 544 957 520 c 128,-1,82
 933 496 933 496 933 462 c 1,83,-1
 933 462 l 1,71,72
EndSplineSet
Ligature: 0 0 'abvs' U0C1B U0C3E
EndChar
StartChar: U0C1C_U0C3E.abvs
Encoding: 65559 -1 111
Width: 1164
GlyphClass: 2
Flags: W
Fore
56 180 m 1,0,1
 56 235 56 235 95.5 283 c 128,-1,2
 135 331 135 331 199 354 c 0,3,4
 253 374 253 374 285.5 402 c 128,-1,5
 318 430 318 430 318 457 c 0,6,7
 318 485 318 485 291.5 504.5 c 128,-1,8
 265 524 265 524 228 524 c 256,9,10
 191 524 191 524 164.5 504.5 c 128,-1,11
 138 485 138 485 138 457 c 0,12,13
 138 441 138 441 145 424 c 128,-1,14
 152 407 152 407 165 393 c 1,15,-1
 95 367 l 1,16,17
 76 386 76 386 66 409.5 c 128,-1,18
 56 433 56 433 56 457 c 0,19,20
 56 518 56 518 104.5 561.5 c 128,-1,21
 153 605 153 605 221 605 c 0,22,23
 279 605 279 605 323.5 581 c 128,-1,24
 368 557 368 557 382 518 c 1,25,26
 432 459 432 459 492.5 426 c 128,-1,27
 553 393 553 393 612 393 c 0,28,29
 635 393 635 393 651.5 415.5 c 128,-1,30
 668 438 668 438 668 469 c 0,31,32
 668 495 668 495 654 516 c 128,-1,33
 640 537 640 537 617 544 c 1,34,-1
 447 544 l 1,35,-1
 447 617 l 1,36,-1
 957 617 l 2,37,38
 1032 617 1032 617 1084.5 571.5 c 128,-1,39
 1137 526 1137 526 1137 462 c 0,40,41
 1137 401 1137 401 1093.5 357.5 c 128,-1,42
 1050 314 1050 314 989 314 c 0,43,44
 929 314 929 314 886 357.5 c 128,-1,45
 843 401 843 401 843 462 c 0,46,47
 843 491 843 491 851.5 513 c 128,-1,48
 860 535 860 535 875 544 c 1,49,-1
 872 549 l 1,50,-1
 819 544 l 1,51,-1
 738 544 l 1,52,53
 748 527 748 527 753 508 c 128,-1,54
 758 489 758 489 758 469 c 0,55,56
 758 404 758 404 715 357.5 c 128,-1,57
 672 311 672 311 612 311 c 0,58,59
 555 311 555 311 497.5 341.5 c 128,-1,60
 440 372 440 372 394 427 c 1,61,-1
 388 427 l 1,62,63
 381 386 381 386 346 350.5 c 128,-1,64
 311 315 311 315 257 296 c 0,65,66
 203 276 203 276 170.5 244.5 c 128,-1,67
 138 213 138 213 138 180 c 0,68,69
 138 139 138 139 166.5 110.5 c 128,-1,70
 195 82 195 82 236 82 c 0,71,72
 292 82 292 82 331.5 129.5 c 128,-1,73
 371 177 371 177 371 245 c 1,74,-1
 430 245 l 1,75,76
 430 177 430 177 469 129.5 c 128,-1,77
 508 82 508 82 563 82 c 0,78,79
 604 82 604 82 632.5 110.5 c 128,-1,80
 661 139 661 139 661 180 c 0,81,82
 661 206 661 206 654.5 231 c 128,-1,83
 648 256 648 256 636 277 c 1,84,-1
 722 277 l 1,85,86
 732 248 732 248 737.5 224 c 128,-1,87
 743 200 743 200 743 180 c 0,88,89
 743 105 743 105 690.5 52.5 c 128,-1,90
 638 0 638 0 563 0 c 0,91,92
 513 0 513 0 471 23.5 c 128,-1,93
 429 47 429 47 405 88 c 1,94,-1
 394 87 l 1,95,96
 371 47 371 47 328.5 23.5 c 128,-1,97
 286 0 286 0 236 0 c 0,98,99
 161 0 161 0 108.5 52.5 c 128,-1,100
 56 105 56 105 56 180 c 1,101,-1
 56 180 l 1,0,1
908 462 m 1,102,103
 908 428 908 428 931.5 404.5 c 128,-1,104
 955 381 955 381 989 381 c 256,105,106
 1023 381 1023 381 1047 404.5 c 128,-1,107
 1071 428 1071 428 1071 462 c 256,108,109
 1071 496 1071 496 1047 520 c 128,-1,110
 1023 544 1023 544 989 544 c 256,111,112
 955 544 955 544 931.5 520 c 128,-1,113
 908 496 908 496 908 462 c 1,114,-1
 908 462 l 1,102,103
EndSplineSet
Ligature: 0 0 'abvs' U0C1C U0C3E
EndChar
StartChar: U0C1D_U0C3E.abvs
Encoding: 65560 -1 112
Width: 2054
GlyphClass: 4
Flags: W
Fore
124 303 m 1,0,1
 124 211 124 211 186.5 146.5 c 128,-1,2
 249 82 249 82 337 82 c 256,3,4
 425 82 425 82 487 146.5 c 128,-1,5
 549 211 549 211 549 303 c 256,6,7
 549 395 549 395 487 459.5 c 128,-1,8
 425 524 425 524 337 524 c 256,9,10
 249 524 249 524 186.5 459.5 c 128,-1,11
 124 395 124 395 124 303 c 1,12,-1
 124 303 l 1,0,1
42 303 m 1,13,14
 42 395 42 395 97.5 471 c 128,-1,15
 153 547 153 547 243 578 c 1,16,17
 205 609 205 609 184 658.5 c 128,-1,18
 163 708 163 708 163 767 c 1,19,-1
 226 767 l 1,20,21
 226 706 226 706 255.5 662.5 c 128,-1,22
 285 619 285 619 326 619 c 0,23,24
 349 619 349 619 371.5 626.5 c 128,-1,25
 394 634 394 634 415 649 c 2,26,-1
 683 831 l 1,27,-1
 722 777 l 1,28,-1
 430 578 l 1,29,30
 521 547 521 547 576.5 468.5 c 128,-1,31
 632 390 632 390 632 294 c 0,32,33
 632 280 632 280 631 268.5 c 128,-1,34
 630 257 630 257 629 248 c 1,35,36
 659 173 659 173 714 127.5 c 128,-1,37
 769 82 769 82 830 82 c 0,38,39
 901 82 901 82 951 146.5 c 128,-1,40
 1001 211 1001 211 1001 303 c 256,41,42
 1001 395 1001 395 947.5 460 c 128,-1,43
 894 525 894 525 818 525 c 1,44,-1
 828 603 l 1,45,46
 934 603 934 603 1008.5 515.5 c 128,-1,47
 1083 428 1083 428 1083 304 c 2,48,-1
 1079 262 l 1,49,50
 1112 180 1112 180 1171 131 c 128,-1,51
 1230 82 1230 82 1294 82 c 0,52,53
 1369 82 1369 82 1421.5 152 c 128,-1,54
 1474 222 1474 222 1474 321 c 0,55,56
 1474 421 1474 421 1416.5 492 c 128,-1,57
 1359 563 1359 563 1278 563 c 1,58,-1
 1278 637 l 1,59,-1
 1846 637 l 2,60,61
 1921 637 1921 637 1973.5 589.5 c 128,-1,62
 2026 542 2026 542 2026 474 c 0,63,64
 2026 413 2026 413 1982.5 369.5 c 128,-1,65
 1939 326 1939 326 1878 326 c 256,66,67
 1817 326 1817 326 1774 369.5 c 128,-1,68
 1731 413 1731 413 1731 474 c 0,69,70
 1731 494 1731 494 1740 515 c 128,-1,71
 1749 536 1749 536 1765 556 c 1,72,-1
 1761 561 l 1,73,-1
 1705 556 l 1,74,-1
 1493 556 l 1,75,-1
 1450 561 l 1,76,-1
 1447 556 l 1,77,78
 1494 523 1494 523 1520.5 460.5 c 128,-1,79
 1547 398 1547 398 1547 320 c 0,80,81
 1547 187 1547 187 1473 93.5 c 128,-1,82
 1399 0 1399 0 1294 0 c 0,83,84
 1212 0 1212 0 1148 50.5 c 128,-1,85
 1084 101 1084 101 1066 180 c 1,86,-1
 1057 158 l 1,87,-1
 1091 -97 l 1,88,-1
 1091 -163 l 1,89,-1
 993 -163 l 1,90,-1
 993 -97 l 1,91,-1
 1022 107 l 1,92,-1
 1017 107 l 1,93,94
 988 57 988 57 938 28.5 c 128,-1,95
 888 0 888 0 830 0 c 0,96,97
 754 0 754 0 692.5 48.5 c 128,-1,98
 631 97 631 97 607 175 c 1,99,100
 571 95 571 95 498 47.5 c 128,-1,101
 425 0 425 0 337 0 c 0,102,103
 215 0 215 0 128.5 88.5 c 128,-1,104
 42 177 42 177 42 303 c 1,105,-1
 42 303 l 1,13,14
1797 474 m 1,106,107
 1797 440 1797 440 1820.5 416.5 c 128,-1,108
 1844 393 1844 393 1878 393 c 256,109,110
 1912 393 1912 393 1936 416.5 c 128,-1,111
 1960 440 1960 440 1960 474 c 256,112,113
 1960 508 1960 508 1936 532 c 128,-1,114
 1912 556 1912 556 1878 556 c 256,115,116
 1844 556 1844 556 1820.5 532 c 128,-1,117
 1797 508 1797 508 1797 474 c 1,118,-1
 1797 474 l 1,106,107
EndSplineSet
Ligature: 0 0 'abvs' U0C1D U0C3E
EndChar
StartChar: U0C1E_U0C3E.abvs
Encoding: 65561 -1 113
Width: 1426
GlyphClass: 2
Flags: W
Fore
19 393 m 1,0,1
 19 481 19 481 77.5 543 c 128,-1,2
 136 605 136 605 218 605 c 0,3,4
 256 605 256 605 291.5 581.5 c 128,-1,5
 327 558 327 558 350 518 c 1,6,-1
 357 518 l 1,7,8
 380 558 380 558 417 581.5 c 128,-1,9
 454 605 454 605 495 605 c 0,10,11
 556 605 556 605 608.5 574 c 128,-1,12
 661 543 661 543 692 490 c 1,13,-1
 838 490 l 1,14,-1
 838 544 l 1,15,-1
 709 544 l 1,16,-1
 709 617 l 1,17,-1
 1219 617 l 2,18,19
 1294 617 1294 617 1346.5 571.5 c 128,-1,20
 1399 526 1399 526 1399 462 c 0,21,22
 1399 401 1399 401 1355.5 357.5 c 128,-1,23
 1312 314 1312 314 1251 314 c 0,24,25
 1191 314 1191 314 1148 357.5 c 128,-1,26
 1105 401 1105 401 1105 462 c 0,27,28
 1105 491 1105 491 1113.5 513 c 128,-1,29
 1122 535 1122 535 1137 544 c 1,30,-1
 1134 549 l 1,31,-1
 1081 544 l 1,32,-1
 904 544 l 1,33,-1
 904 490 l 1,34,-1
 1001 490 l 1,35,-1
 1001 425 l 1,36,-1
 714 425 l 1,37,38
 719 411 719 411 721.5 386 c 128,-1,39
 724 361 724 361 724 326 c 0,40,41
 724 280 724 280 709 234 c 128,-1,42
 694 188 694 188 666 148 c 1,43,-1
 666 139 l 1,44,45
 694 111 694 111 709 53.5 c 128,-1,46
 724 -4 724 -4 724 -82 c 1,47,-1
 643 -82 l 1,48,49
 643 -30 643 -30 634.5 12 c 128,-1,50
 626 54 626 54 610 82 c 1,51,-1
 602 90 l 1,52,53
 550 46 550 46 484.5 23 c 128,-1,54
 419 0 419 0 348 0 c 0,55,56
 266 0 266 0 208.5 43.5 c 128,-1,57
 151 87 151 87 151 148 c 0,58,59
 151 208 151 208 208.5 251 c 128,-1,60
 266 294 266 294 348 294 c 0,61,62
 424 294 424 294 492 271 c 128,-1,63
 560 248 560 248 612 204 c 1,64,65
 627 230 627 230 635 261 c 128,-1,66
 643 292 643 292 643 326 c 0,67,68
 643 408 643 408 599.5 466 c 128,-1,69
 556 524 556 524 495 524 c 0,70,71
 453 524 453 524 423.5 485.5 c 128,-1,72
 394 447 394 447 394 393 c 1,73,-1
 318 393 l 1,74,75
 318 447 318 447 288.5 485.5 c 128,-1,76
 259 524 259 524 218 524 c 0,77,78
 169 524 169 524 134 485.5 c 128,-1,79
 99 447 99 447 99 393 c 1,80,-1
 19 393 l 1,81,-1
 19 393 l 1,0,1
233 148 m 1,82,83
 233 121 233 121 266.5 101.5 c 128,-1,84
 300 82 300 82 348 82 c 0,85,86
 411 82 411 82 462.5 96.5 c 128,-1,87
 514 111 514 111 547 139 c 1,88,-1
 547 146 l 1,89,90
 509 178 509 178 457.5 195 c 128,-1,91
 406 212 406 212 348 212 c 0,92,93
 300 212 300 212 266.5 193.5 c 128,-1,94
 233 175 233 175 233 148 c 1,95,-1
 233 148 l 1,82,83
1170 462 m 1,96,97
 1170 428 1170 428 1193.5 404.5 c 128,-1,98
 1217 381 1217 381 1251 381 c 256,99,100
 1285 381 1285 381 1309 404.5 c 128,-1,101
 1333 428 1333 428 1333 462 c 256,102,103
 1333 496 1333 496 1309 520 c 128,-1,104
 1285 544 1285 544 1251 544 c 256,105,106
 1217 544 1217 544 1193.5 520 c 128,-1,107
 1170 496 1170 496 1170 462 c 1,108,-1
 1170 462 l 1,96,97
EndSplineSet
Ligature: 0 0 'abvs' U0C1E U0C3E
EndChar
StartChar: U0C1F_U0C3E.abvs
Encoding: 65562 -1 114
Width: 1280
GlyphClass: 2
Flags: W
Fore
146 393 m 1,0,1
 146 359 146 359 170.5 335 c 128,-1,2
 195 311 195 311 229 311 c 256,3,4
 263 311 263 311 287 335 c 128,-1,5
 311 359 311 359 311 393 c 256,6,7
 311 427 311 427 287 450.5 c 128,-1,8
 263 474 263 474 229 474 c 256,9,10
 195 474 195 474 170.5 450.5 c 128,-1,11
 146 427 146 427 146 393 c 1,12,-1
 146 393 l 1,0,1
48 275 m 1,13,14
 48 383 48 383 91 459 c 128,-1,15
 134 535 134 535 195 535 c 1,16,-1
 195 666 l 1,17,-1
 262 666 l 1,18,-1
 262 535 l 1,19,20
 309 535 309 535 342.5 493.5 c 128,-1,21
 376 452 376 452 376 393 c 0,22,23
 376 332 376 332 333 288.5 c 128,-1,24
 290 245 290 245 229 245 c 0,25,26
 195 245 195 245 168.5 256 c 128,-1,27
 142 267 142 267 131 286 c 1,28,-1
 124 282 l 1,29,30
 124 199 124 199 169 140.5 c 128,-1,31
 214 82 214 82 277 82 c 0,32,33
 339 82 339 82 383 134.5 c 128,-1,34
 427 187 427 187 427 262 c 1,35,-1
 503 262 l 1,36,37
 503 187 503 187 542 134.5 c 128,-1,38
 581 82 581 82 637 82 c 0,39,40
 705 82 705 82 753 151.5 c 128,-1,41
 801 221 801 221 801 320 c 0,42,43
 801 413 801 413 740.5 478.5 c 128,-1,44
 680 544 680 544 595 544 c 2,45,-1
 563 544 l 1,46,-1
 563 617 l 1,47,-1
 1073 617 l 2,48,49
 1148 617 1148 617 1200.5 571.5 c 128,-1,50
 1253 526 1253 526 1253 462 c 0,51,52
 1253 401 1253 401 1209.5 357.5 c 128,-1,53
 1166 314 1166 314 1105 314 c 0,54,55
 1045 314 1045 314 1002 357.5 c 128,-1,56
 959 401 959 401 959 462 c 0,57,58
 959 491 959 491 967.5 513 c 128,-1,59
 976 535 976 535 991 544 c 1,60,-1
 988 549 l 1,61,-1
 935 544 l 1,62,-1
 779 544 l 1,63,64
 828 503 828 503 855 444 c 128,-1,65
 882 385 882 385 882 320 c 0,66,67
 882 187 882 187 810 93.5 c 128,-1,68
 738 0 738 0 636 0 c 0,69,70
 579 0 579 0 532.5 31.5 c 128,-1,71
 486 63 486 63 467 114 c 1,72,-1
 461 112 l 1,73,74
 443 62 443 62 392 31 c 128,-1,75
 341 0 341 0 277 0 c 0,76,77
 182 0 182 0 115 80.5 c 128,-1,78
 48 161 48 161 48 275 c 1,79,-1
 48 275 l 1,13,14
1023 462 m 1,80,81
 1023 428 1023 428 1047 404.5 c 128,-1,82
 1071 381 1071 381 1105 381 c 256,83,84
 1139 381 1139 381 1163 404.5 c 128,-1,85
 1187 428 1187 428 1187 462 c 256,86,87
 1187 496 1187 496 1163 520 c 128,-1,88
 1139 544 1139 544 1105 544 c 256,89,90
 1071 544 1071 544 1047 520 c 128,-1,91
 1023 496 1023 496 1023 462 c 1,92,-1
 1023 462 l 1,80,81
EndSplineSet
Ligature: 0 0 'abvs' U0C1F U0C3E
EndChar
StartChar: U0C20_U0C3E.abvs
Encoding: 65563 -1 115
Width: 1108
GlyphClass: 2
Flags: W
Fore
129 303 m 1,0,1
 129 211 129 211 191.5 146.5 c 128,-1,2
 254 82 254 82 342 82 c 256,3,4
 430 82 430 82 492 146.5 c 128,-1,5
 554 211 554 211 554 303 c 256,6,7
 554 395 554 395 492 459.5 c 128,-1,8
 430 524 430 524 342 524 c 256,9,10
 254 524 254 524 191.5 459.5 c 128,-1,11
 129 395 129 395 129 303 c 1,12,-1
 129 303 l 1,0,1
48 303 m 1,13,14
 48 376 48 376 82.5 440.5 c 128,-1,15
 117 505 117 505 178 544 c 1,16,-1
 48 544 l 1,17,-1
 48 626 l 1,18,-1
 901 626 l 2,19,20
 976 626 976 626 1028.5 578 c 128,-1,21
 1081 530 1081 530 1081 462 c 0,22,23
 1081 401 1081 401 1038 357.5 c 128,-1,24
 995 314 995 314 935 314 c 0,25,26
 874 314 874 314 830.5 357.5 c 128,-1,27
 787 401 787 401 787 462 c 0,28,29
 787 487 787 487 793.5 508 c 128,-1,30
 800 529 800 529 813 544 c 1,31,-1
 809 552 l 1,32,-1
 745 544 l 1,33,-1
 505 544 l 1,34,35
 567 502 567 502 602 435.5 c 128,-1,36
 637 369 637 369 637 294 c 0,37,38
 637 172 637 172 550.5 86 c 128,-1,39
 464 0 464 0 342 0 c 256,40,41
 220 0 220 0 134 88.5 c 128,-1,42
 48 177 48 177 48 303 c 1,43,-1
 48 303 l 1,13,14
294 245 m 1,44,-1
 294 360 l 1,45,-1
 391 360 l 1,46,-1
 391 245 l 1,47,-1
 294 245 l 1,48,-1
 294 245 l 1,44,-1
853 462 m 1,49,50
 853 428 853 428 877 404.5 c 128,-1,51
 901 381 901 381 935 381 c 256,52,53
 969 381 969 381 993 404.5 c 128,-1,54
 1017 428 1017 428 1017 462 c 256,55,56
 1017 496 1017 496 993 520 c 128,-1,57
 969 544 969 544 935 544 c 256,58,59
 901 544 901 544 877 520 c 128,-1,60
 853 496 853 496 853 462 c 1,61,-1
 853 462 l 1,49,50
EndSplineSet
Ligature: 0 0 'abvs' U0C20 U0C3E
EndChar
StartChar: U0C21_U0C3E.abvs
Encoding: 65564 -1 116
Width: 1187
GlyphClass: 2
Flags: W
Fore
588 195 m 1,0,1
 588 161 588 161 612 137.5 c 128,-1,2
 636 114 636 114 670 114 c 256,3,4
 704 114 704 114 727.5 137.5 c 128,-1,5
 751 161 751 161 751 195 c 256,6,7
 751 229 751 229 727.5 253 c 128,-1,8
 704 277 704 277 670 277 c 256,9,10
 636 277 636 277 612 253 c 128,-1,11
 588 229 588 229 588 195 c 1,12,-1
 588 195 l 1,0,1
48 262 m 1,13,14
 48 344 48 344 90 419 c 128,-1,15
 132 494 132 494 206 544 c 1,16,-1
 65 544 l 1,17,-1
 65 626 l 1,18,-1
 979 626 l 2,19,20
 1054 626 1054 626 1106.5 578 c 128,-1,21
 1159 530 1159 530 1159 462 c 0,22,23
 1159 401 1159 401 1116 357.5 c 128,-1,24
 1073 314 1073 314 1013 314 c 0,25,26
 952 314 952 314 908.5 357.5 c 128,-1,27
 865 401 865 401 865 462 c 0,28,29
 865 487 865 487 871.5 508 c 128,-1,30
 878 529 878 529 891 544 c 1,31,-1
 887 552 l 1,32,-1
 823 544 l 1,33,-1
 709 544 l 1,34,-1
 738 524 l 1,35,-1
 694 457 l 1,36,37
 651 493 651 493 581.5 512.5 c 128,-1,38
 512 532 512 532 425 532 c 0,39,40
 302 532 302 532 215.5 453 c 128,-1,41
 129 374 129 374 129 262 c 0,42,43
 129 187 129 187 168 134.5 c 128,-1,44
 207 82 207 82 262 82 c 0,45,46
 318 82 318 82 357 129.5 c 128,-1,47
 396 177 396 177 396 245 c 1,48,-1
 456 245 l 1,49,50
 456 174 456 174 489.5 123.5 c 128,-1,51
 523 73 523 73 571 73 c 2,52,-1
 605 73 l 1,53,-1
 607 78 l 1,54,55
 572 91 572 91 551 123 c 128,-1,56
 530 155 530 155 530 195 c 0,57,58
 530 253 530 253 571 294 c 128,-1,59
 612 335 612 335 670 335 c 0,60,61
 730 335 730 335 773 292 c 128,-1,62
 816 249 816 249 816 189 c 0,63,64
 816 111 816 111 752 55.5 c 128,-1,65
 688 0 688 0 597 0 c 0,66,67
 545 0 545 0 499.5 26 c 128,-1,68
 454 52 454 52 428 97 c 1,69,-1
 423 95 l 1,70,71
 398 51 398 51 352 25.5 c 128,-1,72
 306 0 306 0 253 0 c 0,73,74
 168 0 168 0 108 76.5 c 128,-1,75
 48 153 48 153 48 262 c 1,76,-1
 48 262 l 1,13,14
932 462 m 1,77,78
 932 428 932 428 955.5 404.5 c 128,-1,79
 979 381 979 381 1013 381 c 256,80,81
 1047 381 1047 381 1071 404.5 c 128,-1,82
 1095 428 1095 428 1095 462 c 256,83,84
 1095 496 1095 496 1071 520 c 128,-1,85
 1047 544 1047 544 1013 544 c 256,86,87
 979 544 979 544 955.5 520 c 128,-1,88
 932 496 932 496 932 462 c 1,89,-1
 932 462 l 1,77,78
EndSplineSet
Ligature: 0 0 'abvs' U0C21 U0C3E
EndChar
StartChar: U0C22_U0C3E.abvs
Encoding: 65565 -1 117
Width: 1187
GlyphClass: 2
Flags: W
Fore
588 195 m 1,0,1
 588 161 588 161 612 137.5 c 128,-1,2
 636 114 636 114 670 114 c 256,3,4
 704 114 704 114 727.5 137.5 c 128,-1,5
 751 161 751 161 751 195 c 256,6,7
 751 229 751 229 727.5 253 c 128,-1,8
 704 277 704 277 670 277 c 256,9,10
 636 277 636 277 612 253 c 128,-1,11
 588 229 588 229 588 195 c 1,12,-1
 588 195 l 1,0,1
48 262 m 1,13,14
 48 345 48 345 88 419.5 c 128,-1,15
 128 494 128 494 199 544 c 1,16,-1
 65 544 l 1,17,-1
 65 626 l 1,18,-1
 979 626 l 2,19,20
 1054 626 1054 626 1106.5 578 c 128,-1,21
 1159 530 1159 530 1159 462 c 0,22,23
 1159 401 1159 401 1116 357.5 c 128,-1,24
 1073 314 1073 314 1013 314 c 0,25,26
 952 314 952 314 908.5 357.5 c 128,-1,27
 865 401 865 401 865 462 c 0,28,29
 865 487 865 487 871.5 508 c 128,-1,30
 878 529 878 529 891 544 c 1,31,-1
 887 552 l 1,32,-1
 823 544 l 1,33,-1
 711 544 l 1,34,-1
 738 524 l 1,35,-1
 694 457 l 1,36,37
 651 493 651 493 581.5 512.5 c 128,-1,38
 512 532 512 532 425 532 c 0,39,40
 302 532 302 532 215.5 453 c 128,-1,41
 129 374 129 374 129 262 c 0,42,43
 129 187 129 187 168 134.5 c 128,-1,44
 207 82 207 82 262 82 c 0,45,46
 310 82 310 82 344.5 129.5 c 128,-1,47
 379 177 379 177 379 245 c 1,48,-1
 447 245 l 1,49,50
 447 174 447 174 483.5 123.5 c 128,-1,51
 520 73 520 73 571 73 c 2,52,-1
 602 73 l 1,53,-1
 602 78 l 1,54,55
 566 91 566 91 544 123 c 128,-1,56
 522 155 522 155 522 195 c 0,57,58
 522 256 522 256 565.5 299.5 c 128,-1,59
 609 343 609 343 670 343 c 0,60,61
 730 343 730 343 773 298 c 128,-1,62
 816 253 816 253 816 189 c 0,63,64
 816 111 816 111 744 55.5 c 128,-1,65
 672 0 672 0 571 0 c 0,66,67
 533 0 533 0 499 14 c 128,-1,68
 465 28 465 28 440 54 c 1,69,-1
 433 51 l 1,70,-1
 466 -114 l 1,71,-1
 466 -180 l 1,72,-1
 352 -180 l 1,73,-1
 352 -114 l 1,74,-1
 382 51 l 1,75,-1
 377 54 l 1,76,77
 357 28 357 28 326.5 14 c 128,-1,78
 296 0 296 0 262 0 c 0,79,80
 173 0 173 0 110.5 76.5 c 128,-1,81
 48 153 48 153 48 262 c 1,82,-1
 48 262 l 1,13,14
932 462 m 1,83,84
 932 428 932 428 955.5 404.5 c 128,-1,85
 979 381 979 381 1013 381 c 256,86,87
 1047 381 1047 381 1071 404.5 c 128,-1,88
 1095 428 1095 428 1095 462 c 256,89,90
 1095 496 1095 496 1071 520 c 128,-1,91
 1047 544 1047 544 1013 544 c 256,92,93
 979 544 979 544 955.5 520 c 128,-1,94
 932 496 932 496 932 462 c 1,95,-1
 932 462 l 1,83,84
EndSplineSet
Ligature: 0 0 'abvs' U0C22 U0C3E
EndChar
StartChar: U0C23_U0C3E.abvs
Encoding: 65566 -1 118
Width: 1273
GlyphClass: 4
Flags: W
Fore
610 139 m 1,0,1
 610 105 610 105 634 80.5 c 128,-1,2
 658 56 658 56 692 56 c 256,3,4
 726 56 726 56 749.5 80.5 c 128,-1,5
 773 105 773 105 773 139 c 256,6,7
 773 173 773 173 749.5 197 c 128,-1,8
 726 221 726 221 692 221 c 256,9,10
 658 221 658 221 634 197 c 128,-1,11
 610 173 610 173 610 139 c 1,12,-1
 610 139 l 1,0,1
54 433 m 1,13,14
 54 501 54 501 116.5 549 c 128,-1,15
 179 597 179 597 267 597 c 0,16,17
 329 597 329 597 381 568.5 c 128,-1,18
 433 540 433 540 461 491 c 1,19,-1
 466 493 l 1,20,21
 481 520 481 520 504 541 c 128,-1,22
 527 562 527 562 556 576 c 1,23,-1
 556 617 l 1,24,-1
 1066 617 l 2,25,26
 1141 617 1141 617 1193.5 571.5 c 128,-1,27
 1246 526 1246 526 1246 462 c 0,28,29
 1246 401 1246 401 1202.5 357.5 c 128,-1,30
 1159 314 1159 314 1098 314 c 0,31,32
 1038 314 1038 314 995 357.5 c 128,-1,33
 952 401 952 401 952 462 c 0,34,35
 952 491 952 491 960.5 513 c 128,-1,36
 969 535 969 535 984 544 c 1,37,-1
 981 549 l 1,38,-1
 928 544 l 1,39,-1
 785 544 l 1,40,41
 841 498 841 498 872.5 426 c 128,-1,42
 904 354 904 354 904 269 c 0,43,44
 904 154 904 154 842 73 c 128,-1,45
 780 -8 780 -8 692 -8 c 0,46,47
 632 -8 632 -8 589 35 c 128,-1,48
 546 78 546 78 546 139 c 256,49,50
 546 200 546 200 589 243 c 128,-1,51
 632 286 632 286 692 286 c 0,52,53
 733 286 733 286 765 265.5 c 128,-1,54
 797 245 797 245 809 212 c 1,55,-1
 814 212 l 1,56,57
 818 224 818 224 820.5 238.5 c 128,-1,58
 823 253 823 253 823 269 c 0,59,60
 823 371 823 371 770.5 443 c 128,-1,61
 718 515 718 515 644 515 c 0,62,63
 589 515 589 515 545.5 473 c 128,-1,64
 502 431 502 431 491 367 c 1,65,-1
 435 367 l 1,66,67
 424 431 424 431 376.5 473 c 128,-1,68
 329 515 329 515 267 515 c 0,69,70
 213 515 213 515 174.5 491 c 128,-1,71
 136 467 136 467 136 433 c 0,72,73
 136 392 136 392 193.5 362.5 c 128,-1,74
 251 333 251 333 333 333 c 1,75,-1
 333 272 l 1,76,77
 251 272 251 272 193.5 237.5 c 128,-1,78
 136 203 136 203 136 155 c 0,79,80
 136 125 136 125 179.5 103.5 c 128,-1,81
 223 82 223 82 284 82 c 0,82,83
 324 82 324 82 355 89 c 128,-1,84
 386 96 386 96 406 110 c 1,85,-1
 437 32 l 1,86,87
 403 12 403 12 364 2 c 128,-1,88
 325 -8 325 -8 284 -8 c 0,89,90
 189 -8 189 -8 121.5 39.5 c 128,-1,91
 54 87 54 87 54 155 c 0,92,93
 54 202 54 202 81 241 c 128,-1,94
 108 280 108 280 153 296 c 1,95,-1
 153 304 l 1,96,97
 110 312 110 312 82 348.5 c 128,-1,98
 54 385 54 385 54 433 c 1,99,-1
 54 433 l 1,13,14
1017 462 m 1,100,101
 1017 428 1017 428 1040.5 404.5 c 128,-1,102
 1064 381 1064 381 1098 381 c 256,103,104
 1132 381 1132 381 1156 404.5 c 128,-1,105
 1180 428 1180 428 1180 462 c 256,106,107
 1180 496 1180 496 1156 520 c 128,-1,108
 1132 544 1132 544 1098 544 c 256,109,110
 1064 544 1064 544 1040.5 520 c 128,-1,111
 1017 496 1017 496 1017 462 c 1,112,-1
 1017 462 l 1,100,101
EndSplineSet
Ligature: 0 0 'abvs' U0C23 U0C3E
EndChar
StartChar: U0C24_U0C3E.abvs
Encoding: 65567 -1 119
Width: 1181
GlyphClass: 2
Flags: W
Fore
124 376 m 1,0,1
 124 342 124 342 148.5 318 c 128,-1,2
 173 294 173 294 207 294 c 256,3,4
 241 294 241 294 265 318 c 128,-1,5
 289 342 289 342 289 376 c 256,6,7
 289 410 289 410 265 433.5 c 128,-1,8
 241 457 241 457 207 457 c 256,9,10
 173 457 173 457 148.5 433.5 c 128,-1,11
 124 410 124 410 124 376 c 1,12,-1
 124 376 l 1,0,1
534 376 m 1,13,14
 534 342 534 342 557.5 318 c 128,-1,15
 581 294 581 294 615 294 c 256,16,17
 649 294 649 294 673 318 c 128,-1,18
 697 342 697 342 697 376 c 256,19,20
 697 410 697 410 673 433.5 c 128,-1,21
 649 457 649 457 615 457 c 256,22,23
 581 457 581 457 557.5 433.5 c 128,-1,24
 534 410 534 410 534 376 c 1,25,-1
 534 376 l 1,13,14
590 503 m 1,26,-1
 590 508 l 1,27,28
 557 526 557 526 511.5 535 c 128,-1,29
 466 544 466 544 411 544 c 2,30,-1
 93 544 l 1,31,-1
 93 626 l 1,32,-1
 974 626 l 2,33,34
 1049 626 1049 626 1101.5 578 c 128,-1,35
 1154 530 1154 530 1154 462 c 0,36,37
 1154 401 1154 401 1111 357.5 c 128,-1,38
 1068 314 1068 314 1008 314 c 0,39,40
 947 314 947 314 903.5 357.5 c 128,-1,41
 860 401 860 401 860 462 c 0,42,43
 860 487 860 487 866.5 508 c 128,-1,44
 873 529 873 529 886 544 c 1,45,-1
 882 552 l 1,46,-1
 818 544 l 1,47,-1
 671 544 l 1,48,49
 722 510 722 510 750.5 456.5 c 128,-1,50
 779 403 779 403 779 343 c 0,51,52
 779 187 779 187 676.5 93.5 c 128,-1,53
 574 0 574 0 403 0 c 0,54,55
 239 0 239 0 140.5 89 c 128,-1,56
 42 178 42 178 42 326 c 0,57,58
 42 408 42 408 90.5 466 c 128,-1,59
 139 524 139 524 207 524 c 0,60,61
 268 524 268 524 311 480.5 c 128,-1,62
 354 437 354 437 354 376 c 256,63,64
 354 315 354 315 311 272 c 128,-1,65
 268 229 268 229 207 229 c 0,66,67
 186 229 186 229 170 233.5 c 128,-1,68
 154 238 154 238 144 246 c 1,69,-1
 136 245 l 1,70,71
 136 171 136 171 209 126.5 c 128,-1,72
 282 82 282 82 403 82 c 0,73,74
 529 82 529 82 604.5 126.5 c 128,-1,75
 680 171 680 171 680 245 c 1,76,-1
 673 246 l 1,77,78
 666 238 666 238 651 233.5 c 128,-1,79
 636 229 636 229 615 229 c 0,80,81
 554 229 554 229 510.5 272 c 128,-1,82
 467 315 467 315 467 376 c 0,83,84
 467 425 467 425 502.5 461.5 c 128,-1,85
 538 498 538 498 590 503 c 1,86,-1
 590 503 l 1,26,-1
926 462 m 1,87,88
 926 428 926 428 950 404.5 c 128,-1,89
 974 381 974 381 1008 381 c 256,90,91
 1042 381 1042 381 1066 404.5 c 128,-1,92
 1090 428 1090 428 1090 462 c 256,93,94
 1090 496 1090 496 1066 520 c 128,-1,95
 1042 544 1042 544 1008 544 c 256,96,97
 974 544 974 544 950 520 c 128,-1,98
 926 496 926 496 926 462 c 1,99,-1
 926 462 l 1,87,88
EndSplineSet
Ligature: 0 0 'abvs' U0C24 U0C3E
EndChar
StartChar: U0C25_U0C3E.abvs
Encoding: 65568 -1 120
Width: 1187
GlyphClass: 2
Flags: W
Fore
129 245 m 1,0,1
 129 177 129 177 163 129.5 c 128,-1,2
 197 82 197 82 245 82 c 0,3,4
 300 82 300 82 338.5 129.5 c 128,-1,5
 377 177 377 177 377 245 c 1,6,-1
 439 245 l 1,7,8
 439 177 439 177 477.5 129.5 c 128,-1,9
 516 82 516 82 571 82 c 0,10,11
 618 82 618 82 651.5 129.5 c 128,-1,12
 685 177 685 177 685 245 c 0,13,14
 685 361 685 361 604 442.5 c 128,-1,15
 523 524 523 524 408 524 c 0,16,17
 292 524 292 524 210.5 442.5 c 128,-1,18
 129 361 129 361 129 245 c 1,19,-1
 129 245 l 1,0,1
48 245 m 1,20,21
 48 336 48 336 93.5 416 c 128,-1,22
 139 496 139 496 219 544 c 1,23,-1
 65 544 l 1,24,-1
 65 626 l 1,25,-1
 979 626 l 2,26,27
 1054 626 1054 626 1106.5 578 c 128,-1,28
 1159 530 1159 530 1159 462 c 0,29,30
 1159 401 1159 401 1116 357.5 c 128,-1,31
 1073 314 1073 314 1013 314 c 0,32,33
 952 314 952 314 908.5 357.5 c 128,-1,34
 865 401 865 401 865 462 c 0,35,36
 865 487 865 487 871.5 508 c 128,-1,37
 878 529 878 529 891 544 c 1,38,-1
 887 552 l 1,39,-1
 823 544 l 1,40,-1
 598 544 l 1,41,42
 677 495 677 495 722 415 c 128,-1,43
 767 335 767 335 767 245 c 0,44,45
 767 144 767 144 709.5 72 c 128,-1,46
 652 0 652 0 571 0 c 0,47,48
 529 0 529 0 492.5 14.5 c 128,-1,49
 456 29 456 29 432 56 c 1,50,-1
 427 53 l 1,51,-1
 457 -114 l 1,52,-1
 457 -180 l 1,53,-1
 359 -180 l 1,54,-1
 359 -114 l 1,55,-1
 386 51 l 1,56,-1
 381 56 l 1,57,58
 357 29 357 29 321.5 14.5 c 128,-1,59
 286 0 286 0 245 0 c 0,60,61
 163 0 163 0 105.5 72 c 128,-1,62
 48 144 48 144 48 245 c 1,63,-1
 48 245 l 1,20,21
359 311 m 1,64,-1
 359 408 l 1,65,-1
 457 408 l 1,66,-1
 457 311 l 1,67,-1
 359 311 l 1,68,-1
 359 311 l 1,64,-1
932 462 m 1,69,70
 932 428 932 428 955.5 404.5 c 128,-1,71
 979 381 979 381 1013 381 c 256,72,73
 1047 381 1047 381 1071 404.5 c 128,-1,74
 1095 428 1095 428 1095 462 c 256,75,76
 1095 496 1095 496 1071 520 c 128,-1,77
 1047 544 1047 544 1013 544 c 256,78,79
 979 544 979 544 955.5 520 c 128,-1,80
 932 496 932 496 932 462 c 1,81,-1
 932 462 l 1,69,70
EndSplineSet
Ligature: 0 0 'abvs' U0C25 U0C3E
EndChar
StartChar: U0C26_U0C3E.abvs
Encoding: 65569 -1 121
Width: 1187
GlyphClass: 2
Flags: W
Fore
129 245 m 1,0,1
 129 177 129 177 163 129.5 c 128,-1,2
 197 82 197 82 245 82 c 0,3,4
 300 82 300 82 338.5 129.5 c 128,-1,5
 377 177 377 177 377 245 c 1,6,-1
 439 245 l 1,7,8
 439 177 439 177 477.5 129.5 c 128,-1,9
 516 82 516 82 571 82 c 0,10,11
 618 82 618 82 651.5 129.5 c 128,-1,12
 685 177 685 177 685 245 c 0,13,14
 685 361 685 361 604 442.5 c 128,-1,15
 523 524 523 524 408 524 c 0,16,17
 292 524 292 524 210.5 442.5 c 128,-1,18
 129 361 129 361 129 245 c 1,19,-1
 129 245 l 1,0,1
48 245 m 1,20,21
 48 336 48 336 93.5 416 c 128,-1,22
 139 496 139 496 219 544 c 1,23,-1
 65 544 l 1,24,-1
 65 626 l 1,25,-1
 979 626 l 2,26,27
 1054 626 1054 626 1106.5 578 c 128,-1,28
 1159 530 1159 530 1159 462 c 0,29,30
 1159 401 1159 401 1116 357.5 c 128,-1,31
 1073 314 1073 314 1013 314 c 0,32,33
 952 314 952 314 908.5 357.5 c 128,-1,34
 865 401 865 401 865 462 c 0,35,36
 865 487 865 487 871.5 508 c 128,-1,37
 878 529 878 529 891 544 c 1,38,-1
 887 552 l 1,39,-1
 823 544 l 1,40,-1
 598 544 l 1,41,42
 677 495 677 495 722 415 c 128,-1,43
 767 335 767 335 767 245 c 0,44,45
 767 144 767 144 706 72 c 128,-1,46
 645 0 645 0 559 0 c 0,47,48
 509 0 509 0 468 27 c 128,-1,49
 427 54 427 54 411 99 c 1,50,-1
 405 97 l 1,51,52
 389 53 389 53 345 26.5 c 128,-1,53
 301 0 301 0 245 0 c 0,54,55
 163 0 163 0 105.5 72 c 128,-1,56
 48 144 48 144 48 245 c 1,57,-1
 48 245 l 1,20,21
932 462 m 1,58,59
 932 428 932 428 955.5 404.5 c 128,-1,60
 979 381 979 381 1013 381 c 256,61,62
 1047 381 1047 381 1071 404.5 c 128,-1,63
 1095 428 1095 428 1095 462 c 256,64,65
 1095 496 1095 496 1071 520 c 128,-1,66
 1047 544 1047 544 1013 544 c 256,67,68
 979 544 979 544 955.5 520 c 128,-1,69
 932 496 932 496 932 462 c 1,70,-1
 932 462 l 1,58,59
EndSplineSet
Ligature: 0 0 'abvs' U0C26 U0C3E
EndChar
StartChar: U0C27_U0C3E.abvs
Encoding: 65570 -1 122
Width: 1187
GlyphClass: 2
Flags: W
Fore
129 245 m 1,0,1
 129 177 129 177 163 129.5 c 128,-1,2
 197 82 197 82 245 82 c 0,3,4
 300 82 300 82 338.5 129.5 c 128,-1,5
 377 177 377 177 377 245 c 1,6,-1
 439 245 l 1,7,8
 439 177 439 177 477.5 129.5 c 128,-1,9
 516 82 516 82 571 82 c 0,10,11
 618 82 618 82 651.5 129.5 c 128,-1,12
 685 177 685 177 685 245 c 0,13,14
 685 361 685 361 604 442.5 c 128,-1,15
 523 524 523 524 408 524 c 0,16,17
 292 524 292 524 210.5 442.5 c 128,-1,18
 129 361 129 361 129 245 c 1,19,-1
 129 245 l 1,0,1
48 245 m 1,20,21
 48 336 48 336 93.5 416 c 128,-1,22
 139 496 139 496 219 544 c 1,23,-1
 65 544 l 1,24,-1
 65 626 l 1,25,-1
 979 626 l 2,26,27
 1054 626 1054 626 1106.5 578 c 128,-1,28
 1159 530 1159 530 1159 462 c 0,29,30
 1159 401 1159 401 1116 357.5 c 128,-1,31
 1073 314 1073 314 1013 314 c 0,32,33
 952 314 952 314 908.5 357.5 c 128,-1,34
 865 401 865 401 865 462 c 0,35,36
 865 487 865 487 871.5 508 c 128,-1,37
 878 529 878 529 891 544 c 1,38,-1
 887 552 l 1,39,-1
 823 544 l 1,40,-1
 598 544 l 1,41,42
 677 495 677 495 722 415 c 128,-1,43
 767 335 767 335 767 245 c 0,44,45
 767 144 767 144 709.5 72 c 128,-1,46
 652 0 652 0 571 0 c 0,47,48
 531 0 531 0 496.5 14 c 128,-1,49
 462 28 462 28 437 53 c 1,50,-1
 432 49 l 1,51,-1
 469 -97 l 1,52,-1
 469 -163 l 1,53,-1
 355 -163 l 1,54,-1
 355 -97 l 1,55,-1
 389 46 l 1,56,-1
 384 53 l 1,57,58
 362 28 362 28 325.5 14 c 128,-1,59
 289 0 289 0 245 0 c 0,60,61
 163 0 163 0 105.5 72 c 128,-1,62
 48 144 48 144 48 245 c 1,63,-1
 48 245 l 1,20,21
932 462 m 1,64,65
 932 428 932 428 955.5 404.5 c 128,-1,66
 979 381 979 381 1013 381 c 256,67,68
 1047 381 1047 381 1071 404.5 c 128,-1,69
 1095 428 1095 428 1095 462 c 256,70,71
 1095 496 1095 496 1071 520 c 128,-1,72
 1047 544 1047 544 1013 544 c 256,73,74
 979 544 979 544 955.5 520 c 128,-1,75
 932 496 932 496 932 462 c 1,76,-1
 932 462 l 1,64,65
EndSplineSet
Ligature: 0 0 'abvs' U0C27 U0C3E
EndChar
StartChar: U0C28_U0C3E.abvs
Encoding: 65571 -1 123
Width: 1178
GlyphClass: 2
Flags: W
Fore
498 82 m 1,0,1
 556 82 556 82 596.5 146.5 c 128,-1,2
 637 211 637 211 637 303 c 256,3,4
 637 395 637 395 569.5 464 c 128,-1,5
 502 533 502 533 401 544 c 2,6,-1
 56 544 l 1,7,-1
 56 626 l 1,8,-1
 971 626 l 2,9,10
 1046 626 1046 626 1098.5 578 c 128,-1,11
 1151 530 1151 530 1151 462 c 0,12,13
 1151 401 1151 401 1108 357.5 c 128,-1,14
 1065 314 1065 314 1005 314 c 0,15,16
 944 314 944 314 900.5 357.5 c 128,-1,17
 857 401 857 401 857 462 c 0,18,19
 857 487 857 487 863.5 508.5 c 128,-1,20
 870 530 870 530 882 544 c 1,21,-1
 879 552 l 1,22,-1
 814 544 l 1,23,-1
 586 544 l 1,24,25
 649 500 649 500 684 436.5 c 128,-1,26
 719 373 719 373 719 303 c 0,27,28
 719 177 719 177 654.5 88.5 c 128,-1,29
 590 0 590 0 498 0 c 0,30,31
 428 0 428 0 375.5 43 c 128,-1,32
 323 86 323 86 311 151 c 0,33,34
 303 199 303 199 272.5 230.5 c 128,-1,35
 242 262 242 262 204 262 c 0,36,37
 170 262 170 262 145.5 228 c 128,-1,38
 121 194 121 194 121 146 c 0,39,40
 121 128 121 128 133.5 97 c 128,-1,41
 146 66 146 66 170 24 c 1,42,-1
 97 -3 l 1,43,44
 69 46 69 46 54 84 c 128,-1,45
 39 122 39 122 39 146 c 0,46,47
 39 228 39 228 87.5 285.5 c 128,-1,48
 136 343 136 343 204 343 c 0,49,50
 271 343 271 343 320.5 300 c 128,-1,51
 370 257 370 257 376 194 c 0,52,53
 380 146 380 146 415 114 c 128,-1,54
 450 82 450 82 498 82 c 1,55,-1
 498 82 l 1,0,1
923 462 m 1,56,57
 923 428 923 428 947 404.5 c 128,-1,58
 971 381 971 381 1005 381 c 256,59,60
 1039 381 1039 381 1062.5 404.5 c 128,-1,61
 1086 428 1086 428 1086 462 c 256,62,63
 1086 496 1086 496 1062.5 520 c 128,-1,64
 1039 544 1039 544 1005 544 c 256,65,66
 971 544 971 544 947 520 c 128,-1,67
 923 496 923 496 923 462 c 1,68,-1
 923 462 l 1,56,57
EndSplineSet
Ligature: 0 0 'abvs' U0C28 U0C3E
EndChar
StartChar: U0C2A_U0C3E.abvs
Encoding: 65572 -1 124
Width: 1134
GlyphClass: 2
Flags: W
Fore
100 148 m 1,0,1
 100 114 100 114 124 89.5 c 128,-1,2
 148 65 148 65 182 65 c 256,3,4
 216 65 216 65 239.5 89.5 c 128,-1,5
 263 114 263 114 263 148 c 256,6,7
 263 182 263 182 239.5 205.5 c 128,-1,8
 216 229 216 229 182 229 c 256,9,10
 148 229 148 229 124 205.5 c 128,-1,11
 100 182 100 182 100 148 c 1,12,-1
 100 148 l 1,0,1
459 82 m 1,13,14
 534 82 534 82 586.5 161 c 128,-1,15
 639 240 639 240 639 352 c 0,16,17
 639 377 639 377 634 402.5 c 128,-1,18
 629 428 629 428 620 454 c 1,19,-1
 71 454 l 1,20,-1
 71 518 l 1,21,-1
 590 518 l 1,22,23
 539 600 539 600 449 647 c 128,-1,24
 359 694 359 694 253 694 c 1,25,-1
 255 756 l 1,26,27
 391 756 391 756 503 692 c 128,-1,28
 615 628 615 628 671 518 c 1,29,-1
 960 518 l 2,30,31
 1020 518 1020 518 1062.5 475 c 128,-1,32
 1105 432 1105 432 1105 372 c 0,33,34
 1105 311 1105 311 1062 267.5 c 128,-1,35
 1019 224 1019 224 959 224 c 0,36,37
 898 224 898 224 854.5 267.5 c 128,-1,38
 811 311 811 311 811 372 c 0,39,40
 811 396 811 396 820.5 417.5 c 128,-1,41
 830 439 830 439 848 454 c 1,42,-1
 847 461 l 1,43,-1
 802 454 l 1,44,-1
 697 454 l 1,45,46
 704 430 704 430 708 404 c 128,-1,47
 712 378 712 378 712 352 c 0,48,49
 712 206 712 206 638 103 c 128,-1,50
 564 0 564 0 459 0 c 0,51,52
 418 0 418 0 381 23 c 128,-1,53
 344 46 344 46 321 85 c 1,54,-1
 313 83 l 1,55,56
 299 46 299 46 263 23 c 128,-1,57
 227 0 227 0 182 0 c 0,58,59
 121 0 121 0 77.5 43.5 c 128,-1,60
 34 87 34 87 34 148 c 0,61,62
 34 208 34 208 77.5 251 c 128,-1,63
 121 294 121 294 182 294 c 0,64,65
 235 294 235 294 279 260.5 c 128,-1,66
 323 227 323 227 343 172 c 0,67,68
 358 131 358 131 390 106.5 c 128,-1,69
 422 82 422 82 459 82 c 1,70,-1
 459 82 l 1,13,14
877 372 m 1,71,72
 877 338 877 338 901 314.5 c 128,-1,73
 925 291 925 291 959 291 c 256,74,75
 993 291 993 291 1016.5 314.5 c 128,-1,76
 1040 338 1040 338 1040 372 c 256,77,78
 1040 406 1040 406 1016.5 430 c 128,-1,79
 993 454 993 454 959 454 c 256,80,81
 925 454 925 454 901 430 c 128,-1,82
 877 406 877 406 877 372 c 1,83,-1
 877 372 l 1,71,72
EndSplineSet
Ligature: 0 0 'abvs' U0C2A U0C3E
EndChar
StartChar: U0C2B_U0C3E.abvs
Encoding: 65573 -1 125
Width: 1119
GlyphClass: 2
Flags: W
Fore
102 148 m 1,0,1
 102 114 102 114 126 89.5 c 128,-1,2
 150 65 150 65 184 65 c 256,3,4
 218 65 218 65 241.5 89.5 c 128,-1,5
 265 114 265 114 265 148 c 256,6,7
 265 182 265 182 241.5 205.5 c 128,-1,8
 218 229 218 229 184 229 c 256,9,10
 150 229 150 229 126 205.5 c 128,-1,11
 102 182 102 182 102 148 c 1,12,-1
 102 148 l 1,0,1
461 82 m 1,13,14
 536 82 536 82 588.5 161 c 128,-1,15
 641 240 641 240 641 352 c 0,16,17
 641 377 641 377 636 402.5 c 128,-1,18
 631 428 631 428 622 454 c 1,19,-1
 56 454 l 1,20,-1
 56 518 l 1,21,-1
 592 518 l 1,22,23
 541 600 541 600 451 647 c 128,-1,24
 361 694 361 694 255 694 c 1,25,-1
 257 765 l 1,26,27
 394 765 394 765 507 698 c 128,-1,28
 620 631 620 631 675 518 c 1,29,-1
 945 518 l 2,30,31
 1005 518 1005 518 1047.5 475 c 128,-1,32
 1090 432 1090 432 1090 372 c 0,33,34
 1090 311 1090 311 1047 267.5 c 128,-1,35
 1004 224 1004 224 943 224 c 256,36,37
 882 224 882 224 839 267.5 c 128,-1,38
 796 311 796 311 796 372 c 0,39,40
 796 396 796 396 805.5 417.5 c 128,-1,41
 815 439 815 439 833 454 c 1,42,-1
 831 461 l 1,43,-1
 787 454 l 1,44,-1
 700 454 l 1,45,46
 707 430 707 430 710.5 404 c 128,-1,47
 714 378 714 378 714 352 c 0,48,49
 714 206 714 206 640 103 c 128,-1,50
 566 0 566 0 461 0 c 0,51,52
 427 0 427 0 395.5 14 c 128,-1,53
 364 28 364 28 340 53 c 1,54,-1
 337 46 l 1,55,-1
 369 -131 l 1,56,-1
 369 -197 l 1,57,-1
 270 -197 l 1,58,-1
 270 -131 l 1,59,-1
 301 46 l 1,60,-1
 294 51 l 1,61,62
 274 27 274 27 245.5 13.5 c 128,-1,63
 217 0 217 0 184 0 c 0,64,65
 123 0 123 0 79.5 43.5 c 128,-1,66
 36 87 36 87 36 148 c 0,67,68
 36 208 36 208 79.5 251 c 128,-1,69
 123 294 123 294 184 294 c 0,70,71
 238 294 238 294 280.5 260 c 128,-1,72
 323 226 323 226 335 172 c 0,73,74
 344 132 344 132 379.5 107 c 128,-1,75
 415 82 415 82 461 82 c 1,76,-1
 461 82 l 1,13,14
862 372 m 1,77,78
 862 338 862 338 885.5 314.5 c 128,-1,79
 909 291 909 291 943 291 c 256,80,81
 977 291 977 291 1001 314.5 c 128,-1,82
 1025 338 1025 338 1025 372 c 256,83,84
 1025 406 1025 406 1001 430 c 128,-1,85
 977 454 977 454 943 454 c 256,86,87
 909 454 909 454 885.5 430 c 128,-1,88
 862 406 862 406 862 372 c 1,89,-1
 862 372 l 1,77,78
EndSplineSet
Ligature: 0 0 'abvs' U0C2B U0C3E
EndChar
StartChar: U0C2C_U0C3E.abvs
Encoding: 65574 -1 126
Width: 1163
GlyphClass: 2
Flags: W
Fore
578 82 m 1,0,1
 633 82 633 82 672 146.5 c 128,-1,2
 711 211 711 211 711 303 c 0,3,4
 711 403 711 403 650.5 473.5 c 128,-1,5
 590 544 590 544 505 544 c 2,6,-1
 445 544 l 1,7,-1
 445 617 l 1,8,-1
 955 617 l 2,9,10
 1030 617 1030 617 1083 571.5 c 128,-1,11
 1136 526 1136 526 1136 462 c 0,12,13
 1136 401 1136 401 1092.5 357.5 c 128,-1,14
 1049 314 1049 314 988 314 c 256,15,16
 927 314 927 314 884 357.5 c 128,-1,17
 841 401 841 401 841 462 c 0,18,19
 841 491 841 491 850 513 c 128,-1,20
 859 535 859 535 874 544 c 1,21,-1
 870 549 l 1,22,-1
 818 544 l 1,23,-1
 683 544 l 1,24,25
 735 501 735 501 763.5 437.5 c 128,-1,26
 792 374 792 374 792 303 c 0,27,28
 792 177 792 177 729.5 88.5 c 128,-1,29
 667 0 667 0 578 0 c 0,30,31
 527 0 527 0 485.5 29.5 c 128,-1,32
 444 59 444 59 427 107 c 1,33,-1
 418 104 l 1,34,35
 390 56 390 56 341 28 c 128,-1,36
 292 0 292 0 235 0 c 0,37,38
 160 0 160 0 107 52.5 c 128,-1,39
 54 105 54 105 54 180 c 0,40,41
 54 230 54 230 93.5 274.5 c 128,-1,42
 133 319 133 319 197 342 c 0,43,44
 251 362 251 362 283.5 393.5 c 128,-1,45
 316 425 316 425 316 457 c 0,46,47
 316 485 316 485 289.5 504.5 c 128,-1,48
 263 524 263 524 226 524 c 256,49,50
 189 524 189 524 162.5 504.5 c 128,-1,51
 136 485 136 485 136 457 c 0,52,53
 136 441 136 441 143 426.5 c 128,-1,54
 150 412 150 412 163 401 c 1,55,-1
 102 359 l 1,56,57
 79 378 79 378 66.5 406 c 128,-1,58
 54 434 54 434 54 466 c 0,59,60
 54 520 54 520 104.5 558.5 c 128,-1,61
 155 597 155 597 226 597 c 256,62,63
 297 597 297 597 347.5 556 c 128,-1,64
 398 515 398 515 398 457 c 0,65,66
 398 408 398 408 359 363.5 c 128,-1,67
 320 319 320 319 257 296 c 0,68,69
 203 276 203 276 169.5 244 c 128,-1,70
 136 212 136 212 136 180 c 0,71,72
 136 139 136 139 165 110.5 c 128,-1,73
 194 82 194 82 235 82 c 0,74,75
 301 82 301 82 347.5 129.5 c 128,-1,76
 394 177 394 177 394 245 c 1,77,-1
 454 245 l 1,78,79
 454 177 454 177 490.5 129.5 c 128,-1,80
 527 82 527 82 578 82 c 1,81,-1
 578 82 l 1,0,1
906 462 m 1,82,83
 906 428 906 428 930 404.5 c 128,-1,84
 954 381 954 381 988 381 c 256,85,86
 1022 381 1022 381 1045.5 404.5 c 128,-1,87
 1069 428 1069 428 1069 462 c 256,88,89
 1069 496 1069 496 1045.5 520 c 128,-1,90
 1022 544 1022 544 988 544 c 256,91,92
 954 544 954 544 930 520 c 128,-1,93
 906 496 906 496 906 462 c 1,94,-1
 906 462 l 1,82,83
EndSplineSet
Ligature: 0 0 'abvs' U0C2C U0C3E
EndChar
StartChar: U0C2D_U0C3E.abvs
Encoding: 65575 -1 127
Width: 1164
GlyphClass: 2
Flags: W
Fore
563 82 m 1,0,1
 611 82 611 82 644.5 139 c 128,-1,2
 678 196 678 196 678 277 c 0,3,4
 678 388 678 388 623 466 c 128,-1,5
 568 544 568 544 490 544 c 2,6,-1
 447 544 l 1,7,-1
 447 617 l 1,8,-1
 957 617 l 2,9,10
 1032 617 1032 617 1084.5 571.5 c 128,-1,11
 1137 526 1137 526 1137 462 c 0,12,13
 1137 401 1137 401 1093.5 357.5 c 128,-1,14
 1050 314 1050 314 989 314 c 0,15,16
 929 314 929 314 886 357.5 c 128,-1,17
 843 401 843 401 843 462 c 0,18,19
 843 491 843 491 851.5 513 c 128,-1,20
 860 535 860 535 875 544 c 1,21,-1
 872 549 l 1,22,-1
 819 544 l 1,23,-1
 646 544 l 1,24,25
 700 495 700 495 730 425 c 128,-1,26
 760 355 760 355 760 277 c 0,27,28
 760 162 760 162 702.5 81 c 128,-1,29
 645 0 645 0 563 0 c 0,30,31
 524 0 524 0 487 19 c 128,-1,32
 450 38 450 38 422 73 c 1,33,-1
 418 68 l 1,34,-1
 449 -114 l 1,35,-1
 449 -180 l 1,36,-1
 350 -180 l 1,37,-1
 350 -114 l 1,38,-1
 382 66 l 1,39,-1
 379 73 l 1,40,41
 351 38 351 38 313.5 19 c 128,-1,42
 276 0 276 0 236 0 c 0,43,44
 161 0 161 0 108.5 52.5 c 128,-1,45
 56 105 56 105 56 180 c 0,46,47
 56 236 56 236 95.5 285 c 128,-1,48
 135 334 135 334 199 357 c 0,49,50
 253 377 253 377 285.5 404 c 128,-1,51
 318 431 318 431 318 457 c 0,52,53
 318 485 318 485 290 504.5 c 128,-1,54
 262 524 262 524 223 524 c 0,55,56
 188 524 188 524 163 504.5 c 128,-1,57
 138 485 138 485 138 457 c 0,58,59
 138 441 138 441 145 426.5 c 128,-1,60
 152 412 152 412 165 401 c 1,61,-1
 104 359 l 1,62,63
 81 378 81 378 68.5 406 c 128,-1,64
 56 434 56 434 56 466 c 0,65,66
 56 520 56 520 104.5 558.5 c 128,-1,67
 153 597 153 597 221 597 c 0,68,69
 295 597 295 597 347 556 c 128,-1,70
 399 515 399 515 399 457 c 0,71,72
 399 408 399 408 360 363.5 c 128,-1,73
 321 319 321 319 258 296 c 0,74,75
 204 276 204 276 171 244.5 c 128,-1,76
 138 213 138 213 138 180 c 0,77,78
 138 139 138 139 166.5 110.5 c 128,-1,79
 195 82 195 82 236 82 c 0,80,81
 292 82 292 82 331.5 129.5 c 128,-1,82
 371 177 371 177 371 245 c 1,83,-1
 430 245 l 1,84,85
 430 177 430 177 469 129.5 c 128,-1,86
 508 82 508 82 563 82 c 1,87,-1
 563 82 l 1,0,1
908 462 m 1,88,89
 908 428 908 428 931.5 404.5 c 128,-1,90
 955 381 955 381 989 381 c 256,91,92
 1023 381 1023 381 1047 404.5 c 128,-1,93
 1071 428 1071 428 1071 462 c 256,94,95
 1071 496 1071 496 1047 520 c 128,-1,96
 1023 544 1023 544 989 544 c 256,97,98
 955 544 955 544 931.5 520 c 128,-1,99
 908 496 908 496 908 462 c 1,100,-1
 908 462 l 1,88,89
EndSplineSet
Ligature: 0 0 'abvs' U0C2D U0C3E
EndChar
